<svg xmlns="http://www.w3.org/2000/svg" xmlns:xlink="http://www.w3.org/1999/xlink" viewBox="0 0 112.66 112.66"><defs><style>.cls-1{fill:none;stroke-miterlimit:10;stroke:url(#linear-gradient);}.cls-2{fill:url(#linear-gradient-2);}.cls-3{fill:#fff;}</style><linearGradient id="linear-gradient" y1="56.33" x2="112.66" y2="56.33" gradientUnits="userSpaceOnUse"><stop offset="0.31" stop-color="#bb7ab4"/><stop offset="0.93" stop-color="#a2609f"/></linearGradient><linearGradient id="linear-gradient-2" x1="56.33" y1="6.66" x2="56.33" y2="106.16" xlink:href="#linear-gradient"/></defs><title>Asset 1</title><g id="Layer_2" data-name="Layer 2"><g id="Camada_1" data-name="Camada 1"><path class="cls-1" d="M25.38.5H87.29a24.87,24.87,0,0,1,24.87,24.87V87.28a24.88,24.88,0,0,1-24.88,24.88H25.38A24.88,24.88,0,0,1,.5,87.28V25.38A24.88,24.88,0,0,1,25.38.5Z"/><path class="cls-2" d="M106.08,56.41A49.75,49.75,0,1,1,56.33,6.66,49.75,49.75,0,0,1,106.08,56.41Z"/><path class="cls-3" d="M41.9,49.88s0,.11,0,.33,0,.24,0,.4a2,2,0,0,1,0,.25c0,.1,0,.19,0,.3a17,17,0,0,0,.61,3.56c.06.18.11.37.17.57s.13.4.2.6.15.41.24.61.16.43.26.64a17.56,17.56,0,0,0,3.64,5.32,17.36,17.36,0,0,0,3,2.41,18.42,18.42,0,0,0,3.69,1.84l.13.05.13,0,.25.08.52.17.52.14.27.07.27.06.54.11.55.1.27,0,.14,0,.14,0,.56.06a5.48,5.48,0,0,0,.57,0l.57,0H60.3l.59,0a2.58,2.58,0,0,0,.29,0l.29,0c.39,0,.78-.09,1.17-.15A17.45,17.45,0,0,0,65,67c.39-.11.76-.26,1.15-.39l.56-.23.28-.11.28-.13a18,18,0,0,0,7.52-6.48c.11-.19.22-.37.34-.55l.32-.55.15-.28.15-.29.14-.29.07-.14A1,1,0,0,0,76,57.4c.09-.19.18-.39.26-.59s.16-.39.24-.6l.12-.29.1-.31.1-.31.05-.15s0-.1,0-.16l.17-.62c0-.1,0-.21.08-.32l.07-.31.07-.32.06-.31,0-.32.06-.32.07-.65a.78.78,0,0,0,0-.16l0-.16,0-.32,0-.33c0-.1,0-.21,0-.32V49.06a.81.81,0,0,0,0-.16l0-.32,0-.32,0-.16a.88.88,0,0,0,0-.16l-.08-.64a3.06,3.06,0,0,0,0-.32l0-.32-.06-.32L77.24,46l-.08-.31c0-.11,0-.21-.07-.32l-.17-.62c0-.05,0-.1,0-.16l-.05-.15-.1-.31-.1-.3-.12-.3c-.08-.2-.15-.41-.24-.6s-.17-.4-.26-.59a1,1,0,0,0-.07-.15l-.07-.14-.14-.29-.15-.29-.15-.28-.32-.55-.35-.54a17.84,17.84,0,0,0-7.51-6.48L67,33.51l-.28-.12-.56-.23c-.39-.13-.76-.28-1.15-.38a17.49,17.49,0,0,0-2.33-.55c-.39,0-.78-.12-1.17-.14L60.89,32l-.58,0H59.15l-.57,0-.57,0-.56.06-.14,0-.14,0-.27.05c-.19,0-.37,0-.55.09l-.54.12a2.61,2.61,0,0,0-.27.06l-.27.07-.52.14-.52.16-.51.17a17.87,17.87,0,0,0-6.64,4.25A17.41,17.41,0,0,0,44.91,40a16.86,16.86,0,0,0-1.47,2.65c-.1.21-.18.43-.26.64s-.17.41-.24.61-.14.41-.2.6-.11.39-.17.58A16.88,16.88,0,0,0,42,48.6c0,.11,0,.2,0,.3a2,2,0,0,1,0,.25c0,.16,0,.3,0,.4S41.9,49.88,41.9,49.88Zm0,0s0-.11,0-.33,0-.24,0-.4a2.18,2.18,0,0,1,0-.25,2.83,2.83,0,0,0,0-.3,18.33,18.33,0,0,1,.6-3.56c.06-.19.11-.38.17-.58s.13-.39.2-.59.15-.42.22-.63.17-.42.27-.63a17.23,17.23,0,0,1,1.43-2.69A19.14,19.14,0,0,1,47,37.2a18.38,18.38,0,0,1,2.92-2.49,18.57,18.57,0,0,1,3.7-2,5.44,5.44,0,0,1,.52-.19l.52-.19.53-.16.27-.08.28-.06.54-.14.56-.11.29-.06.13,0,.15,0,.57-.09c.19,0,.39,0,.58-.06l.59-.05.59,0,.29,0h.9l.6,0c.41,0,.81.08,1.22.12a18.87,18.87,0,0,1,2.42.49c.41.1.81.24,1.21.37l.59.22.3.11.29.13A18.55,18.55,0,0,1,72,35.65l.5.43c.17.14.33.3.49.45l.24.22.23.25.24.23c.07.08.15.16.22.25a17.14,17.14,0,0,1,1.66,2.11l.37.56.35.58c0,.1.11.2.17.3l.15.3.16.3.08.15a1,1,0,0,0,.07.15c.09.21.19.42.28.62s.17.42.26.64l.12.31.11.33.12.32,0,.16s0,.11,0,.16l.19.66c.06.22.11.45.16.67l.08.33.06.34.06.34c0,.11,0,.22,0,.34l.09.68a.88.88,0,0,1,0,.17v.17l0,.35,0,.34v.34l0,.67,0,.7c0,.11,0,.23,0,.34l0,.34,0,.34v.17a1.1,1.1,0,0,1,0,.18l-.09.68a18.74,18.74,0,0,1-.6,2.67c0,.05,0,.11,0,.16l-.06.16-.11.33-.11.32-.12.31c-.09.22-.17.43-.26.64s-.19.41-.28.62a1,1,0,0,0-.07.15l-.08.15-.16.3-.16.3c-.05.1-.11.2-.17.3s-.22.39-.34.58l-.37.56c-.06.1-.13.19-.19.28l-.2.27L75,61c-.06.09-.13.17-.2.26l-.21.26a2.75,2.75,0,0,1-.22.26c-.14.17-.29.34-.44.5a2.73,2.73,0,0,1-.23.25l-.23.24L73.2,63l-.24.23c-.16.15-.32.31-.49.45l-.5.43a18.75,18.75,0,0,1-4.43,2.69l-.29.12L67,67l-.59.22c-.4.13-.8.27-1.21.37a18.87,18.87,0,0,1-2.42.49c-.41,0-.81.1-1.22.11l-.6,0H59.72l-.59,0-.59,0a5.73,5.73,0,0,1-.58-.07L57.39,68l-.14,0-.14,0-.29-.06-.55-.11-.55-.14-.28-.06-.27-.08-.53-.17c-.18,0-.35-.12-.52-.18a4.45,4.45,0,0,1-.51-.19,18.66,18.66,0,0,1-3.71-2l-.4-.29-.4-.29-.38-.31c-.13-.1-.26-.2-.38-.31-.48-.42-.94-.85-1.36-1.29a19.14,19.14,0,0,1-2.14-2.72,17.16,17.16,0,0,1-1.43-2.68c-.1-.22-.18-.43-.27-.64s-.16-.42-.22-.62l-.2-.6c-.06-.2-.11-.39-.17-.58a18.22,18.22,0,0,1-.6-3.56,2.83,2.83,0,0,0,0-.3,2.18,2.18,0,0,1,0-.25c0-.16,0-.29,0-.4S41.9,49.88,41.9,49.88Z"/><path class="cls-3" d="M80.66,95.45s0-.29.09-.83c0-.13,0-.29,0-.45s0-.35,0-.55c0-.39,0-.84,0-1.35v-.38l0-.41c0-.14,0-.29,0-.43a3.4,3.4,0,0,0,0-.45c0-.3-.06-.62-.09-.94s-.09-.66-.14-1a23.6,23.6,0,0,0-1.22-4.52l-.24-.61-.13-.3c-.05-.1-.1-.21-.14-.31l-.14-.3a1.11,1.11,0,0,0-.07-.16l-.08-.15c-.1-.2-.2-.41-.31-.61a23.35,23.35,0,0,0-1.48-2.44c-.08-.1-.14-.2-.21-.3l-.23-.3c-.15-.2-.3-.4-.46-.59l-.48-.58-.13-.15-.13-.14-.26-.28-.26-.28c-.09-.1-.19-.18-.28-.27a3.7,3.7,0,0,0-.28-.28,3.57,3.57,0,0,0-.28-.27l-.58-.53-.08-.06L73,75.15,72.82,75l-.31-.26A22,22,0,0,0,69.84,73a22.26,22.26,0,0,0-3-1.39c-.26-.09-.52-.19-.79-.27l-.8-.24-.11,0L65,71l-.2,0-.41-.1c-.27-.07-.55-.12-.83-.17l-.41-.08-.42,0-.42-.06-.22,0h-.2l-.85-.07-.85,0H58.94l-.42,0c-.55,0-1.12.11-1.67.19a20.76,20.76,0,0,0-3.26.83,20.14,20.14,0,0,0-5.74,3.11,23.4,23.4,0,0,0-2.33,2.09A24.47,24.47,0,0,0,43.58,79a22.75,22.75,0,0,0-2.66,4.83c-.08.2-.16.4-.23.6s-.14.4-.21.59-.06.19-.1.29,0,.09,0,.14,0,.1-.05.15-.11.38-.17.57c-.21.75-.37,1.48-.5,2.17a27.21,27.21,0,0,0-.37,3.62c0,1,0,1.8,0,2.34s.07.84.07.84l0-.21c0-.14-.06-.35-.1-.62s0-.28-.05-.45l0-.26c0-.09,0-.19,0-.29s0-.41,0-.63,0-.47,0-.72a22.58,22.58,0,0,1,.2-3.67c.1-.71.23-1.46.41-2.24l.15-.59s0-.1,0-.15,0-.1,0-.15.06-.2.1-.3l.18-.61.22-.61c0-.1.07-.21.11-.32l.12-.31c.09-.2.18-.42.26-.63S41,82.12,41,82l.15-.32c.1-.21.19-.43.31-.64l.33-.63.18-.32.19-.31c.24-.43.53-.84.8-1.27a23.06,23.06,0,0,1,1.95-2.43,21.14,21.14,0,0,1,2.39-2.22A21.43,21.43,0,0,1,50.13,72l.37-.2c.13-.07.25-.15.38-.21l.78-.37c.53-.23,1.07-.46,1.62-.65l.41-.15.42-.13c.28-.08.56-.18.85-.24l.43-.11.21-.05.22,0,.87-.16.22,0,.22,0,.44-.06c.29,0,.59-.06.89-.09l.45,0,.43,0H60s0,0,0,0h.17l.89,0,.89.08h.22l.22,0,.44,0,.44.07.44.08a18.73,18.73,0,0,1,3.39,1,20.42,20.42,0,0,1,3.13,1.49,21.67,21.67,0,0,1,2.76,1.94,20.16,20.16,0,0,1,2.35,2.26l.26.29.13.15.13.16.49.61c.16.21.3.42.46.62s.15.21.22.31l.21.32a23,23,0,0,1,1.47,2.56l.3.64.07.16.07.16c0,.1.09.21.13.32s.08.21.13.31.09.21.12.32.15.42.22.63a11.31,11.31,0,0,1,.21.62l.18.61a1.67,1.67,0,0,1,.08.3c0,.1,0,.2.08.3l.15.59c0,.2.07.39.11.58l.06.29a2.74,2.74,0,0,0,0,.28c0,.37.11.74.15,1.09s.07.7.11,1,0,.65,0,1c0,.16,0,.31,0,.45v.84c0,.14,0,.27,0,.4s0,.49,0,.72,0,.44-.06.63,0,.38-.06.55,0,.32-.06.45Z"/><path class="cls-3" d="M62.11,47.12H79.39V41.18a2.89,2.89,0,0,0-1.86-.63c-.9-3.87-3.18-9.81-10-12.64V25h-5.4Z"/><path class="cls-3" d="M79.67,47.4H61.84V24.73h5.94v3a16.06,16.06,0,0,1,7.2,6,20.74,20.74,0,0,1,2.77,6.6,3.16,3.16,0,0,1,1.84.69l.08.08Zm-17.28-.56H79.12V41.31a3.1,3.1,0,0,0-1.61-.48H77.3l0-.2c-1.43-6.15-4.75-10.34-9.86-12.46l-.17-.07V25.28H62.39Z"/><polygon class="cls-3" points="58.58 47.12 58.58 16.61 28.1 28.33 41.91 35.07 41.91 47.12 58.58 47.12"/><path class="cls-3" d="M58.86,47.4H41.63V35.24L27.41,28.3,58.86,16.21Zm-16.68-.56H58.31V17L28.8,28.36l13.38,6.53Z"/><path class="cls-3" d="M28.16,28.79a.38.38,0,0,0-.11-.11.38.38,0,0,0-.48.05c-2.43,2.6-2,6.13-1.53,8a31.12,31.12,0,0,0,1.46,4.13,36.26,36.26,0,0,1,1.32,3.66c.6,2.15.92,5.23-1,7.6a.26.26,0,0,0,.1.4.38.38,0,0,0,.48-.08c2.06-2.54,1.73-5.78,1.09-8a35.54,35.54,0,0,0-1.34-3.71,33.23,33.23,0,0,1-1.44-4.06c-.44-1.77-.86-5.11,1.4-7.53A.23.23,0,0,0,28.16,28.79Z"/><path class="cls-3" d="M28.11,53h0a.83.83,0,0,1-.41-.1.72.72,0,0,1-.36-.49.67.67,0,0,1,.14-.56c1.81-2.23,1.5-5.16.92-7.22A34.69,34.69,0,0,0,27.09,41a32.28,32.28,0,0,1-1.47-4.18c-.5-1.95-.94-5.64,1.63-8.4a.82.82,0,0,1,1-.12.7.7,0,0,1,.26.28.67.67,0,0,1-.11.78c-2.12,2.28-1.72,5.44-1.29,7.13a31.32,31.32,0,0,0,1.41,4,35.51,35.51,0,0,1,1.36,3.75c.67,2.37,1,5.76-1.18,8.45A.82.82,0,0,1,28.11,53Z"/><path class="cls-3" d="M26.42,52.48A9.74,9.74,0,0,0,24.65,54c-.31.32-.67.61-1,.94a1.43,1.43,0,0,0-.35.55c-.1.44.28.34.61.18a.37.37,0,0,0,0,.52c.17.14.52,0,.72.21s.22.67.71.41a6.45,6.45,0,0,0,2.09-2.17c.4-.58,1.35-1.6.85-2.28a.91.91,0,0,0-.92-.34,1.8,1.8,0,0,0-.56.21Z"/><path class="cls-3" d="M25.08,57.34a.78.78,0,0,1-.67-.47.74.74,0,0,0-.08-.13l-.13,0a.93.93,0,0,1-.56-.17.55.55,0,0,1-.2-.3A.57.57,0,0,1,23,56a.69.69,0,0,1-.11-.62,1.68,1.68,0,0,1,.44-.74,5.92,5.92,0,0,1,.56-.56,5.22,5.22,0,0,0,.41-.4,10.66,10.66,0,0,1,1.85-1.6,3.77,3.77,0,0,1,.41-.25,2.57,2.57,0,0,1,.7-.26,1.34,1.34,0,0,1,1.33.51c.62.83-.12,1.83-.61,2.49l-.22.3a6.72,6.72,0,0,1-2.24,2.29A.93.93,0,0,1,25.08,57.34Zm-.95-1.49h.12a1,1,0,0,1,.69.26,1.38,1.38,0,0,1,.22.31,6,6,0,0,0,1.91-2l.24-.33c.32-.43.85-1.14.62-1.45a.49.49,0,0,0-.49-.18,1.75,1.75,0,0,0-.44.17l-.35.21A9.19,9.19,0,0,0,25,54.32c-.14.15-.3.3-.46.44s-.34.32-.49.49a1.73,1.73,0,0,0-.17.21l.29.62h0a.26.26,0,0,0,.12-.11.22.22,0,0,0-.07-.1Z"/></g></g></svg>