<svg xmlns="http://www.w3.org/2000/svg" xmlns:xlink="http://www.w3.org/1999/xlink" viewBox="0 0 112 112"><defs><style>.cls-1{fill:none;stroke-miterlimit:10;stroke:url(#linear-gradient);}.cls-2{fill:url(#linear-gradient-2);}.cls-3{fill:#fff;}</style><linearGradient id="linear-gradient" y1="56" x2="112" y2="56" gradientUnits="userSpaceOnUse"><stop offset="0" stop-color="#82468e"/><stop offset="0.1" stop-color="#447487"/><stop offset="0.28" stop-color="#589c4f"/><stop offset="0.41" stop-color="#5ba344"/><stop offset="0.47" stop-color="#7aa740"/><stop offset="0.65" stop-color="#e9be1b"/><stop offset="0.78" stop-color="#f8971d"/><stop offset="0.96" stop-color="#ef3a24"/></linearGradient><linearGradient id="linear-gradient-2" x1="56" y1="105.45" x2="56" y2="6.55" xlink:href="#linear-gradient"/></defs><title>Asset 1</title><g id="Layer_2" data-name="Layer 2"><g id="Camada_1" data-name="Camada 1"><rect class="cls-1" x="0.5" y="0.5" width="111" height="111" rx="24.73" ry="24.73"/><path class="cls-2" d="M105.45,56A49.46,49.46,0,1,1,56,6.55,49.45,49.45,0,0,1,105.45,56Z"/><path class="cls-3" d="M50,44.1s.24.17.67.53c.22.18.48.41.77.69a12,12,0,0,1,1,1,6.15,6.15,0,0,1,.5.67,4.85,4.85,0,0,1,.44.82c0,.07.06.15.08.23a.56.56,0,0,0,0,.12l0,.13a2,2,0,0,1,0,.26l0,.25a9.47,9.47,0,0,0,.15,1A10.1,10.1,0,0,0,54,50.9a6.78,6.78,0,0,0,.4,1.06,3.1,3.1,0,0,0,.65.9,1.65,1.65,0,0,0,.92.46,2.52,2.52,0,0,0,1.14-.1,3.89,3.89,0,0,0,.59-.22,5.48,5.48,0,0,0,.6-.29,15.62,15.62,0,0,0,2.35-1.64c.39-.31.77-.64,1.16-1s.77-.7,1.15-1.06L63,49l.05-.06.14-.15.29-.29a3.23,3.23,0,0,0,.25-.29l.25-.3a3.81,3.81,0,0,0,.24-.32l.23-.33a2.84,2.84,0,0,0,.22-.34l.22-.34a15,15,0,0,0,1.32-3.06,18.19,18.19,0,0,0,.65-3.38,15.58,15.58,0,0,0,0-3.48,11,11,0,0,0-.38-1.7,11.76,11.76,0,0,0-.67-1.6,10.71,10.71,0,0,0-2-2.76,9.54,9.54,0,0,0-1.29-1.09,8.69,8.69,0,0,0-1.45-.82,7.34,7.34,0,0,0-1.55-.49l-.2,0-.2,0-.4,0a7.13,7.13,0,0,0-.8,0c-1.15,0-2.26.05-3.34.16a15,15,0,0,0-3.08.62,8.08,8.08,0,0,0-1.39.56c-.22.1-.43.22-.64.34s-.4.26-.58.41a7.62,7.62,0,0,0-1.87,2c-.12.19-.22.39-.34.57s-.21.4-.3.6-.18.4-.26.6-.15.41-.22.61-.13.41-.19.61-.11.41-.16.61a1.63,1.63,0,0,0-.07.3c0,.1-.05.2-.07.3l-.06.3c0,.09,0,.19,0,.29s0,.1,0,.14v.27a.61.61,0,0,0,0,.14v.27a2.46,2.46,0,0,1,0,.28.53.53,0,0,1,0,.13.69.69,0,0,1,0,.13c0,.09,0,.18,0,.27s.08.34.13.51a6.43,6.43,0,0,0,.87,1.76,9.17,9.17,0,0,0,1.07,1.31,12.62,12.62,0,0,0,1.85,1.54l.53.34.18.11Zm-.06.09a.86.86,0,0,1-.19-.1l-.54-.34a14.6,14.6,0,0,1-1.92-1.49L47,42l-.3-.31c-.11-.1-.2-.21-.31-.33L46.1,41c-.1-.13-.2-.26-.29-.4l-.15-.21-.13-.21a5.91,5.91,0,0,1-.5-1,4.3,4.3,0,0,1-.2-.54,2.45,2.45,0,0,1-.08-.29.74.74,0,0,1,0-.14l0-.15a2.87,2.87,0,0,1,0-.31,2.91,2.91,0,0,1,0-.31.81.81,0,0,1,0-.16,1,1,0,0,0,0-.17V37a.81.81,0,0,1,0-.16.76.76,0,0,1,0-.15v-.12h0s0,0,0,0l0-.32c0-.1,0-.21,0-.32s0-.21,0-.32.07-.43.11-.66.1-.44.16-.66.13-.45.19-.68.08-.22.12-.34l.12-.34.3-.67c.06-.11.12-.23.17-.34s.12-.22.19-.33.27-.44.43-.65l.23-.31c.08-.1.17-.2.25-.31l.27-.29.29-.29.3-.27.08-.07.08-.06.16-.13a8.29,8.29,0,0,1,.68-.48c.23-.14.47-.29.72-.41a9.65,9.65,0,0,1,1.56-.64A15.13,15.13,0,0,1,54.48,27c1.14-.09,2.29-.1,3.44-.08a7.09,7.09,0,0,1,.92.05l.46.07.23,0,.22.05a8.09,8.09,0,0,1,1.75.62,9.43,9.43,0,0,1,1.58,1A9.58,9.58,0,0,1,64.44,30a11.58,11.58,0,0,1,2.88,6.6c0,.15,0,.3,0,.45s0,.16,0,.23v.67l0,.45c0,.59-.06,1.18-.13,1.77a24.92,24.92,0,0,1-.62,3.45,17,17,0,0,1-1.17,3.23c-.07.13-.13.26-.2.38a2.75,2.75,0,0,1-.2.38l-.22.36a2.74,2.74,0,0,1-.23.36l-.25.35a3,3,0,0,1-.26.34,3.88,3.88,0,0,1-.26.31l-.13.16,0,0v0l0,0-.07.07a28.14,28.14,0,0,1-2.28,2.23,13.17,13.17,0,0,1-2.52,1.77,6.27,6.27,0,0,1-1.42.56,3.28,3.28,0,0,1-1.56,0,2.65,2.65,0,0,1-.74-.29,2.85,2.85,0,0,1-.59-.49,4.08,4.08,0,0,1-.71-1.19,6.94,6.94,0,0,1-.33-1.2q-.11-.59-.15-1.14c0-.36-.05-.72-.05-1.06a2,2,0,0,0,0-.25.9.9,0,0,0,0-.23s0-.07,0-.11l0-.11a1.41,1.41,0,0,0-.06-.22,4.41,4.41,0,0,0-.35-.8c-.14-.24-.29-.46-.44-.67s-.32-.39-.47-.56-.3-.33-.44-.47-.54-.52-.75-.7l-.49-.4A1,1,0,0,1,50,44.19Z"/><path class="cls-3" d="M68.62,48.2s-.12.28-.37.78c-.13.24-.28.55-.49.9A10.55,10.55,0,0,1,67,51.05c-.16.21-.33.42-.53.64a4.71,4.71,0,0,1-.7.61l-.21.14-.11.06-.12.06a1.73,1.73,0,0,1-.24.1l-.24.08c-.32.12-.64.24-1,.38s-.65.3-1,.48a7.31,7.31,0,0,0-.93.64,3,3,0,0,0-.73.83,1.69,1.69,0,0,0-.24,1,2.54,2.54,0,0,0,.35,1.08,4.41,4.41,0,0,0,.35.53c.13.18.27.35.42.52a15.91,15.91,0,0,0,2.13,1.92l1.23.9c.42.3.86.59,1.3.88l.09.06.07,0,.17.1.35.21a2.91,2.91,0,0,0,.35.18l.34.18c.11.06.24.1.36.16l.38.15.38.14.38.13a14.17,14.17,0,0,0,3.28.58,18.92,18.92,0,0,0,3.44-.12,16.28,16.28,0,0,0,3.4-.77,11.24,11.24,0,0,0,1.56-.76,10.12,10.12,0,0,0,1.41-1A10.64,10.64,0,0,0,85,58.56a8.9,8.9,0,0,0,.76-1.51,9,9,0,0,0,.47-1.59,7.47,7.47,0,0,0,.13-1.63v-.4a2.57,2.57,0,0,0,0-.4,7.32,7.32,0,0,0-.15-.79c-.28-1.11-.57-2.19-.92-3.21a16,16,0,0,0-1.3-2.87A9.74,9.74,0,0,0,83,45a6.35,6.35,0,0,0-.48-.54c-.18-.17-.35-.34-.53-.49a7.9,7.9,0,0,0-2.39-1.35c-.22-.08-.43-.13-.64-.2s-.43-.12-.65-.16l-.65-.11L77,42,76.4,42l-.63,0c-.1,0-.2,0-.31,0h-.61l-.29,0-.14,0-.14,0-.13,0a.61.61,0,0,0-.13,0l-.27.06-.26.08-.13,0-.13.05-.24.1a4.23,4.23,0,0,0-.47.25A6.48,6.48,0,0,0,71,43.9a9.14,9.14,0,0,0-1,1.35,11.47,11.47,0,0,0-1.08,2.14c-.1.26-.16.46-.21.59l-.06.21h0Zm-.11,0a1.7,1.7,0,0,0,.06-.21c.05-.14.11-.34.21-.61a15.41,15.41,0,0,1,1-2.2c.06-.12.13-.23.2-.35s.15-.24.23-.36l.25-.37c.09-.12.18-.25.28-.37a3.79,3.79,0,0,1,.32-.38l.17-.19.18-.18a5.73,5.73,0,0,1,.82-.71l.48-.32.27-.14.13-.07.14-.06a2.36,2.36,0,0,1,.28-.12l.3-.11.15,0,.16,0,.16,0,.16,0,.15,0h.16l.32,0,.32,0,.32,0,.67,0h.69l.7,0,.35,0,.36,0,.73.14.36.09c.13,0,.25.06.37.11a7.09,7.09,0,0,1,.73.26l.36.16.35.18.35.2a4.05,4.05,0,0,1,.35.21l.33.23.08.06.09.06.16.13c.21.17.41.36.61.55a8.09,8.09,0,0,1,.57.61,11,11,0,0,1,1,1.37,15,15,0,0,1,1.37,3.12c.35,1.09.63,2.21.87,3.33.06.3.12.61.15.91a3.57,3.57,0,0,1,0,.46l0,.23v.24a8.11,8.11,0,0,1-.21,1.84,8.86,8.86,0,0,1-.58,1.76A9.55,9.55,0,0,1,85.67,59a11.72,11.72,0,0,1-5.77,4.31l-.43.13-.22.07-.22.05-.21,0-.23,0-.43.09c-.59.1-1.17.2-1.76.27a25.75,25.75,0,0,1-3.5.19,16.91,16.91,0,0,1-3.41-.41l-.42-.1c-.14,0-.28-.07-.41-.12l-.41-.13c-.13,0-.26-.08-.4-.14l-.4-.16a3.35,3.35,0,0,1-.38-.18l-.36-.18-.19-.09,0,0h0l0,0-.09,0a30.06,30.06,0,0,1-2.69-1.71,13.63,13.63,0,0,1-2.29-2.05,5.77,5.77,0,0,1-.87-1.26,3.36,3.36,0,0,1-.4-1.51,2.61,2.61,0,0,1,.12-.79,2.55,2.55,0,0,1,.34-.68,4.07,4.07,0,0,1,1-1,7.46,7.46,0,0,1,1.1-.6,10,10,0,0,1,1.07-.4c.35-.12.7-.21,1-.3l.24-.06.22-.07.1,0,.1-.05.2-.11a4.1,4.1,0,0,0,.7-.52,7.41,7.41,0,0,0,.55-.59,7,7,0,0,0,.45-.58c.13-.19.25-.37.35-.54a10,10,0,0,0,.5-.89c.13-.25.22-.44.28-.57S68.5,48.17,68.51,48.16Z"/><path class="cls-3" d="M70,67.65s-.3,0-.86-.07c-.27,0-.62-.08-1-.15a11.8,11.8,0,0,1-1.36-.32c-.25-.08-.51-.17-.78-.28a4.76,4.76,0,0,1-.82-.45l-.2-.15-.1-.08-.09-.09-.18-.19-.16-.2q-.32-.39-.69-.78a9.49,9.49,0,0,0-.79-.75,6,6,0,0,0-.91-.66,3.19,3.19,0,0,0-1-.4,1.72,1.72,0,0,0-1,.12,2.37,2.37,0,0,0-.89.71,2.82,2.82,0,0,0-.38.51,5.36,5.36,0,0,0-.34.57,15.54,15.54,0,0,0-1.07,2.66c-.15.47-.29,1-.42,1.46s-.27,1-.38,1.53l0,.1v.08l0,.2c0,.13,0,.26-.08.39s0,.26,0,.39,0,.26,0,.39,0,.26,0,.39,0,.27,0,.4,0,.27,0,.41,0,.27,0,.41a14.59,14.59,0,0,0,.58,3.28,18.48,18.48,0,0,0,1.3,3.18A16.11,16.11,0,0,0,60,83.19a10.13,10.13,0,0,0,1.25,1.2,10.81,10.81,0,0,0,4.65,2.18,9.61,9.61,0,0,0,1.68.19,9.2,9.2,0,0,0,1.66-.11,7.61,7.61,0,0,0,1.57-.44l.19-.07.18-.09a2.42,2.42,0,0,0,.36-.18,7,7,0,0,0,.69-.41c.94-.64,1.86-1.28,2.7-2a15.62,15.62,0,0,0,2.24-2.21A9.89,9.89,0,0,0,78,80.06c.13-.21.23-.43.34-.64s.2-.44.27-.66a7.79,7.79,0,0,0,.45-2.71c0-.23,0-.45,0-.68s0-.44-.08-.66-.07-.43-.11-.64l-.15-.64c-.06-.2-.12-.41-.17-.61s-.14-.4-.2-.6-.07-.19-.11-.29-.07-.19-.11-.28L78,71.36l-.12-.26a.4.4,0,0,0-.07-.13l-.06-.12-.07-.12a.75.75,0,0,0-.07-.12l-.15-.23-.17-.21-.08-.11-.09-.1L77,69.77a4.38,4.38,0,0,0-.39-.36,6.71,6.71,0,0,0-1.69-1,8.76,8.76,0,0,0-1.62-.5,12,12,0,0,0-2.38-.27c-.27,0-.49,0-.63,0Zm0-.11h.22l.63,0a15.68,15.68,0,0,1,2.42.19l.4.07.42.09.43.11a3.88,3.88,0,0,1,.45.14l.46.16.23.1.24.1a7.54,7.54,0,0,1,1,.53c.16.11.31.23.46.35l.23.19.11.1.1.11L78,70l.2.24.09.13.1.13.09.14.09.14.07.13,0,.07,0,0h0l0,0,.14.28c0,.1.09.19.14.29a2.59,2.59,0,0,1,.14.29c.09.2.18.41.26.62l.24.64c.08.22.14.44.21.67a2,2,0,0,1,.08.35l.09.35.12.73c0,.12,0,.25,0,.37s0,.25,0,.38a5.08,5.08,0,0,1,0,.78,2.55,2.55,0,0,1,0,.39c0,.13,0,.26,0,.39a2.57,2.57,0,0,1-.07.4,3.14,3.14,0,0,1-.08.4c0,.13-.06.26-.1.39l0,.1,0,.1-.06.19c-.09.26-.2.51-.3.77s-.24.5-.39.74a8.76,8.76,0,0,1-1,1.39,14.41,14.41,0,0,1-2.45,2.36c-.9.71-1.86,1.35-2.83,2-.26.15-.53.32-.8.45a4,4,0,0,1-.42.2l-.21.09-.22.08a7.48,7.48,0,0,1-1.81.44,8.17,8.17,0,0,1-1.85.06,10,10,0,0,1-1.82-.3,11.56,11.56,0,0,1-3.34-1.5,11.19,11.19,0,0,1-2.69-2.44l-.28-.36-.14-.19-.12-.18L59,82.55l-.12-.2L58.67,82c-.29-.51-.59-1-.86-1.55a26.66,26.66,0,0,1-1.38-3.22,17.16,17.16,0,0,1-.79-3.35c0-.14,0-.28,0-.43s0-.28,0-.42,0-.28,0-.43a3,3,0,0,1,0-.42c0-.15,0-.29,0-.43a3,3,0,0,1,0-.43c0-.13,0-.26.05-.4l0-.2v-.08s0,0,0,0l0-.1a26,26,0,0,1,.67-3.11A13.44,13.44,0,0,1,57.5,64.5a6.28,6.28,0,0,1,.88-1.25,3.46,3.46,0,0,1,1.28-.9,2.63,2.63,0,0,1,.78-.15,2.73,2.73,0,0,1,.76.08,3.88,3.88,0,0,1,1.24.61,6.28,6.28,0,0,1,.94.82,8.47,8.47,0,0,1,.75.87c.23.29.44.57.63.86l.14.21s.09.12.14.17l.08.09.08.08.17.15a4.11,4.11,0,0,0,.73.47c.25.12.5.23.74.32a5.47,5.47,0,0,0,.7.21,5.69,5.69,0,0,0,.63.15,8.49,8.49,0,0,0,1,.17c.27,0,.48.05.63.07Z"/><path class="cls-3" d="M52.28,74.34s-.1-.28-.26-.82c-.07-.27-.16-.6-.25-1a13.38,13.38,0,0,1-.22-1.38,7.33,7.33,0,0,1,0-.83,4.31,4.31,0,0,1,.1-.92,1.83,1.83,0,0,1,.06-.25s0-.08,0-.12a.61.61,0,0,1,0-.12,2.56,2.56,0,0,1,.11-.24l.12-.22c.15-.3.31-.61.45-.94a10.11,10.11,0,0,0,.4-1,8.37,8.37,0,0,0,.26-1.1,3.18,3.18,0,0,0,0-1.11,1.73,1.73,0,0,0-.51-.9,2.52,2.52,0,0,0-1-.56,5.62,5.62,0,0,0-.62-.15c-.21,0-.43-.08-.65-.1a16.26,16.26,0,0,0-2.87,0c-.5,0-1,.1-1.52.17s-1,.14-1.55.23l-.1,0h-.08l-.2,0-.4.09c-.14,0-.25.06-.38.09l-.37.11c-.12,0-.25.09-.37.13l-.38.14a2.43,2.43,0,0,0-.37.16l-.37.16a13.82,13.82,0,0,0-2.82,1.79,17.43,17.43,0,0,0-2.44,2.42,16.08,16.08,0,0,0-2,2.86,11.32,11.32,0,0,0-.63,1.62,9.68,9.68,0,0,0-.35,1.7,10.59,10.59,0,0,0,.11,3.42,9.83,9.83,0,0,0,.46,1.63,9,9,0,0,0,.74,1.49,7.93,7.93,0,0,0,1,1.29l.15.14.14.14a3.88,3.88,0,0,0,.31.26,6.42,6.42,0,0,0,.65.48c1,.63,1.89,1.23,2.84,1.74a15.1,15.1,0,0,0,2.9,1.23,9.29,9.29,0,0,0,1.46.32c.24,0,.48,0,.72.07s.48,0,.71,0A7.72,7.72,0,0,0,48,85.93l.61-.29.58-.32.55-.35.53-.38.5-.4.48-.41c.08-.06.15-.14.23-.21l.22-.21.22-.21.19-.21.1-.11.09-.11.08-.1a.76.76,0,0,0,.08-.11,1.88,1.88,0,0,1,.16-.23c0-.08.09-.16.13-.24l.07-.12.06-.12a2.56,2.56,0,0,1,.11-.24,4.91,4.91,0,0,0,.17-.5,6.41,6.41,0,0,0,.28-1.94,8.71,8.71,0,0,0-.15-1.69,11.36,11.36,0,0,0-.66-2.31c-.1-.26-.18-.45-.24-.58s-.1-.2-.1-.2Zm.11,0a1.89,1.89,0,0,1,.09.19c.07.13.15.33.26.59a14.73,14.73,0,0,1,.75,2.3c0,.13.06.26.08.4s.06.27.08.42,0,.29.07.44,0,.31,0,.47a3.93,3.93,0,0,1,0,.49c0,.08,0,.16,0,.25a2.17,2.17,0,0,0,0,.26,7.05,7.05,0,0,1-.13,1.08c0,.18-.09.37-.14.56s-.07.18-.1.28,0,.09,0,.14l-.06.14-.12.28-.15.28L53,83l-.09.14-.09.14-.1.12-.09.12,0,.07,0,0h0l0,0-.21.24-.21.24-.22.24-.47.48-.5.47c-.17.15-.36.29-.54.44s-.19.14-.29.22l-.3.21-.62.39-.33.18c-.12,0-.22.12-.34.17s-.47.21-.72.29l-.37.13-.38.11-.39.09-.4.08-.4.06h-.41c-.28,0-.55,0-.83,0a7.54,7.54,0,0,1-.83-.06,10.3,10.3,0,0,1-1.65-.35A14.94,14.94,0,0,1,39,86c-1-.57-2-1.21-2.89-1.87a7.85,7.85,0,0,1-.73-.56L35,83.23l-.17-.17-.16-.17a8,8,0,0,1-1.09-1.49,9.12,9.12,0,0,1-.76-1.69,10.33,10.33,0,0,1-.42-1.81,11.62,11.62,0,0,1,1.34-7.08c.07-.13.15-.26.23-.39l.11-.2.13-.18.12-.18.13-.19.27-.36c.35-.47.71-.94,1.1-1.39a26.31,26.31,0,0,1,2.45-2.5,17.31,17.31,0,0,1,2.8-2l.37-.2c.13-.06.25-.14.38-.19l.39-.18c.13-.06.25-.12.39-.17l.4-.15c.14,0,.28-.1.41-.13l.39-.11.19-.06h.11l.1,0a25.27,25.27,0,0,1,3.14-.56,13.17,13.17,0,0,1,3.07,0,6.52,6.52,0,0,1,1.5.34,3.5,3.5,0,0,1,1.32.84,2.68,2.68,0,0,1,.44.67,2.87,2.87,0,0,1,.21.73,4.18,4.18,0,0,1-.08,1.38,8.18,8.18,0,0,1-.41,1.18,9.7,9.7,0,0,1-.51,1c-.18.33-.37.63-.56.91a2.39,2.39,0,0,0-.13.21,2.12,2.12,0,0,0-.12.2.31.31,0,0,1,0,.1.49.49,0,0,1,0,.11,1.72,1.72,0,0,0-.07.21,3.82,3.82,0,0,0-.16.86,7.36,7.36,0,0,0,0,.81c0,.25,0,.5.07.72a5.39,5.39,0,0,0,.1.64,9,9,0,0,0,.23,1c.07.27.14.47.18.6A2.2,2.2,0,0,0,52.39,74.3Z"/><path class="cls-3" d="M40.71,59.72s.22-.21.66-.56c.22-.17.49-.38.82-.61s.73-.49,1.19-.74c.23-.12.49-.24.76-.35a4.42,4.42,0,0,1,.89-.27l.25,0h.25a1.22,1.22,0,0,1,.27,0l.25,0c.33,0,.68.06,1,.06a10.14,10.14,0,0,0,1.1,0A6.11,6.11,0,0,0,49.29,57a3.4,3.4,0,0,0,1-.44,1.75,1.75,0,0,0,.65-.82,2.75,2.75,0,0,0,.13-1.13c0-.2,0-.41-.09-.62s-.1-.43-.17-.65a15.22,15.22,0,0,0-1.13-2.63c-.23-.45-.47-.89-.73-1.34s-.53-.9-.81-1.35l0-.08-.05-.07-.11-.17-.23-.33c-.08-.12-.16-.21-.24-.32l-.24-.3a3.48,3.48,0,0,0-.26-.3l-.27-.29-.29-.29-.3-.28a14,14,0,0,0-2.72-1.91,18.23,18.23,0,0,0-3.18-1.33,15.28,15.28,0,0,0-3.4-.73,10.12,10.12,0,0,0-1.74,0,10.63,10.63,0,0,0-1.7.32,10.78,10.78,0,0,0-3.12,1.42,10.6,10.6,0,0,0-1.33,1,9.86,9.86,0,0,0-1.09,1.25A8.37,8.37,0,0,0,27,47.15l-.08.19-.07.19c0,.12-.09.25-.12.38a5.22,5.22,0,0,0-.19.78c-.22,1.12-.42,2.22-.53,3.3a15.82,15.82,0,0,0,0,3.15,8.75,8.75,0,0,0,.27,1.46,5.64,5.64,0,0,0,.21.7c.09.22.17.45.27.66a7.88,7.88,0,0,0,1.6,2.23c.16.16.33.3.5.46s.34.28.52.41.35.26.54.38l.55.34.56.31.56.28.28.13.28.13.28.12.27.1.14,0,.13,0,.13,0,.13,0,.27.06.27,0,.14,0h.4c.18,0,.35,0,.52,0a6.61,6.61,0,0,0,1.91-.49,8.75,8.75,0,0,0,1.5-.79,11.85,11.85,0,0,0,1.88-1.49c.2-.19.34-.34.44-.45a1.21,1.21,0,0,0,.14-.16Zm.08.08a1.76,1.76,0,0,0-.14.16c-.1.11-.25.27-.45.46A14.45,14.45,0,0,1,38.36,62l-.33.23-.36.23-.38.23-.41.22-.45.21-.23.1-.25.09a6.32,6.32,0,0,1-1,.29c-.18,0-.38.06-.57.09l-.3,0h-.61l-.31,0-.16,0-.17,0-.16,0-.15,0-.15,0-.07,0h-.09l-.3-.1-.31-.1-.31-.11-.62-.25L30,62.63l-.62-.33-.31-.19-.3-.19c-.21-.13-.41-.28-.61-.43l-.29-.24L27.59,61a6.88,6.88,0,0,1-.54-.54l-.27-.3-.24-.31a3.81,3.81,0,0,1-.24-.32c-.07-.11-.15-.22-.22-.34l-.21-.35-.05-.09,0-.09-.09-.19a7.11,7.11,0,0,1-.33-.75c-.09-.27-.19-.53-.26-.8a10.13,10.13,0,0,1-.31-1.66,14.9,14.9,0,0,1,.07-3.4c.14-1.13.36-2.27.61-3.39a7.4,7.4,0,0,1,.25-.89c0-.14.1-.29.15-.43l.09-.22.1-.21a8.62,8.62,0,0,1,1-1.59,9.54,9.54,0,0,1,1.27-1.35,10.49,10.49,0,0,1,1.5-1.07,11.51,11.51,0,0,1,3.43-1.3,11.36,11.36,0,0,1,3.63-.18l.45.06.22,0,.22,0,.22,0,.22.06.43.1c.58.15,1.15.3,1.71.49a24.2,24.2,0,0,1,3.25,1.3,17.48,17.48,0,0,1,2.93,1.81l.33.27.33.27.31.3a2.72,2.72,0,0,1,.3.29l.3.32c.09.1.2.21.28.32l.25.32.12.15,0,.05h0l0,0,.05.08a29,29,0,0,1,1.73,2.68,13.48,13.48,0,0,1,1.21,2.83,6.3,6.3,0,0,1,.27,1.5,3.45,3.45,0,0,1-.28,1.54,2.51,2.51,0,0,1-.44.67,2.64,2.64,0,0,1-.6.47,3.81,3.81,0,0,1-1.3.45,6.67,6.67,0,0,1-1.24.08,8.31,8.31,0,0,1-1.15-.08c-.37,0-.72-.1-1.06-.16l-.24,0-.23,0h-.45a3.9,3.9,0,0,0-.85.19,5.1,5.1,0,0,0-.75.3,5,5,0,0,0-.65.34c-.2.11-.38.22-.55.33-.33.22-.61.43-.83.6s-.38.3-.49.4Z"/><path class="cls-3" d="M81.37,88l.13.24.08.14.07.16a2.07,2.07,0,0,1,.08.2c0,.07,0,.14.07.22a4,4,0,0,1,.19,1.2,4.2,4.2,0,0,1-.29,1.57,3.78,3.78,0,0,1-.44.81l-.14.21-.16.19-.08.09-.09.09-.19.18-.2.17-.1.08-.06,0-.06.05c-.15.08-.28.18-.46.26a1.58,1.58,0,0,1-.26.13l-.27.1a1.38,1.38,0,0,1-.27.08l-.14,0-.07,0h-.08l-.29,0-.3,0h-.6l-.31,0a.4.4,0,0,1-.15,0l-.15,0-.15,0-.15,0L76.24,94a3.9,3.9,0,0,1-1.08-.67l-.24-.21-.06-.06,0-.06-.11-.12a5,5,0,0,1-.38-.52l0-.08,0-.07-.06-.12,0-.07,0-.07L74,91.81,74,91.65l0-.08,0-.07-.09-.31a4.56,4.56,0,0,1-.12-1.27c0-.1,0-.21,0-.31a.76.76,0,0,1,0-.15l0-.16,0-.15a.83.83,0,0,1,0-.15c0-.1.06-.19.1-.29a2.36,2.36,0,0,1,.12-.28l.06-.14.08-.13a1.35,1.35,0,0,1,.15-.26l.17-.24a3.83,3.83,0,0,1,.81-.8,2.8,2.8,0,0,1,.46-.3l0,0h0l0,0,0,0,.12-.06.23-.1.25-.09.12,0,.12,0L77,86.1l.24,0a3.59,3.59,0,0,1,.92,0,4.23,4.23,0,0,1,1.54.43,4.07,4.07,0,0,1,1,.7l.17.16.14.16.11.14a.74.74,0,0,1,.09.12Zm0,0-.16-.22a.94.94,0,0,0-.09-.12L81,87.5a1,1,0,0,0-.14-.16l-.17-.16a3.67,3.67,0,0,0-1-.65,3.77,3.77,0,0,0-1.51-.29,3.71,3.71,0,0,0-.86.12l-.22.06-.21.09-.11,0-.1,0-.21.1-.2.13-.11.07-.06,0h0l0,0a2.83,2.83,0,0,0-.37.32,3.2,3.2,0,0,0-.6.76l-.12.22c0,.07-.07.15-.11.22l0,.12,0,.12c0,.08,0,.15-.07.24a3.64,3.64,0,0,0-.13,1c0,.08,0,.17,0,.25a1.9,1.9,0,0,0,0,.25l0,.13a.5.5,0,0,0,0,.12l.06.25a2.25,2.25,0,0,1,.08.24l0,.06,0,0,0,.11.05.11a.39.39,0,0,0,0,.06l0,.06.07.13,0,.06,0,0v0h0s0,0,0,0a4,4,0,0,0,.65.78l.19.16.1.08.1.07.11.07a.39.39,0,0,0,.11.06l.22.13a4.43,4.43,0,0,0,1,.32l.25,0,.12,0h.62c.08,0,.16,0,.24,0a1.84,1.84,0,0,0,.25,0l.23,0,.23-.08A4.1,4.1,0,0,0,80,93.2l0,0h0s0,0,0,0l.05,0,.11-.06.2-.12.18-.14.09-.07.09-.08.17-.16.15-.17a4.09,4.09,0,0,0,.49-.71,3.62,3.62,0,0,0,.4-1.49A3.55,3.55,0,0,0,81.79,89c0-.08-.05-.16-.07-.23a1.67,1.67,0,0,0-.08-.2l-.07-.16s0-.09-.07-.14A2.49,2.49,0,0,1,81.37,88Z"/><path class="cls-3" d="M95.46,45.72l.14.24s.05.08.07.13,0,.11.07.17.06.12.08.19.05.15.08.23a4,4,0,0,1,.18,1.2,4.16,4.16,0,0,1-.28,1.56,4.07,4.07,0,0,1-.44.82c0,.07-.09.14-.14.2l-.17.19-.08.1-.09.09L94.7,51l-.21.17-.1.08-.06,0-.06,0a4,4,0,0,1-.46.27,2.06,2.06,0,0,1-.26.12l-.26.11-.28.08-.14,0H92.8l-.07,0-.3,0a1.42,1.42,0,0,1-.29,0h-.31l-.3,0-.3,0-.16,0-.15,0-.15,0-.15,0-.29-.1a4.64,4.64,0,0,1-1.08-.67L89,50.86l-.06,0,0-.07-.11-.12a2.43,2.43,0,0,1-.2-.25l-.09-.13,0-.07,0,0v0h0l0,0-.13-.26,0-.06,0-.07-.07-.16-.07-.15,0-.08,0-.08a2.81,2.81,0,0,1-.1-.31,4.46,4.46,0,0,1-.12-1.26l0-.31,0-.16,0-.15,0-.15s0-.1,0-.15.07-.2.1-.3.08-.18.12-.27l.06-.14.08-.13a2.2,2.2,0,0,1,.15-.26l.17-.24a4.14,4.14,0,0,1,.81-.81,4.53,4.53,0,0,1,.46-.3l0,0h0l.05,0,.12,0,.23-.11.25-.09.12,0,.12,0,.25-.06.24,0a4.18,4.18,0,0,1,.93,0,4.29,4.29,0,0,1,1.53.43,4.07,4.07,0,0,1,1,.7l.17.17a1,1,0,0,1,.14.16l.12.14a.83.83,0,0,1,.08.12Zm0,0-.16-.23s0-.08-.09-.12l-.12-.14a1,1,0,0,0-.14-.15l-.17-.17a3.44,3.44,0,0,0-1-.64A3.6,3.6,0,0,0,92.26,44a3.71,3.71,0,0,0-.86.12l-.22.06-.21.08-.11,0-.1,0-.2.11a2.25,2.25,0,0,0-.21.12l-.11.07,0,0s0,0,0,0h0l0,0a3.57,3.57,0,0,0-.37.31,3.79,3.79,0,0,0-.6.77l-.12.21a1.6,1.6,0,0,0-.1.23l-.06.11,0,.12a2.25,2.25,0,0,0-.08.24,4.15,4.15,0,0,0-.13,1c0,.08,0,.16,0,.25a2.42,2.42,0,0,0,0,.25v.12l0,.13.06.24a2.25,2.25,0,0,1,.08.24l0,.06,0,.06,0,.1,0,.11s0,0,0,.06l0,.06.14.26s0,0,0,0h0l0,0,0,.05.07.1a1,1,0,0,0,.15.2,4.12,4.12,0,0,0,.35.37l.19.16.1.08.11.07.1.07a.41.41,0,0,0,.11.07l.22.12a3.94,3.94,0,0,0,1,.32l.25,0,.12,0h.62a2.13,2.13,0,0,0,.25,0l.24,0,.24-.06.22-.07a3.05,3.05,0,0,0,.46-.2h0s0,0,0,0l0,0,.11-.06.2-.13.19-.14.09-.07.08-.08.17-.15.15-.17a3.82,3.82,0,0,0,.49-.72,3.57,3.57,0,0,0,.4-1.48,3.37,3.37,0,0,0-.13-1.2c0-.08,0-.15-.07-.22s0-.14-.07-.2a1.3,1.3,0,0,1-.08-.17c0-.05,0-.09-.07-.13S95.46,45.72,95.46,45.72Z"/><path class="cls-3" d="M59.42,19.06l.13.24s.05.08.07.13l.08.17c0,.06,0,.12.08.19s0,.15.07.23a4,4,0,0,1,.19,1.2,4.19,4.19,0,0,1-.29,1.56,3.62,3.62,0,0,1-.44.82,1.43,1.43,0,0,1-.14.2A1.46,1.46,0,0,1,59,24l-.08.1-.09.09-.19.18-.2.17-.11.08-.05,0-.06,0a4,4,0,0,1-.46.27l-.26.12-.27.11-.27.08-.15,0-.07,0h-.07l-.29,0a1.51,1.51,0,0,1-.3,0h-.3l-.3,0-.31,0-.15,0-.15,0-.15,0-.15-.05-.29-.11a4.38,4.38,0,0,1-1.09-.67L53,24.2l-.06-.05-.06-.06-.1-.13a4.91,4.91,0,0,1-.39-.51l0-.09,0-.06-.07-.13,0-.06a.43.43,0,0,1,0-.07l-.06-.16L52,22.73l0-.08,0-.08-.09-.31A4.12,4.12,0,0,1,51.74,21l0-.31c0-.06,0-.11,0-.16l0-.15,0-.15a.83.83,0,0,1,0-.15l.09-.29a2.39,2.39,0,0,1,.13-.28l.06-.14.07-.13L52.4,19l.18-.24a3.66,3.66,0,0,1,.81-.81,4.4,4.4,0,0,1,.45-.3l0,0h0s0,0,0,0l.06,0,.11,0,.23-.11.25-.09.13,0,.12,0,.24-.06.24,0a4.21,4.21,0,0,1,.93,0,4.35,4.35,0,0,1,1.54.43,4.28,4.28,0,0,1,1,.7l.17.17a1.83,1.83,0,0,1,.13.16l.12.14a.47.47,0,0,1,.09.12Zm0,0-.16-.23s0-.08-.09-.12l-.12-.14-.14-.15-.17-.17a3.82,3.82,0,0,0-1-.64,3.6,3.6,0,0,0-1.51-.29,3.72,3.72,0,0,0-.87.12l-.21.06-.22.08-.1,0-.11.05-.2.11a1.2,1.2,0,0,0-.21.13l-.1.06-.06,0s0,0,0,0h0l0,0a2.76,2.76,0,0,0-.37.31,3.83,3.83,0,0,0-.61.77l-.12.21a2.29,2.29,0,0,0-.1.23l0,.11,0,.12c0,.08,0,.16-.07.24a3.71,3.71,0,0,0-.13,1,2.18,2.18,0,0,0,0,.25,2.42,2.42,0,0,0,0,.25v.12l0,.13a2.1,2.1,0,0,0,.06.24l.08.24,0,.06,0,.06,0,.1,0,.11,0,.06,0,.06.07.13,0,.06,0,0v0h0s0,0,0,0a4,4,0,0,0,.65.77,1,1,0,0,0,.19.16.39.39,0,0,0,.1.08l.1.07.11.07a.41.41,0,0,0,.11.07l.22.12a4,4,0,0,0,1,.33l.24,0,.13,0h.12a2.09,2.09,0,0,0,.25,0h.25a2,2,0,0,0,.24,0l.25,0,.23-.06.23-.07a4.29,4.29,0,0,0,.46-.2h0l.05,0,.1-.06a1.37,1.37,0,0,0,.2-.13,1.33,1.33,0,0,0,.19-.14l.09-.07.09-.08.17-.15.15-.17a3.82,3.82,0,0,0,.49-.72,3.73,3.73,0,0,0,.4-1.48,3.9,3.9,0,0,0-.13-1.2l-.07-.22-.08-.2a1.22,1.22,0,0,1-.07-.17c0-.05,0-.09-.07-.13Z"/><path class="cls-3" d="M23.6,45.86l.13.24s.05.09.07.14a.77.77,0,0,1,.07.16l.09.2c0,.07.05.14.07.22a4,4,0,0,1,.19,1.2,4.41,4.41,0,0,1-.29,1.57,3.78,3.78,0,0,1-.44.81l-.14.21c-.05.06-.11.12-.16.19l-.08.09L23,51l-.19.18-.2.17-.11.08-.05,0-.07,0a3.15,3.15,0,0,1-.45.27l-.26.13-.27.1a1.29,1.29,0,0,1-.28.08l-.14,0-.07,0h-.07l-.29,0-.3,0h-.61l-.3-.05a.4.4,0,0,1-.15,0l-.15,0-.15,0-.15,0-.3-.11a4.22,4.22,0,0,1-1.08-.67L17.15,51l-.06,0L17,50.89l-.1-.12a6.41,6.41,0,0,1-.39-.52l0-.08,0-.07L16.39,50l0-.07a.16.16,0,0,1,0-.07l-.06-.15-.07-.16,0-.08,0-.07L16,49.07a4.22,4.22,0,0,1-.12-1.27c0-.1,0-.21,0-.31s0-.1,0-.15l0-.16L16,47a.83.83,0,0,1,0-.15l.09-.29c0-.1.09-.19.13-.28l.06-.14.07-.13.15-.26.17-.24a3.65,3.65,0,0,1,.82-.8,3.2,3.2,0,0,1,.45-.3l0,0h0l.06,0,.11-.06.24-.1.24-.09.13,0L19,44l.24-.06.24,0a4.13,4.13,0,0,1,2.46.4,4.15,4.15,0,0,1,1,.7l.17.16.14.16.11.14.09.13Zm0,0-.16-.22-.09-.13-.12-.13-.14-.16-.17-.16a3.74,3.74,0,0,0-1-.65,3.68,3.68,0,0,0-2.37-.17l-.21.06-.22.09-.11,0-.1,0-.2.1a2.39,2.39,0,0,0-.21.13l-.1.07-.06,0h0l0,0a2.83,2.83,0,0,0-.37.32,3.51,3.51,0,0,0-.61.76l-.12.22-.1.22-.05.12,0,.12c0,.08-.05.15-.07.24a4.08,4.08,0,0,0-.14,1c0,.08,0,.17,0,.25a1.9,1.9,0,0,0,0,.25v.13l0,.12a2.27,2.27,0,0,0,.06.25c0,.08,0,.16.08.24l0,.06,0,0,.05.11.05.11,0,.06,0,.06.07.13,0,.06,0,0h0s0,0,0,0a4.36,4.36,0,0,0,.64.78l.2.16.1.08.1.07.11.07.1.06.23.13a4.43,4.43,0,0,0,1,.32l.24,0h.75l.24,0,.25,0,.23-.06.23-.08a3.35,3.35,0,0,0,.45-.19l0,0h0s0,0,0,0l.05,0,.1-.06.2-.12.19-.14.09-.08.09-.07.17-.16.15-.17a3.82,3.82,0,0,0,.49-.72,3.73,3.73,0,0,0,.4-1.48A3.83,3.83,0,0,0,24,46.83c0-.08-.05-.16-.07-.23s-.06-.13-.08-.19-.05-.12-.07-.17-.05-.09-.07-.14A2.49,2.49,0,0,1,23.6,45.86Z"/><path class="cls-3" d="M37.25,87.52l.14.24s0,.09.07.14,0,.1.07.16a1.19,1.19,0,0,1,.08.2c0,.07,0,.14.08.22a4,4,0,0,1,.19,1.2,4.41,4.41,0,0,1-.29,1.57,4.28,4.28,0,0,1-.44.81l-.14.21a1.46,1.46,0,0,0-.16.19l-.09.09a.76.76,0,0,1-.09.09l-.18.18-.21.17-.1.08-.06,0-.06,0a2.93,2.93,0,0,1-.46.27,1.26,1.26,0,0,1-.26.13l-.26.1a1.47,1.47,0,0,1-.28.08l-.14,0-.07,0h-.07l-.3,0-.29,0h-.61l-.3,0a.33.33,0,0,1-.15,0l-.16,0-.15,0-.15,0-.29-.11A4.05,4.05,0,0,1,31,92.88l-.24-.21-.06-.06,0-.06-.11-.12a5,5,0,0,1-.38-.52l-.05-.08,0-.07-.07-.12,0-.06,0-.07-.07-.16-.06-.16,0-.08,0-.07c0-.11-.06-.21-.09-.31a4.57,4.57,0,0,1-.13-1.27l0-.31,0-.15,0-.16,0-.15s0-.1,0-.15.07-.19.1-.29L30,88l.06-.14.08-.13a2.2,2.2,0,0,1,.15-.26l.17-.24a3.83,3.83,0,0,1,.81-.8,3.29,3.29,0,0,1,.46-.3l0,0h0l.06,0,.11-.06.23-.1.25-.09.12,0,.12,0,.25-.06.24,0a3.65,3.65,0,0,1,.93,0,4.29,4.29,0,0,1,1.53.43,3.88,3.88,0,0,1,1,.7l.17.16.14.16.12.14a1.25,1.25,0,0,0,.09.12Zm0,0s0-.08-.16-.22a.47.47,0,0,0-.09-.12,1.34,1.34,0,0,0-.11-.14l-.14-.16-.18-.16a3.67,3.67,0,0,0-1-.65,3.77,3.77,0,0,0-1.51-.29,3.71,3.71,0,0,0-.86.12L33,86l-.21.09-.11,0-.1,0-.2.1a2.39,2.39,0,0,0-.21.13l-.11.07-.05,0s0,0,0,0h0l0,0a3.68,3.68,0,0,0-.37.32,3.2,3.2,0,0,0-.6.76l-.12.22c0,.07-.07.15-.11.22l0,.12,0,.12a1.69,1.69,0,0,0-.08.24,4.07,4.07,0,0,0-.13,1c0,.08,0,.17,0,.25a1.9,1.9,0,0,0,0,.25l0,.13s0,.08,0,.12l.06.25a2.25,2.25,0,0,1,.08.24l0,.06,0,0,0,.11,0,.11,0,.06,0,.06.07.12,0,.07,0,0v0h0a4.41,4.41,0,0,0,.65.78l.2.16.09.08.11.07.1.07a.6.6,0,0,0,.11.06l.22.13a4.43,4.43,0,0,0,1,.32l.25,0h.74a1.87,1.87,0,0,0,.25,0,1,1,0,0,0,.24,0l.24,0,.22-.08a3.05,3.05,0,0,0,.46-.2h.05l0,0,.1-.06a1.32,1.32,0,0,0,.2-.12l.18-.14.1-.07.08-.08.17-.16.15-.17a4.09,4.09,0,0,0,.49-.71,3.66,3.66,0,0,0,.4-1.49,3.31,3.31,0,0,0-.13-1.19l-.06-.23-.09-.2a.77.77,0,0,0-.07-.16.54.54,0,0,0-.07-.13Z"/></g></g></svg>