<svg xmlns="http://www.w3.org/2000/svg" xmlns:xlink="http://www.w3.org/1999/xlink" viewBox="0 0 111.9 111.9"><defs><style>.cls-1{fill:none;stroke-miterlimit:10;stroke:url(#linear-gradient);}.cls-2{fill:url(#linear-gradient-2);}.cls-3{fill:#fff;}</style><linearGradient id="linear-gradient" y1="55.95" x2="111.9" y2="55.95" gradientUnits="userSpaceOnUse"><stop offset="0.11" stop-color="#64c4a9"/><stop offset="0.92" stop-color="#1b468e"/></linearGradient><linearGradient id="linear-gradient-2" x1="55.95" y1="7.68" x2="55.95" y2="106.5" xlink:href="#linear-gradient"/></defs><title>Asset 1</title><g id="Layer_2" data-name="Layer 2"><g id="Camada_1" data-name="Camada 1"><rect class="cls-1" x="0.5" y="0.5" width="110.9" height="110.9" rx="24.71" ry="24.71"/><path class="cls-2" d="M105.36,57.09A49.41,49.41,0,1,1,56,7.68,49.41,49.41,0,0,1,105.36,57.09Z"/><path class="cls-3" d="M86.86,53.09l-6.29,5-1.73-3.72-33.69,15,2-7.25L27.83,71.21l1.24,1.68-7.68,8.22A30,30,0,0,0,25,85.58,40.13,40.13,0,0,0,30.24,90l9.05-9a26.23,26.23,0,0,0,5.58,2.27V95.93a50.43,50.43,0,0,0,5.75.56,37.12,37.12,0,0,0,6.77-.55V83.6a26.38,26.38,0,0,0,6.21-2.15L72,89.85a35.29,35.29,0,0,0,4.57-3.69A42.37,42.37,0,0,0,80.84,81l-7.63-7.64a26.67,26.67,0,0,0,3.7-7.15H87.12a46.79,46.79,0,0,0,.6-5.7,37.63,37.63,0,0,0-.81-7.22Z"/><path class="cls-3" d="M51.33,96.56h-.74A50.18,50.18,0,0,1,44.86,96h0V83.24A26.31,26.31,0,0,1,39.29,81l-9,9,0,0A39.67,39.67,0,0,1,25,85.61a29.94,29.94,0,0,1-3.65-4.48l0,0L29,72.89l-1.25-1.7.06,0L47.24,62l-2,7.25L78.86,54.36l1.73,3.7L86.89,53l.08.28a38.29,38.29,0,0,1,.8,7.24,46,46,0,0,1-.6,5.7v0H76.94a26.11,26.11,0,0,1-3.67,7.09L80.91,81l0,0a43.73,43.73,0,0,1-4.3,5.17A36.09,36.09,0,0,1,72,89.89l0,0,0,0-8.37-8.38a26.29,26.29,0,0,1-6.14,2.13V96h0A39.4,39.4,0,0,1,51.33,96.56Zm-.72-.12.72,0a40.58,40.58,0,0,0,6-.56V83.56h0a26.11,26.11,0,0,0,6.19-2.15h0l0,0L72,89.79a36.84,36.84,0,0,0,4.53-3.66A43.63,43.63,0,0,0,80.78,81l-7.64-7.65,0,0a26.32,26.32,0,0,0,3.69-7.14v0H87.08a45.42,45.42,0,0,0,.59-5.65,38,38,0,0,0-.8-7.22l0-.12-6.27,5-1.75-3.73-33.74,15,2-7.25-19.18,9,1.22,1.66-7.68,8.22a29.64,29.64,0,0,0,3.62,4.43,40.41,40.41,0,0,0,5.16,4.36l9.05-9,0,0a26.17,26.17,0,0,0,5.57,2.27h0V95.89a52.24,52.24,0,0,0,5.68.55Z"/><path class="cls-3" d="M84.33,44.38a35.77,35.77,0,0,0-32.62-20.1A36.56,36.56,0,0,0,17.78,74.4L54.47,57,21.68,72.2c-.51-.77-5.15-10,1.82-14.92,6.1-4.33,11.06,1.24,12,2.32,1.23-5,4.66-9.58,10.8-9.67a10.52,10.52,0,0,1,7.09,2.84s2.48-9,10.84-9.12c4.74-.06,9,3.27,10.57,7.91l2.33-1.19L75,45.83ZM26.55,54.54a6.27,6.27,0,1,1,6.26-6.26A6.26,6.26,0,0,1,26.55,54.54Zm17.72-5.93A6.57,6.57,0,1,1,50.84,42,6.57,6.57,0,0,1,44.27,48.61Zm19-5.91a7.23,7.23,0,1,1,7.23-7.23A7.23,7.23,0,0,1,63.26,42.7Z"/><path class="cls-3" d="M17.65,74.75l-.1-.25a36.94,36.94,0,0,1,53.8-44.95,35.85,35.85,0,0,1,13.2,14.72l.15.31L75.4,46l2,4.46-2.8,1.44-.09-.27a11.09,11.09,0,0,0-10.34-7.74,10.18,10.18,0,0,0-8.35,4.5,14.87,14.87,0,0,0-2.24,4.43l-.11.39L53.21,53a10.23,10.23,0,0,0-6.92-2.78c-5.17.08-9.11,3.62-10.55,9.48l-.12.48-.32-.37c-1.24-1.45-3.82-3.87-7.12-3.87a7.78,7.78,0,0,0-4.53,1.59c-2.84,2-4.06,5-3.61,8.78a16.37,16.37,0,0,0,1.75,5.6L54.36,56.8l.22.46ZM51.71,24.53A36.31,36.31,0,0,0,17.92,74.06l3.57-1.69,0,0a16.87,16.87,0,0,1-1.93-6c-.46-3.95.85-7.15,3.82-9.26a8.26,8.26,0,0,1,4.82-1.67c3.24,0,5.79,2.16,7.18,3.68a14.3,14.3,0,0,1,3.51-6.34,10.32,10.32,0,0,1,7.41-3.06h.14a10.7,10.7,0,0,1,6.84,2.64,16.2,16.2,0,0,1,2.2-4.21,10.91,10.91,0,0,1,8.76-4.71h.14a11.55,11.55,0,0,1,10.57,7.81l1.86-1-2.13-4.63L84,44.18A35.66,35.66,0,0,0,51.71,24.53ZM26.55,54.79a6.52,6.52,0,1,1,6.52-6.51A6.53,6.53,0,0,1,26.55,54.79Zm0-12.53a6,6,0,1,0,6,6A6,6,0,0,0,26.55,42.26Zm17.72,6.6A6.82,6.82,0,1,1,51.09,42,6.83,6.83,0,0,1,44.27,48.86Zm0-13.13A6.32,6.32,0,1,0,50.59,42,6.32,6.32,0,0,0,44.27,35.73Zm19,7.23a7.49,7.49,0,1,1,7.49-7.49A7.5,7.5,0,0,1,63.26,43Zm0-14.47a7,7,0,1,0,7,7A7,7,0,0,0,63.26,28.49Z"/><polygon class="cls-3" points="74.79 51.56 74.79 51.56 52.33 63.08 74.79 51.56"/><rect class="cls-3" x="50.94" y="57.07" width="25.25" height="0.5" transform="translate(-19.08 35.05) rotate(-26.96)"/><polygon class="cls-3" points="17.89 74.63 17.67 74.17 54.92 56.33 52.79 62.36 76.74 50.08 74.63 45.5 100.61 41.82 80.27 58.59 78.45 54.99 44.72 69.84 46.68 62.6 27.94 71.44 27.73 70.99 47.45 61.67 45.48 68.95 78.68 54.33 80.44 57.8 98.9 42.57 75.37 45.9 77.4 50.31 51.89 63.39 54.04 57.32 17.89 74.63"/></g></g></svg>