<svg xmlns="http://www.w3.org/2000/svg" xmlns:xlink="http://www.w3.org/1999/xlink" viewBox="0 0 112.7 112.7"><defs><style>.cls-1{fill:none;stroke-miterlimit:10;stroke:url(#linear-gradient);}.cls-2{fill:url(#linear-gradient-2);}.cls-3{fill:#fff;}</style><linearGradient id="linear-gradient" y1="56.35" x2="112.7" y2="56.35" gradientUnits="userSpaceOnUse"><stop offset="0.15" stop-color="#fdb84b"/><stop offset="0.77" stop-color="#f36f21"/></linearGradient><linearGradient id="linear-gradient-2" x1="56.35" y1="6.58" x2="56.35" y2="106.12" xlink:href="#linear-gradient"/></defs><title>Asset 1</title><g id="Layer_2" data-name="Layer 2"><g id="Camada_1" data-name="Camada 1"><path class="cls-1" d="M25.38.5H87.32A24.88,24.88,0,0,1,112.2,25.38V87.32A24.88,24.88,0,0,1,87.31,112.2H25.39A24.89,24.89,0,0,1,.5,87.31V25.38A24.88,24.88,0,0,1,25.38.5Z"/><path class="cls-2" d="M106.12,56.35A49.77,49.77,0,1,1,56.35,6.58,49.78,49.78,0,0,1,106.12,56.35Z"/><path class="cls-3" d="M55.39,94.13a38.15,38.15,0,1,1,14.91-3A38.19,38.19,0,0,1,55.39,94.13Zm0-76.52A38.22,38.22,0,1,0,93.6,55.82,38.26,38.26,0,0,0,55.39,17.61Z"/><path class="cls-3" d="M80.39,32.77v.15a3.82,3.82,0,0,1,0,.43,8.39,8.39,0,0,1-.65,2.72,8,8,0,0,1-.64,1.22,8.4,8.4,0,0,1-6,3.83l-.26,0-.27,0-.27,0h-.54l-.28,0c-.19,0-.37,0-.56,0a8.82,8.82,0,0,1-1.12-.21l-.56-.17-.27-.1-.14-.05-.13-.06a8.48,8.48,0,0,1-2.06-1.22A8.67,8.67,0,0,1,65,37.54a9.68,9.68,0,0,1-.63-1.09,9.17,9.17,0,0,1-.46-1.17A7.42,7.42,0,0,1,63.63,34c0-.21-.06-.42-.07-.63s0-.21,0-.32v-.78l0-.17c0-.1,0-.21,0-.32l0-.32a7.54,7.54,0,0,1,.28-1.23,9.31,9.31,0,0,1,.46-1.18A10.5,10.5,0,0,1,65,28a8.48,8.48,0,0,1,1.67-1.81,8.61,8.61,0,0,1,2-1.22l.14-.06.14-.05.27-.1c.19-.06.37-.12.56-.16A7.35,7.35,0,0,1,71,24.4l.55,0h1.09c.19,0,.37,0,.54.06a8.4,8.4,0,0,1,6,3.83,8.07,8.07,0,0,1,.64,1.23,7.61,7.61,0,0,1,.38,1.1,7.48,7.48,0,0,1,.27,1.61,3.91,3.91,0,0,1,0,.43Zm0,0v-.15a3.91,3.91,0,0,0,0-.43,7.62,7.62,0,0,0-.28-1.61A7.72,7.72,0,0,0,79,28.29a8,8,0,0,0-4-3.08,8.18,8.18,0,0,0-1.93-.41h-1l-.26,0-.26,0-.52.07a10.53,10.53,0,0,0-1,.26l-.51.18-.24.11-.13,0-.12.06a8,8,0,0,0-3.31,2.9,7.83,7.83,0,0,0-.94,2.06,8.62,8.62,0,0,0-.25,1.12l0,.28c0,.1,0,.19,0,.28s0,.39,0,.59v.28a2.81,2.81,0,0,0,0,.29c0,.19,0,.38.06.57s0,.18,0,.28l0,.14,0,.14c0,.09,0,.18.06.28l.07.27A8.07,8.07,0,0,0,69,40l.12.06.12,0,.25.11c.17.06.34.13.51.18a7.85,7.85,0,0,0,1,.25l.52.08.26,0,.26,0h.78l.25,0a8.17,8.17,0,0,0,1.93-.4,8.34,8.34,0,0,0,1.67-.81A8.16,8.16,0,0,0,79,37.26,7.65,7.65,0,0,0,80.09,35a7.52,7.52,0,0,0,.28-1.61,3.82,3.82,0,0,0,0-.43Z"/><path class="cls-3" d="M36.6,40.45v.13c0,.08,0,.2,0,.36a7,7,0,0,1-.22,1.34,6,6,0,0,1-.32.92,7.13,7.13,0,0,1-.53,1,7.29,7.29,0,0,1-1.9,2,7.17,7.17,0,0,1-3.06,1.22l-.45,0h-.91c-.16,0-.32,0-.47,0a6.23,6.23,0,0,1-.94-.18,4.12,4.12,0,0,1-.47-.13l-.23-.08L27,47l-.11,0a7.42,7.42,0,0,1-1.73-1,7.3,7.3,0,0,1-1.41-1.52,7,7,0,0,1-1.24-4v-.26c0-.08,0-.17,0-.27a5,5,0,0,1,.06-.54,7.43,7.43,0,0,1,.23-1,7.07,7.07,0,0,1,.4-1,7,7,0,0,1,.53-.91,7.3,7.3,0,0,1,1.41-1.52,7.79,7.79,0,0,1,1.73-1l.11,0,.12,0,.23-.09c.16,0,.31-.1.47-.13a6.19,6.19,0,0,1,.94-.17,3.57,3.57,0,0,1,.46,0h.92l.45.05a7.18,7.18,0,0,1,3.06,1.23,7.26,7.26,0,0,1,1.9,2,6.24,6.24,0,0,1,.53,1,6.36,6.36,0,0,1,.32.92A7.06,7.06,0,0,1,36.58,40c0,.16,0,.28,0,.36Zm0,0v-.12c0-.08,0-.2,0-.36a5.85,5.85,0,0,0-.24-1.34,6.21,6.21,0,0,0-.89-1.91,6.42,6.42,0,0,0-2-1.89,6.6,6.6,0,0,0-1.39-.66,6.4,6.4,0,0,0-1.6-.33,3,3,0,0,0-.42,0h-.65l-.22,0-.43.06a6.38,6.38,0,0,0-.86.22,6.52,6.52,0,0,0-.83.33,6.67,6.67,0,0,0-2.72,2.42,6.56,6.56,0,0,0-.78,1.7,9.4,9.4,0,0,0-.2.92c0,.16,0,.31,0,.46s0,.15,0,.24v.24c0,.32,0,.63.07.95,0,.07,0,.15,0,.23l0,.11,0,.12c0,.07,0,.15.05.23l.06.22a6.66,6.66,0,0,0,3.5,4.12l.1,0,.1.05.21.09.42.15a6.34,6.34,0,0,0,.86.21,3.18,3.18,0,0,0,.43.06l.21,0h.65l.43,0a6.88,6.88,0,0,0,1.6-.33,7,7,0,0,0,1.4-.67,6.59,6.59,0,0,0,1.94-1.88,6.42,6.42,0,0,0,.89-1.91,5.94,5.94,0,0,0,.24-1.34c0-.16,0-.28,0-.36Z"/><path class="cls-3" d="M19.5,42.55s-7.81,31.87,15.72,33.2c4.71-.37,15.66-8.85,15.66-8.76s7.91-6.72,13.87-5.48a4.11,4.11,0,0,1,2.94,2.05c1,2.47-4.42,4-6.92,6.51-1.77,1.75-4.93,5.1-2.67,8.85,4.3,4.44,20.78-4.85,24.09-11.17,1.9-3.37,4.4-8.41,5.61-10.54,3-5.27,5.81-3.92,5.84-3.13a35.76,35.76,0,0,1,.07,4.18S91.39,91.94,56,94.08C23.62,93,16.57,65.26,17.13,55.6A41.25,41.25,0,0,1,19.5,42.55Z"/><path class="cls-3" d="M19.5,42.55c-.2.86-.36,1.74-.5,2.61s-.25,1.76-.35,2.64a52.17,52.17,0,0,0-.33,5.3,40.64,40.64,0,0,0,.27,5.3c.11.88.25,1.76.42,2.62s.4,1.73.66,2.57a19.46,19.46,0,0,0,2.18,4.8,15.45,15.45,0,0,0,1.59,2.1,14.84,14.84,0,0,0,1.94,1.78,14.31,14.31,0,0,0,2.23,1.39c.39.2.79.38,1.2.55s.82.31,1.23.44a18.86,18.86,0,0,0,2.57.62,25.28,25.28,0,0,0,2.62.28h0a7.65,7.65,0,0,0,1.69-.38,16.69,16.69,0,0,0,1.65-.66c1.07-.49,2.12-1.05,3.15-1.65s2-1.22,3-1.87,2-1.32,3-2,1.94-1.38,2.91-2.09l.09-.06.06,0h0c-.34-.23.63.33.19,0l-.18,0h0l.17-.13.36-.27.72-.54c.48-.36,1-.7,1.47-1A31.27,31.27,0,0,1,56.59,63a20.27,20.27,0,0,1,3.35-1.36,11.34,11.34,0,0,1,3.62-.53,7,7,0,0,1,.92.09l.23,0,.12,0,.11,0,.45.13a5,5,0,0,1,1.66.89,3,3,0,0,1,.66.72,2.21,2.21,0,0,1,.38,1,1.83,1.83,0,0,1-.18,1,3.39,3.39,0,0,1-.57.8,9.15,9.15,0,0,1-1.44,1.16c-.51.34-1,.65-1.53,1s-1,.61-1.51.94a14.25,14.25,0,0,0-1.42,1l-.32.28L61,70.3l-.16.16c-.21.21-.41.42-.61.64a14.19,14.19,0,0,0-1.12,1.34,8.3,8.3,0,0,0-.89,1.48,6.23,6.23,0,0,0-.51,1.62,4.63,4.63,0,0,0,.06,1.66,5,5,0,0,0,.64,1.55l-.05-.06a3.2,3.2,0,0,0,1.32.8,5.7,5.7,0,0,0,1.6.26,12.38,12.38,0,0,0,3.29-.42,24,24,0,0,0,3.2-1.07c1-.42,2.07-.9,3.07-1.42a40.15,40.15,0,0,0,5.73-3.63A28.41,28.41,0,0,0,79.12,71a16.35,16.35,0,0,0,2.2-2.51c.16-.23.31-.46.45-.7l.4-.75.42-.75.4-.75.4-.75.4-.75.8-1.52,1.58-3c.53-1,1-2,1.65-3a13.83,13.83,0,0,1,1-1.43,7.59,7.59,0,0,1,1.29-1.24A4.21,4.21,0,0,1,91.81,53a2.69,2.69,0,0,1,1,0,1.81,1.81,0,0,1,.94.48,1.08,1.08,0,0,1,.18.26.85.85,0,0,1,.06.17.3.3,0,0,1,0,.1v.07l0,.42,0,.86c0,.58,0,1.15,0,1.73,0,.29,0,.58,0,.87,0,.08,0,.15,0,.22l0,.22c0,.14,0,.29,0,.43-.07.58-.15,1.15-.25,1.71a45.1,45.1,0,0,1-1.66,6.69,44.64,44.64,0,0,1-2.64,6.36,39.71,39.71,0,0,1-3.63,5.86,35.92,35.92,0,0,1-10.17,9.22,37,37,0,0,1-6.22,3,33.88,33.88,0,0,1-3.28,1.06c-1.1.32-2.22.58-3.35.8a52.08,52.08,0,0,1-6.82.85h0c-1.55-.06-3.1-.18-4.64-.37s-3.08-.46-4.6-.8a40.82,40.82,0,0,1-4.48-1.27,37.22,37.22,0,0,1-8.37-4.1A36.2,36.2,0,0,1,30.16,85a35.34,35.34,0,0,1-3.31-3.28A36.25,36.25,0,0,1,24,78a37.58,37.58,0,0,1-2.39-4,42.38,42.38,0,0,1-1.92-4.24,43.12,43.12,0,0,1-1.43-4.43,39.46,39.46,0,0,1-.93-4.55A28.85,28.85,0,0,1,17,56.19a5.49,5.49,0,0,1,0-.58c0-.19,0-.39,0-.58,0-.39,0-.78.06-1.16.05-.77.13-1.55.22-2.31A41.74,41.74,0,0,1,18.14,47,31.45,31.45,0,0,1,19.5,42.55Zm0,0A33.18,33.18,0,0,0,18.19,47a41.57,41.57,0,0,0-.73,4.58c-.09.77-.15,1.53-.2,2.31,0,.38,0,.77,0,1.15,0,.2,0,.38,0,.58s0,.39,0,.58a29.71,29.71,0,0,0,.34,4.61,41.29,41.29,0,0,0,1,4.52,44.09,44.09,0,0,0,1.46,4.38,42.07,42.07,0,0,0,1.94,4.2,37.64,37.64,0,0,0,2.4,3.94,35.72,35.72,0,0,0,2.85,3.62,34.69,34.69,0,0,0,3.3,3.23,33,33,0,0,0,3.68,2.76,35.17,35.17,0,0,0,4,2.26,40,40,0,0,0,8.7,3c1.51.33,3,.58,4.55.76s3.06.29,4.6.34h0a50.9,50.9,0,0,0,6.74-.86c1.11-.22,2.21-.49,3.3-.79s2.17-.66,3.23-1.06a36.53,36.53,0,0,0,6.11-2.94,35.08,35.08,0,0,0,5.42-4.05,36.64,36.64,0,0,0,4.53-5,38.38,38.38,0,0,0,3.57-5.76A44.53,44.53,0,0,0,91.45,67a45.27,45.27,0,0,0,1.62-6.59c.1-.56.18-1.12.24-1.67,0-.14,0-.28,0-.42l0-.21c0-.07,0-.14,0-.21,0-.27,0-.55,0-.83,0-.57,0-1.13,0-1.7l0-.85,0-.43v0h0s0,0,0,0L93.22,54A1.13,1.13,0,0,0,93,53.8a1.7,1.7,0,0,0-.32-.1,1.8,1.8,0,0,0-.73,0,3.48,3.48,0,0,0-1.39.66,6.88,6.88,0,0,0-1.16,1.13,12.19,12.19,0,0,0-1,1.35c-.57.95-1.1,2-1.63,3l-1.58,3-.8,1.52-.4.75-.4.76-.41.75-.42.75-.41.76c-.15.25-.31.5-.47.74a18.06,18.06,0,0,1-2.3,2.62A31.24,31.24,0,0,1,77,73.75a40.58,40.58,0,0,1-5.83,3.68c-1,.53-2.06,1-3.13,1.45A23.88,23.88,0,0,1,64.7,80a13.08,13.08,0,0,1-3.48.44,6.38,6.38,0,0,1-1.77-.3,3.92,3.92,0,0,1-1.58-1l0,0,0,0a5.6,5.6,0,0,1-.71-1.75,5.21,5.21,0,0,1-.06-1.89,6.83,6.83,0,0,1,.56-1.78,9,9,0,0,1,1-1.58,13.15,13.15,0,0,1,1.17-1.4c.2-.22.42-.44.63-.65l.16-.16.17-.16.34-.31a16.81,16.81,0,0,1,1.48-1.07c.51-.33,1-.64,1.53-1s1-.61,1.51-.93a8.92,8.92,0,0,0,1.34-1.08,2.77,2.77,0,0,0,.47-.64,1.29,1.29,0,0,0,.13-.71,1.62,1.62,0,0,0-.28-.7,2.77,2.77,0,0,0-.54-.6,4.71,4.71,0,0,0-1.48-.8l-.4-.11-.1,0-.11,0-.21,0a6,6,0,0,0-.85-.09,10.88,10.88,0,0,0-3.44.48,19.28,19.28,0,0,0-3.27,1.32,30.24,30.24,0,0,0-3.07,1.78c-.49.33-1,.66-1.46,1l-.71.53-.36.27-.18.15h0c-.08,0,.15,0-.21,0-.44-.36.52.2.16,0h0l0,0-.09.07c-1,.69-1.93,1.39-2.91,2.07s-2,1.35-3,2-2,1.27-3.07,1.87a35.74,35.74,0,0,1-3.2,1.65,17.77,17.77,0,0,1-1.68.66,8.28,8.28,0,0,1-1.79.39h0a24,24,0,0,1-2.67-.31,19.34,19.34,0,0,1-2.6-.64c-.43-.14-.85-.29-1.26-.47s-.82-.36-1.22-.56a14.56,14.56,0,0,1-2.27-1.45,14.12,14.12,0,0,1-2-1.83,16.63,16.63,0,0,1-1.61-2.14,20.07,20.07,0,0,1-2.16-4.88,26,26,0,0,1-.64-2.6c-.17-.87-.3-1.75-.4-2.63a41.25,41.25,0,0,1-.22-5.33,49.71,49.71,0,0,1,.39-5.31c.1-.88.23-1.76.38-2.63S19.29,43.41,19.5,42.55Z"/><path class="cls-3" d="M58,35.41v.15A3.66,3.66,0,0,1,58,36a7.93,7.93,0,0,1-.26,1.6,8.94,8.94,0,0,1-.38,1.09,7.81,7.81,0,0,1-.63,1.21,8.63,8.63,0,0,1-2.26,2.36,8.35,8.35,0,0,1-3.62,1.42c-.17,0-.35,0-.53.06l-.26,0h-.54l-.27,0a5.27,5.27,0,0,1-.56,0,8.67,8.67,0,0,1-1.11-.21,5.52,5.52,0,0,1-.54-.16l-.28-.1-.13,0-.14-.06a8.41,8.41,0,0,1-2-1.2,8.38,8.38,0,0,1-2.27-2.86,9.65,9.65,0,0,1-.46-1.16,8.44,8.44,0,0,1-.28-1.23,6.18,6.18,0,0,1-.07-.62c0-.11,0-.21,0-.31V35.1c0-.05,0-.1,0-.15v-.16l0-.32,0-.31a8.44,8.44,0,0,1,.28-1.23,9.65,9.65,0,0,1,.46-1.16,8.38,8.38,0,0,1,2.27-2.86,8.41,8.41,0,0,1,2-1.2l.14-.06.13,0,.27-.1c.19-.06.37-.12.55-.16a8.67,8.67,0,0,1,1.11-.21,5.09,5.09,0,0,1,.55,0l.27,0H50l.26,0,.53,0a8.48,8.48,0,0,1,3.62,1.43A8.65,8.65,0,0,1,56.69,31a7.73,7.73,0,0,1,.63,1.2,9.57,9.57,0,0,1,.38,1.09,7.93,7.93,0,0,1,.26,1.6,3.66,3.66,0,0,1,0,.42Zm0,0v-.15a3.66,3.66,0,0,0,0-.42,6.8,6.8,0,0,0-.28-1.59,7.42,7.42,0,0,0-1-2.27,7.83,7.83,0,0,0-2.3-2.24,8,8,0,0,0-1.66-.8,7.82,7.82,0,0,0-1.9-.4l-.25,0h-1l-.26,0a4.63,4.63,0,0,0-.52.07,7.58,7.58,0,0,0-1,.25c-.17.05-.34.12-.5.18l-.25.1-.12.05-.12.06a7.87,7.87,0,0,0-4.2,4.91,7,7,0,0,0-.24,1.1l0,.28c0,.1,0,.19,0,.28a5.52,5.52,0,0,0,0,.58v.27a2.83,2.83,0,0,0,0,.29,5.32,5.32,0,0,0,.06.56c0,.09,0,.18,0,.28l0,.14,0,.14.06.27.08.27a7.87,7.87,0,0,0,4.2,4.91l.11.06.13,0,.25.11.5.17a9.54,9.54,0,0,0,1,.26l.51.07.26,0,.26,0h.51l.51,0a7.83,7.83,0,0,0,1.9-.41,8,8,0,0,0,1.66-.8,7.83,7.83,0,0,0,2.3-2.24,7.42,7.42,0,0,0,1-2.27A6.8,6.8,0,0,0,58,36a3.66,3.66,0,0,0,0-.42Z"/><path class="cls-3" d="M46.25,28.14a7.56,7.56,0,0,0-1.28-1,6.94,6.94,0,0,0-1.43-.68A5.08,5.08,0,0,0,42,26.23a4.29,4.29,0,0,0-1.51.27,5,5,0,0,0-1.33.76,5.57,5.57,0,0,0-.58.51l0,0v0h0s0,0,0,0h0l-.07.07-.11.15a3.21,3.21,0,0,0-.21.3,4.37,4.37,0,0,0-.56,1.4,7.82,7.82,0,0,0-.2,1.53c0,.52,0,1,.05,1.57,0,.26,0,.53.08.79s.06.53.09.81c0,.07,0,.14,0,.22v.21s0,0,0,0h0v0h0V35l0,.19.14.8c.09.53.17,1.08.21,1.63a11.62,11.62,0,0,1,0,1.67,6.6,6.6,0,0,1-.3,1.69,3.92,3.92,0,0,1-.9,1.55,3.51,3.51,0,0,1-1.58.91l0-.82a6.25,6.25,0,0,0,2.18.42,5.77,5.77,0,0,0,1.1-.1,4.84,4.84,0,0,0,1-.33,5,5,0,0,0,.95-.56,5.79,5.79,0,0,0,.81-.76,7.83,7.83,0,0,0,1.19-1.92l0,.32a8.3,8.3,0,0,1-1-3.27,7.61,7.61,0,0,1,0-1.72,8.55,8.55,0,0,1,.35-1.67,8,8,0,0,1,.71-1.55,6.58,6.58,0,0,1,.47-.7q.25-.35.54-.66A10.12,10.12,0,0,1,44.84,29c.23-.17.46-.32.69-.47S46,28.27,46.25,28.14Zm0,0a10.69,10.69,0,0,0-2.46,2.18c-.16.22-.33.44-.47.66s-.29.47-.42.71a8,8,0,0,0-.58,1.5,7.82,7.82,0,0,0-.19,3.19,7.72,7.72,0,0,0,1.06,3l.09.14-.07.18a7.91,7.91,0,0,1-1.27,2.14,5.47,5.47,0,0,1-.91.89,5.54,5.54,0,0,1-1.09.68,5.81,5.81,0,0,1-1.22.4,6,6,0,0,1-1.27.12,6.72,6.72,0,0,1-1.26-.12A6.5,6.5,0,0,1,35,43.45L33.75,43,35,42.64A2.55,2.55,0,0,0,36.19,42a2.88,2.88,0,0,0,.71-1.21,5.89,5.89,0,0,0,.28-1.47,11.65,11.65,0,0,0,0-1.56c0-.52-.09-1-.17-1.57l-.13-.79,0-.21,0-.12V34.8h0s0,0,0,0h0s0,0,0-.06a1.09,1.09,0,0,0,0-.18c0-.26-.05-.53-.07-.8s-.05-.54-.07-.82a15.14,15.14,0,0,1,0-1.65,8.58,8.58,0,0,1,.27-1.66A5.43,5.43,0,0,1,37.63,28l.26-.34.15-.17.07-.07h0l0,0h0l0,0,0,0a5.87,5.87,0,0,1,2.15-1.29,4.51,4.51,0,0,1,1.67-.2,5.79,5.79,0,0,1,.82.12,5.61,5.61,0,0,1,.79.26,7.09,7.09,0,0,1,1.42.8A7.28,7.28,0,0,1,46.25,28.14Z"/><path class="cls-3" d="M39,51.83l-.26.54-.13.27-.12.27-.23.55-.12.27-.1.28-.21.55-.19.57-.09.28c0,.09,0,.19-.09.28l-.15.57-.14.58,0,.14,0,.15-.05.29-.06.29L37,58l0,.29a2.54,2.54,0,0,1,0,.29l0,.3c0,.09,0,.19,0,.29a2.83,2.83,0,0,0,0,.29l0,.29V60a2.8,2.8,0,0,0,0,.29,2.71,2.71,0,0,0,0,.29,2.3,2.3,0,0,0,0,.28l-.63,0a17.84,17.84,0,0,1,.1-2.19c0-.36.09-.72.14-1.09,0-.18.07-.36.1-.54s.07-.36.12-.53l.13-.54c0-.18.1-.35.15-.53.1-.35.22-.69.34-1a17.32,17.32,0,0,1,.9-2l.13-.25.13-.24.28-.47c.2-.31.39-.63.61-.92l.16-.23.08-.11.09-.11L40,49.7a5,5,0,0,1,.36-.42l.18-.21.19-.21a16.44,16.44,0,0,1,1.62-1.5l.44-.34.45-.31.23-.16.23-.15.47-.29.49-.27.24-.12.25-.12.25-.12.26-.11.51-.22a15.5,15.5,0,0,1,2.11-.63l.55-.1.27-.05.27,0,.55-.07.55,0h1.11l.54,0,.55,0a14.11,14.11,0,0,1,2.15.43,13.64,13.64,0,0,1,2,.76l.48.24c.17.08.32.17.48.26s.31.18.47.28l.23.14.22.15a13.89,13.89,0,0,1,1.69,1.35,16.26,16.26,0,0,0-1.79-1.18l-.23-.13-.24-.13c-.16-.08-.31-.16-.48-.23L57.22,46l-.49-.2a13.8,13.8,0,0,0-4.11-.92l-.52,0h-.8l-.26,0h-.52a14.39,14.39,0,0,0-2.07.33,14.93,14.93,0,0,0-2,.65,14.09,14.09,0,0,0-1.86.94l-.44.28-.22.14-.22.15-.42.31-.41.32a14.79,14.79,0,0,0-1.53,1.43l-.18.19-.17.2-.34.39-.32.41-.09.11-.07.1-.15.22c-.21.28-.4.58-.59.87-.09.14-.18.3-.27.45l-.13.22-.12.23-.25.47-.22.47a2.56,2.56,0,0,0-.11.24l-.1.24c-.07.16-.15.32-.21.49-.12.33-.25.65-.35,1,0,.16-.11.33-.16.5l-.13.51c0,.17-.08.34-.12.51s-.08.34-.11.51c-.06.35-.14.7-.18,1a18.2,18.2,0,0,0-.16,2.1v0a.32.32,0,0,1-.63,0c0-.11,0-.21,0-.32s0-.21,0-.31,0-.2,0-.31,0-.2,0-.3l0-.31c0-.1,0-.2,0-.3s0-.2,0-.3l0-.3c0-.1,0-.2,0-.3l.06-.3.06-.29c0-.1,0-.2.08-.3s.09-.39.15-.58l.17-.58.2-.57c0-.09.07-.19.11-.28l.11-.28c.07-.19.15-.38.23-.56l.25-.55.13-.27.14-.26.28-.54c0-.08.1-.17.15-.26l.15-.25Z"/><path class="cls-3" d="M57,63.25A13.42,13.42,0,0,1,56.38,60a18.34,18.34,0,0,1,2.34-9.6,17.17,17.17,0,0,1,1.9-2.74A16.53,16.53,0,0,1,63,45.33a16.08,16.08,0,0,1,2.85-1.76,14.72,14.72,0,0,1,3.17-1.11,15.26,15.26,0,0,1,6.68.06,15.55,15.55,0,0,1,3.17,1.13,16.46,16.46,0,0,1,5.29,4.12,17.07,17.07,0,0,1,1.93,2.76,18.39,18.39,0,0,1,2.14,6.37V57l0,.1-.16.27v0l-.56,1.19-.59,1.2-.59,1.19-.61,1.19c-.41.79-.82,1.57-1.26,2.35-.21.39-.43.77-.65,1.16l-.35.57c-.11.19-.22.38-.34.57-.47.76-1,1.51-1.48,2.24A23.78,23.78,0,0,1,80,71.13a19.12,19.12,0,0,1-1.9,1.92,21.27,21.27,0,0,1-2.14,1.64c-.75.5-1.52,1-2.29,1.4l-.58.33-.29.16,0,0h0s0,0,0,0l-.07,0-.14.09c-.39.24-.78.46-1.17.67-.79.43-1.59.82-2.41,1.19s-1.65.7-2.5,1a19.05,19.05,0,0,1-2.62.7,10.09,10.09,0,0,1-2.75.17,5.74,5.74,0,0,1-1.4-.3,4.24,4.24,0,0,1-1.27-.73,3.92,3.92,0,0,1-.93-1.14A5.21,5.21,0,0,1,57,77v-.11a10.83,10.83,0,0,1,.28-2.26,8.24,8.24,0,0,1,.34-1.1,6.64,6.64,0,0,1,.48-1,8.82,8.82,0,0,1,1.33-1.87A12.17,12.17,0,0,1,61.07,69,20.81,20.81,0,0,1,63,67.82c.64-.38,1.29-.73,1.92-1.09.31-.18.62-.36.92-.55a6.58,6.58,0,0,0,.83-.61,2.5,2.5,0,0,0,.6-.72,1.3,1.3,0,0,0,.15-.82l0,.12a3.89,3.89,0,0,0-.56-1,4.89,4.89,0,0,0-.37-.41,4.59,4.59,0,0,0-.44-.33A3.71,3.71,0,0,0,65,62a5.43,5.43,0,0,0-1.13-.18,7.75,7.75,0,0,0-1.18,0c-.4,0-.79.1-1.19.18a17.72,17.72,0,0,0-2.34.66c-.38.13-.76.28-1.14.43l-.58.23-.28.12-.28.12-.28.12-.27.13c-.18.08-.36.18-.54.27-.35.2-.71.39-1,.61-1.38.86-2.66,1.9-4,2.89l0,0h0a51.15,51.15,0,0,0-4.51,2.87c-1.48,1-3,2.07-4.52,3a20.86,20.86,0,0,1-2.44,1.27,14.7,14.7,0,0,1-2.62.89,11.25,11.25,0,0,1-2.77.3,11.7,11.7,0,0,1-2.77-.37l-.34-.1-.32-.09-.16,0-.17-.06-.34-.11c-.43-.15-.86-.33-1.29-.52s-.82-.42-1.22-.66-.78-.5-1.15-.77A16.48,16.48,0,0,1,24,71.4a17.53,17.53,0,0,1-1.71-2.15,22.62,22.62,0,0,1-1.41-2.36c-.42-.81-.79-1.65-1.13-2.49s-.62-1.72-.87-2.6c-.12-.43-.24-.87-.34-1.32-.06-.22-.1-.45-.14-.67l0-.17,0-.18-.06-.33V59a13,13,0,0,1,1.11-3.22A14,14,0,0,1,21.27,53a14.65,14.65,0,0,1,2.46-2.33,13.46,13.46,0,0,1,2.95-1.68,11,11,0,0,1,1.62-.54A10.54,10.54,0,0,1,30,48.11a8.08,8.08,0,0,1,.85,0h.42l.43,0a13.4,13.4,0,0,1,1.68.29,10.75,10.75,0,0,1,1.6.54,11.84,11.84,0,0,1,1.5.78c.24.14.47.3.7.46s.45.33.67.51A8.16,8.16,0,0,1,39,51.83a10,10,0,0,0-1.29-1A13.43,13.43,0,0,0,36.32,50a12.29,12.29,0,0,0-1.5-.64,11.08,11.08,0,0,0-1.57-.43,9.69,9.69,0,0,0-1.61-.19h-.8c-.27,0-.53,0-.8,0a10.47,10.47,0,0,0-1.58.29,11.48,11.48,0,0,0-1.53.52,13.51,13.51,0,0,0-5.13,3.85,13.35,13.35,0,0,0-1.75,2.71,13,13,0,0,0-.62,1.49c-.08.25-.16.51-.23.77s-.13.52-.18.79V59l.05.33,0,.16,0,.16c0,.21.09.43.14.64.1.44.21.86.34,1.29a25.81,25.81,0,0,0,.86,2.52,23.45,23.45,0,0,0,2.46,4.69,18.14,18.14,0,0,0,1.66,2,14.69,14.69,0,0,0,1.95,1.75,13,13,0,0,0,1.1.72A12.67,12.67,0,0,0,30,74.43l.31.1.15,0,.16,0,.33.1.31.08a10.85,10.85,0,0,0,5.15.06A14,14,0,0,0,38.89,74a21.68,21.68,0,0,0,2.34-1.22c1.53-.91,3-2,4.47-3a53.9,53.9,0,0,1,4.58-2.92l-.05,0,2-1.49c.34-.25.67-.5,1-.74s.69-.48,1-.7.73-.44,1.1-.64l.57-.29.3-.14.28-.13.3-.13.28-.12.59-.23c.39-.15.78-.31,1.18-.44a18.52,18.52,0,0,1,2.45-.69c.42-.08.84-.15,1.27-.19a8.16,8.16,0,0,1,1.31,0,6,6,0,0,1,1.32.21,4.34,4.34,0,0,1,1.25.55,3.2,3.2,0,0,1,.55.42,3.71,3.71,0,0,1,.47.5,4.82,4.82,0,0,1,.68,1.18l0,0v.06A2.32,2.32,0,0,1,68,65.24a3.35,3.35,0,0,1-.8,1,7.71,7.71,0,0,1-.93.69q-.48.3-1,.57c-.65.37-1.29.71-1.91,1.08a18.52,18.52,0,0,0-1.8,1.17A11.29,11.29,0,0,0,60,71.13a8.45,8.45,0,0,0-1.22,1.69c-.16.31-.3.63-.43,1a8.83,8.83,0,0,0-.3,1,9.73,9.73,0,0,0-.27,2.09v-.11a4.71,4.71,0,0,0,.43,1.14,3.09,3.09,0,0,0,.73.91,3.45,3.45,0,0,0,1,.59,4.77,4.77,0,0,0,1.19.26,9.39,9.39,0,0,0,2.53-.15,20.31,20.31,0,0,0,2.52-.66q1.23-.42,2.43-1c.8-.35,1.59-.73,2.36-1.15.39-.21.77-.42,1.14-.64l.14-.09.07,0,0,0h0l0,0,.29-.16.58-.32c.76-.43,1.51-.88,2.24-1.37a19.76,19.76,0,0,0,2.07-1.57,20.08,20.08,0,0,0,1.85-1.84,24.72,24.72,0,0,0,1.62-2.05q.78-1.06,1.47-2.19l.34-.56.35-.57c.22-.38.44-.76.65-1.14.44-.77.86-1.55,1.27-2.33l.61-1.17.6-1.18.58-1.19.59-1.19v0h0l.16-.27,0,.2a17.42,17.42,0,0,0-.72-3.18,17.23,17.23,0,0,0-1.3-3,17.06,17.06,0,0,0-1.84-2.69A15.68,15.68,0,0,0,75.62,43a14.6,14.6,0,0,0-3.23-.43,14.55,14.55,0,0,0-9.17,3A16.6,16.6,0,0,0,58.9,50.5a18.14,18.14,0,0,0-2.21,6.19,17.42,17.42,0,0,0-.26,3.3A13.93,13.93,0,0,0,57,63.25Z"/><path class="cls-3" d="M55.43,94.44a38.42,38.42,0,1,1,15-3A38.38,38.38,0,0,1,55.43,94.44Zm0-76.61A38,38,0,1,0,93.48,55.88,38.09,38.09,0,0,0,55.43,17.83Z"/></g></g></svg>