<svg xmlns="http://www.w3.org/2000/svg" xmlns:xlink="http://www.w3.org/1999/xlink" viewBox="0 0 112.83 112.83"><defs><style>.cls-1{fill:none;stroke-miterlimit:10;stroke:url(#linear-gradient);}.cls-2{fill:url(#linear-gradient-2);}.cls-3{fill:#fff;}</style><linearGradient id="linear-gradient" y1="56.41" x2="112.83" y2="56.41" gradientUnits="userSpaceOnUse"><stop offset="0.3" stop-color="#c59c49"/><stop offset="0.73" stop-color="#94672c"/></linearGradient><linearGradient id="linear-gradient-2" x1="56.31" y1="7.74" x2="56.31" y2="107.39" xlink:href="#linear-gradient"/></defs><title>Asset 1</title><g id="Layer_2" data-name="Layer 2"><g id="Camada_1" data-name="Camada 1"><path class="cls-1" d="M25.41.5h62a24.91,24.91,0,0,1,24.91,24.91v62a24.91,24.91,0,0,1-24.91,24.91h-62A24.92,24.92,0,0,1,.5,87.41v-62A24.91,24.91,0,0,1,25.41.5Z"/><path class="cls-2" d="M106.14,57.56A49.83,49.83,0,1,1,56.31,7.74,49.83,49.83,0,0,1,106.14,57.56Z"/><path class="cls-3" d="M59.92,51.11A13,13,0,0,0,68,38.66a13.27,13.27,0,1,0-26.54,0A12.71,12.71,0,0,0,50.6,51.27s-4.67.91-9.38,6.11a9.2,9.2,0,0,0-7-6.17,6.52,6.52,0,1,0-3.32,0s-8.11,1.61-6.37,15.23c2.66,0,12,.11,12,.11s-.21,15.71-.21,20.84H74.67v-21H88.12s2-16.7-7.07-17.21a5.84,5.84,0,0,0,4.46-5.87,6.42,6.42,0,1,0-8.92,5.91s-6.57.29-6.81,8.58A16.49,16.49,0,0,0,59.92,51.11Z"/></g></g></svg>