<svg xmlns="http://www.w3.org/2000/svg" xmlns:xlink="http://www.w3.org/1999/xlink" viewBox="0 0 112.07 112.07"><defs><style>.cls-1{fill:none;stroke-miterlimit:10;stroke:url(#linear-gradient);}.cls-2{fill:url(#linear-gradient-2);}.cls-3{fill:#fff;}</style><linearGradient id="linear-gradient" y1="56.03" x2="112.07" y2="56.03" gradientUnits="userSpaceOnUse"><stop offset="0.14" stop-color="#79c68e"/><stop offset="0.73" stop-color="#359846"/></linearGradient><linearGradient id="linear-gradient-2" x1="56.03" y1="6.5" x2="56.03" y2="105.46" xlink:href="#linear-gradient"/></defs><title>Asset 1</title><g id="Layer_2" data-name="Layer 2"><g id="Camada_1" data-name="Camada 1"><rect class="cls-1" x="0.5" y="0.5" width="111.07" height="111.07" rx="24.74" ry="24.74"/><path class="cls-2" d="M105.52,56A49.49,49.49,0,1,1,56,6.5,49.48,49.48,0,0,1,105.52,56Z"/><path class="cls-3" d="M47.59,79.24l1.08.38,1.1.36.28.08.27.08.56.16c.19,0,.37.11.56.15l.56.13.56.13.56.11c.38.07.76.14,1.14.19l.57.07.29,0,.28,0,1.15.08,1.15,0h.57l.58,0c.39,0,.76-.06,1.14-.09l.58,0,.56-.09a25.12,25.12,0,0,0,4.46-1,26.65,26.65,0,0,0,4.18-1.81,27.34,27.34,0,0,0,3.81-2.48l.44-.36.22-.18.22-.18.85-.75.82-.79.78-.82A27.46,27.46,0,0,0,79.68,69l.3-.48a4.85,4.85,0,0,0,.29-.49c.19-.33.39-.65.56-1l.26-.5.13-.25.12-.26c.16-.34.32-.68.47-1l.43-1.06.37-1.07c.23-.72.45-1.44.62-2.19a27.13,27.13,0,0,0,.66-4.5l0-1.14V53.58l0-.29,0-.56,0-.29V52.3l0-.14-.06-.57a26.39,26.39,0,0,0-.92-4.48L82.49,46c-.13-.36-.27-.71-.41-1.07a21.72,21.72,0,0,0-1-2.08,25.58,25.58,0,0,0-5.57-7.25,26.49,26.49,0,0,0-3.65-2.76,26.15,26.15,0,0,0-4.09-2.07l-1.07-.4L65.67,30l-1.11-.3L64,29.61l-.56-.12A26.53,26.53,0,0,0,58.92,29H57.8l-1.16,0c-.76.06-1.5.11-2.25.23a26.75,26.75,0,0,0-4.42,1A26.25,26.25,0,0,0,38.7,37.59,26.74,26.74,0,0,0,36,41.21a27,27,0,0,0-2,4l-.21.53c-.07.17-.14.35-.2.53l-.36,1.07-.31,1.09c-.09.36-.17.73-.26,1.1A26.91,26.91,0,0,0,32,54l0,.57v1.13c0,.2,0,.38,0,.57,0,.37,0,.75.08,1.12s.06.75.12,1.13a26.55,26.55,0,0,0,2.66,8.63l0,0,0,.05v0l0,.06,0,.1a.58.58,0,0,1,0,.18.55.55,0,0,1,0,.18.86.86,0,0,1,0,.16l0,.17a.83.83,0,0,1,0,.15,2,2,0,0,1-.09.29,2.24,2.24,0,0,1-.13.27,1.23,1.23,0,0,1-.14.25l-.07.12-.08.12-.17.22-.18.21-.09.1-.09.1-.19.19c-.06.07-.13.13-.19.19l-.2.18-.2.17-.41.34,0-.47.69.75c.22.25.47.49.7.73l.36.37.36.36.73.71.74.7.75.69.76.68.77.68.77.67.78.66c.25.22.52.44.78.65s.52.44.79.65l.79.65.8.64c.53.42,1.07.84,1.62,1.25h-.09c.18-.23.38-.45.57-.66s.41-.43.62-.63.21-.2.33-.29l.17-.14.18-.13.19-.11.21-.1a.86.86,0,0,1,.23-.06.51.51,0,0,1,.24,0Zm0,.1a.41.41,0,0,0-.19,0l-.2.05a1.65,1.65,0,0,0-.37.2,5,5,0,0,0-.67.55c-.21.2-.42.41-.61.63s-.38.44-.56.66l0,0,0,0-1.63-1.24c-.55-.41-1.09-.83-1.62-1.25l-.81-.63-.8-.64L39.2,77l-.8-.64c-.26-.21-.52-.44-.79-.65l-.78-.66-.78-.66-.78-.68c-.26-.22-.5-.46-.76-.69l-.38-.34-.38-.35L33,71.65l-.73-.73-.23-.23.27-.23.37-.34c.07-.05.13-.12.19-.17l.18-.18.17-.18.16-.18.09-.09.07-.1L33.7,69l.14-.19.07-.1.05-.11a.75.75,0,0,0,.1-.2c0-.07.07-.14.09-.2s.05-.14.06-.2l0-.1v-.1a.27.27,0,0,0,0-.09v-.08a.14.14,0,0,1,0-.06s0,0,0,0h0v0l0,0a26.1,26.1,0,0,1-3-8.86c-.06-.39-.1-.78-.14-1.17S31,56.73,31,56.33l0-.59V54.57l0-.59a26.34,26.34,0,0,1,.55-4.68,25.2,25.2,0,0,1,1.39-4.5A26.34,26.34,0,0,1,35,40.61a27.41,27.41,0,0,1,2.86-3.74,27.12,27.12,0,0,1,7.44-5.7,25.39,25.39,0,0,1,4.35-1.8,26.49,26.49,0,0,1,4.58-1,23.25,23.25,0,0,1,2.35-.19l1.16,0h.59l.58,0a27.47,27.47,0,0,1,4.63.66l.57.14c.19,0,.38.08.57.14l1.11.34,1.11.39,1.08.43a27.87,27.87,0,0,1,4.1,2.2,27.31,27.31,0,0,1,3.67,2.85,26,26,0,0,1,3.13,3.43,28.56,28.56,0,0,1,2.51,3.91A26.41,26.41,0,0,1,83.24,47a27.06,27.06,0,0,1,1.05,4.53l.08.58,0,.15v.14l0,.29.06.59,0,.29a2.81,2.81,0,0,0,0,.29l0,.58,0,.29v1.46A27,27,0,0,1,84,60.83a24.93,24.93,0,0,1-1.37,4.48c-.15.37-.32.72-.47,1.08l-.12.27-.14.26-.26.53c-.17.35-.38.68-.57,1-.1.17-.19.34-.29.5l-.32.5a26.5,26.5,0,0,1-2.88,3.71l-.81.85-.86.8L75,75.6l-.23.19-.24.17-.46.36a26.45,26.45,0,0,1-4,2.45,26.11,26.11,0,0,1-4.35,1.69,27.94,27.94,0,0,1-9.21,1A28.09,28.09,0,0,1,52,80.71l-.57-.14c-.18,0-.37-.11-.55-.16l-.56-.16L50,80.17l-.27-.09c-.37-.12-.74-.23-1.1-.36l-1.09-.38Z"/><path class="cls-3" d="M42.25,73.54l1.21,1.29H43.4a3.76,3.76,0,0,1,.82-.67,4.83,4.83,0,0,1,1-.47,5.4,5.4,0,0,1,2.11-.29,4.93,4.93,0,0,1,.54,0c.18,0,.36,0,.53.09a9.39,9.39,0,0,1,1,.28l.5.2.49.21.48.24.23.13.12.07.11.06.47.24.47.2a10.24,10.24,0,0,0,1,.33,13.79,13.79,0,0,0,2,.42c.34,0,.69.07,1,.1l.52,0,.26,0h1.31l1-.06a21.9,21.9,0,0,0,4.1-.74,21.27,21.27,0,0,0,3.87-1.47,19.83,19.83,0,0,0,3.49-2.22,18.14,18.14,0,0,0,2.89-2.92A15,15,0,0,0,75,67l.14-.22h0s0,0,0,0v0l0-.06.06-.12.26-.46.12-.23.12-.23.22-.46a23,23,0,0,0,1.43-3.87,27.1,27.1,0,0,0,.89-8.22,28.44,28.44,0,0,0-.48-4.11,25.69,25.69,0,0,0-1.12-4,19.33,19.33,0,0,0-1.85-3.66c-.09-.15-.2-.28-.3-.42l-.29-.41-.33-.4-.16-.19-.17-.19-.34-.37L72.85,39l-.18-.17-.19-.16-.4-.32.82-.48a8.72,8.72,0,0,1,.06,1,6.78,6.78,0,0,1-.11,1,7.66,7.66,0,0,1-.25,1,7.5,7.5,0,0,1-.37.93A14.18,14.18,0,0,1,70.07,45a29.8,29.8,0,0,1-2.71,2.68c-1,.83-1.94,1.62-3,2.37-.5.38-1,.74-1.53,1.1l-1.56,1.07c-1,.69-2.1,1.37-3.16,2S56,55.56,54.94,56.19s-2.16,1.27-3.25,1.89l0,0c-.23.17-.48.37-.71.57s-.47.4-.69.61-.44.43-.65.66-.43.45-.64.68l-.3.35-.29.36-.15.18-.14.18-.27.38c-.09.12-.18.24-.27.38l-.25.38c-.17.27-.33.53-.48.8l-.12.2-.1.2c-.07.14-.15.28-.21.41l-.2.43c-.07.14-.12.28-.19.42l-.09.22-.08.21c-.05.15-.11.29-.15.44l-.15.44c0,.15-.08.3-.12.45s-.14.6-.21.9l-.08.46,0,.24,0,.22c0,.16,0,.31,0,.47l0,.46c0,.08,0,.16,0,.24v.75l0,0-.22.12-.21.12-.21.14-.2.14-.19.15-.19.16-.18.17-.18.17-.17.18c-.05.06-.11.12-.16.19l-.16.19-.15.2c-.1.13-.19.27-.28.41S42.32,73.39,42.25,73.54Zm0,0a3.61,3.61,0,0,1,.22-.44l.27-.43.14-.2.15-.2.16-.2c.05-.06.1-.13.16-.19l.17-.18.18-.18.18-.17a1.56,1.56,0,0,1,.2-.16l.19-.16.21-.14.21-.14.22-.12,0,.07,0-.47,0-.24c0-.07,0-.15,0-.23v-.48c0-.15,0-.31,0-.47v-.23l0-.24.06-.47c.06-.31.1-.63.18-.93s.07-.31.12-.47L45.4,66l.15-.45.08-.23.09-.22c.05-.15.11-.3.17-.45l.19-.43c.06-.15.14-.29.2-.43l.11-.21.11-.21c.14-.29.31-.56.46-.84l.26-.4.26-.4.27-.39.14-.19L48,61l.29-.38.3-.37.63-.71q.33-.36.66-.69c.23-.22.46-.44.7-.65s.48-.42.74-.62h0l3.2-2c1.06-.65,2.12-1.31,3.17-2,2.09-1.35,4.15-2.75,6.13-4.26,1-.75,1.95-1.53,2.87-2.36a27.73,27.73,0,0,0,2.59-2.61,13.61,13.61,0,0,0,2-3,8.18,8.18,0,0,0,.32-.82,6.5,6.5,0,0,0,.22-.84,4.89,4.89,0,0,0,.08-.85,4.79,4.79,0,0,0,0-.85l-.19-1.29,1,.81.43.34.21.18.21.19.4.38.37.4.19.2.17.21.35.43c.11.14.21.29.32.44a4.5,4.5,0,0,1,.31.45,19,19,0,0,1,2,3.86,23,23,0,0,1,1.17,4.14A29.24,29.24,0,0,1,79.29,53a28.06,28.06,0,0,1-.15,4.3,26.44,26.44,0,0,1-.82,4.22,23.68,23.68,0,0,1-1.53,4l-.24.49c0,.08-.09.16-.13.24l-.13.23L76,67l-.07.11,0,.06,0,0v0l-.15.23a18.44,18.44,0,0,1-4.33,4.79,20.29,20.29,0,0,1-3.67,2.25,21.54,21.54,0,0,1-4,1.45,22.56,22.56,0,0,1-4.23.66c-.36,0-.71,0-1.07,0H57.35l-.27,0h-.27l-.53,0c-.36,0-.71-.08-1.06-.15a12.44,12.44,0,0,1-2.09-.49c-.35-.1-.68-.24-1-.37l-.5-.23-.46-.26L51,75l-.11-.07-.23-.13-.45-.24-.47-.23-.48-.2a8.13,8.13,0,0,0-1-.31c-.17,0-.34-.07-.51-.11l-.51-.06a5.08,5.08,0,0,0-2,.21,4.7,4.7,0,0,0-1,.41,3.91,3.91,0,0,0-.83.62l0,0,0,0Z"/><path class="cls-3" d="M45,70.7a14.11,14.11,0,0,1,2.17-1.07A10.68,10.68,0,0,1,49.49,69c.8-.11,1.61-.15,2.4-.22a18.71,18.71,0,0,0,2.36-.38l.28-.07.29-.08.58-.15c.39-.12.77-.22,1.15-.35.76-.23,1.51-.5,2.26-.79s1.47-.61,2.19-1l.53-.27.26-.13.26-.14.52-.28.52-.31c.17-.09.33-.2.5-.31l.49-.32.49-.34.48-.35c.31-.23.61-.49.92-.74l.44-.39.22-.2.21-.2a17.24,17.24,0,0,0,1.57-1.74l.35-.47c.12-.16.22-.32.33-.48l.17-.24.15-.25.3-.5.28-.52.13-.26.13-.26c.08-.18.17-.35.24-.54l.22-.54.1-.27.1-.28c.06-.18.13-.37.18-.55l.16-.57.08-.28.06-.29.13-.57c0-.19.06-.38.1-.58l0-.29,0-.14,0-.15.06-.58c0-.1,0-.2,0-.29v-.3l0-.58c0-.4,0-.79,0-1.18l1,.1c0,.07,0,.11,0,.16l0,.14c0,.09,0,.18-.09.27s-.12.36-.19.54c-.13.35-.28.69-.43,1a20.8,20.8,0,0,1-1.07,2,19.1,19.1,0,0,1-1.27,1.82,21.18,21.18,0,0,1-1.45,1.69c-.5.53-1,1-1.59,1.54S65.6,59.58,65,60s-1.2.87-1.82,1.25l-.47.29-.47.28L62,62l-.24.14-.48.27-1,.52-1,.5c-.66.33-1.33.62-2,.9s-1.36.54-2,.78-1.38.47-2.08.68l-2.09.62c-.69.21-1.37.43-2,.69a11.52,11.52,0,0,0-1.93,1,11,11,0,0,0-1.74,1.28,11.16,11.16,0,0,1,1.65-1.41A12.83,12.83,0,0,1,49,66.82c.67-.3,1.35-.56,2-.81l2.06-.71c.68-.24,1.36-.49,2-.75s1.33-.54,2-.84,1.3-.62,1.93-1c.32-.16.64-.34.95-.51l.93-.54.46-.27.23-.14.23-.15.46-.29.44-.29.45-.3.43-.32.22-.15.22-.16.42-.32c.56-.45,1.11-.89,1.63-1.38s1-1,1.51-1.51A22.81,22.81,0,0,0,70.18,53a20.64,20.64,0,0,0,1-1.86c.14-.32.28-.64.4-1,.07-.16.12-.33.18-.49s0-.16.07-.24l0-.12,0-.11L73,45l-.07,4.39c0,.42,0,.83,0,1.24l0,.62,0,.31,0,.3-.07.62,0,.15,0,.16,0,.3a6,6,0,0,1-.11.61l-.13.61-.07.3-.08.3-.17.6c-.07.2-.14.39-.2.59l-.11.29a2.49,2.49,0,0,1-.11.29l-.23.58c-.08.19-.18.38-.27.57l-.13.28-.15.27-.29.55-.33.53-.16.26-.18.26-.36.5-.39.49a17.09,17.09,0,0,1-1.68,1.82l-.23.21-.23.21-.47.4c-.32.25-.64.52-1,.75a21.41,21.41,0,0,1-2.07,1.33L63,66l-.54.28-.28.14-.27.13-.56.26c-.37.16-.74.33-1.12.48l-1.15.43c-.77.26-1.54.51-2.32.72l-1.18.31-.59.13-.3.07-.3.06a18.23,18.23,0,0,1-2.44.28c-.8,0-1.61,0-2.4.1a11.07,11.07,0,0,0-2.35.44A15.28,15.28,0,0,0,45,70.7Z"/><path class="cls-3" d="M43.84,69a4.13,4.13,0,0,1-.71-1,5.72,5.72,0,0,1-.45-1.15,7.34,7.34,0,0,1-.24-2.47c0-.21,0-.41.05-.62s0-.41.09-.62.08-.41.13-.61l.16-.6c.06-.2.13-.39.2-.59l.1-.3.11-.28.24-.58.26-.56.13-.29.15-.27.29-.55.07-.14.08-.13.17-.26.31-.53.69-1,.73-1,.77-1,.19-.24.2-.24.4-.46c.14-.16.27-.32.41-.47l.42-.45.42-.45.21-.23.21-.22.87-.87c.14-.15.3-.29.45-.43l.44-.42c.59-.57,1.21-1.11,1.83-1.65l.23-.2,0,0,0,0h0l.05-.05.11-.11.43-.43L54.5,47c.15-.15.3-.28.43-.43l.81-.88.21-.22c.07-.07.13-.15.2-.23l.38-.45.4-.46c.13-.15.24-.31.37-.47l.37-.47.18-.24L58,43l.35-.49.17-.25c.06-.08.11-.17.16-.25l.32-.5.16-.25.15-.26.29-.52a5.2,5.2,0,0,0,.26-.53c.09-.18.18-.35.25-.53s.16-.36.23-.55l.19-.55c.06-.19.11-.37.16-.56a5.59,5.59,0,0,0,.12-.56l0-.14v-.13c0-.05,0-.09,0-.13v-.12l0-.92.64.57c.13.11.23.21.34.32l.3.32q.3.33.57.66c.19.23.36.47.53.7l.25.36.23.37.23.38.21.38c.13.26.26.52.38.78s.12.27.17.41.11.26.16.4.19.55.27.83.15.56.21.85.06.28.08.42,0,.29.07.43a8.54,8.54,0,0,1,.07.86,8.42,8.42,0,0,1,0,.87c0,.14,0,.29,0,.43s0,.29,0,.43l0,.43c0,.14,0,.28-.07.42s-.12.56-.18.84-.16.55-.24.82l.08-.42c0-.14.06-.28.08-.42s.08-.56.1-.84,0-.28,0-.42v-.42c0-.14,0-.28,0-.42s0-.29,0-.43,0-.56-.07-.83-.09-.56-.14-.83-.06-.27-.09-.41-.06-.27-.1-.4-.16-.54-.25-.8-.19-.52-.3-.77l-.18-.38c-.06-.13-.11-.25-.18-.38s-.26-.48-.4-.72l-.22-.36-.23-.34L63,39.06c-.08-.11-.16-.23-.25-.34s-.34-.43-.52-.64-.37-.41-.56-.6l-.3-.29a3.4,3.4,0,0,0-.29-.26l.68-.35a1.34,1.34,0,0,1,0,.19c0,.06,0,.12,0,.17l0,.17v.16c0,.22-.08.43-.12.64a6.25,6.25,0,0,1-.16.62l-.19.61c-.07.2-.16.39-.23.59l-.25.57c-.1.19-.18.39-.27.57l-.3.55L60,41.7l-.16.27-.32.53a5.8,5.8,0,0,1-.34.52l-.35.52-.18.25-.19.25-.37.49-.38.49-.4.48-.4.47-.2.24-.21.23-.85.91a5.93,5.93,0,0,1-.43.44l-.43.42-.44.43-.1.11-.06,0v0l0,0,0,0-.23.2c-.6.54-1.22,1.06-1.81,1.61l-.44.41-.44.41-.87.85-.22.21-.21.22-.42.43-.42.43-.41.45-.4.45-.21.22-.19.23-.78.92-.74.95-.7,1-.33.51-.17.25-.08.12-.08.13-.3.52-.15.26-.14.26-.28.53-.26.55-.12.27-.11.27c-.08.19-.16.37-.22.56a10.9,10.9,0,0,0-.56,2.32,3.8,3.8,0,0,0-.06.59c0,.2,0,.4,0,.6s0,.2,0,.3l0,.3.05.29s0,.1,0,.15l0,.15a5.83,5.83,0,0,0,.34,1.15A4.07,4.07,0,0,0,43.84,69Z"/><path class="cls-3" d="M56,55.12l.28-.42.28-.41c.09-.14.18-.28.28-.41l.26-.42.27-.41.26-.42.26-.42c.08-.14.17-.28.24-.42s.17-.28.25-.42l.24-.43.23-.43.22-.43c.08-.14.15-.29.22-.43l.21-.44c.06-.15.13-.29.19-.44a2.14,2.14,0,0,0,.1-.22l.08-.21.79-2,.22,2.16a2.83,2.83,0,0,1,0,.29l0,.29a5.42,5.42,0,0,1,0,.57c0,.19,0,.38,0,.57s0,.39-.06.58-.06.38-.1.57-.09.38-.15.57-.07.19-.11.29a1.69,1.69,0,0,1-.12.28s0,.09-.07.14,0,.09-.08.14-.11.17-.17.26l-.6.39-.48.26-.48.26-.49.25-.49.24-.49.24-.5.23Zm0,0c.13-.13.28-.24.42-.36l.42-.35.43-.35.43-.33.43-.33.44-.33.44-.32.43-.32-.12.11a1.28,1.28,0,0,0,.11-.2,1.17,1.17,0,0,0,.05-.11s0-.07,0-.11a1.55,1.55,0,0,0,.08-.23l.06-.23c0-.16.07-.33.1-.49s0-.17,0-.26l0-.25,0-.52c0-.17,0-.35,0-.52s0-.35,0-.53v-.26c0-.08,0-.18,0-.25l1,.14-.11.24a2.56,2.56,0,0,1-.11.24c-.07.15-.15.3-.22.46l-.24.44c-.09.15-.17.3-.26.44s-.17.29-.26.44l-.28.42-.28.42c-.11.13-.2.27-.31.4s-.2.27-.3.4-.21.27-.32.39l-.34.38c-.11.13-.22.25-.34.37l-.35.36-.37.34c-.12.12-.25.23-.38.34Z"/><path class="cls-3" d="M42.94,67.34a6.31,6.31,0,0,1-.87-.28,8.09,8.09,0,0,1-.84-.4l-.4-.23-.38-.26L40.26,66l-.19-.14-.18-.16-.17-.16a6.63,6.63,0,0,1-1.18-1.45,7.54,7.54,0,0,1-.76-1.75c0-.15-.08-.3-.11-.46l-.09-.47,0-.11v-.12l0-.24c0-.16,0-.31,0-.47l0-.48c0-.15,0-.31,0-.47,0-.32,0-.63.08-.94,0-.16,0-.31.07-.47l.08-.46.21-.92.27-.9.31-.88.33-.86.33-.85c.23-.57.47-1.13.72-1.7.48-1.12,1-2.23,1.52-3.33.26-.55.52-1.09.76-1.64.11-.27.22-.54.32-.82a8.19,8.19,0,0,0,.23-.81,4.48,4.48,0,0,0,.1-.82,6,6,0,0,0,0-.84,11.87,11.87,0,0,0-.31-1.73l-.2-.81.78.23a7.83,7.83,0,0,1,.92.34l.22.1.21.11.22.11.2.12c.14.08.28.16.41.25l.39.27c.25.19.5.39.73.59s.24.21.36.32l.33.33c.12.1.22.22.33.33l.16.18.15.17.15.18.15.19c.09.12.19.24.28.37s.35.52.51.78.31.54.45.82.14.29.2.43.12.29.17.44l.15.44.13.45.09.46.07.46,0,.47v.47c0,.15,0,.31,0,.46s-.05.31-.08.46-.07.3-.12.45-.1.29-.16.43l-.2.42-.23.39.18-.42.15-.43c0-.14.07-.29.11-.43s0-.3.07-.44,0-.3,0-.45v-.44l0-.45-.07-.43-.09-.43-.13-.43L49.3,48l-.17-.41-.19-.4-.22-.39a8.35,8.35,0,0,0-.47-.74c-.17-.25-.34-.48-.53-.71s-.19-.23-.29-.34l-.14-.16-.15-.16L47,44.55l-.16-.15-.32-.31-.33-.29-.34-.28c-.23-.18-.46-.35-.71-.51l-.36-.24c-.13-.07-.25-.15-.38-.21l-.19-.1-.19-.1-.2-.09-.19-.08a6.21,6.21,0,0,0-.8-.26l.58-.59a13.93,13.93,0,0,1,.39,1.86,6.45,6.45,0,0,1,0,1,5.56,5.56,0,0,1-.11,1,7.21,7.21,0,0,1-.25.94c-.1.3-.22.6-.34.89-.25.58-.51,1.13-.77,1.68l-.78,1.65c-.25.55-.51,1.1-.75,1.65s-.49,1.11-.74,1.66l-.35.84-.34.84-.33.83-.28.85-.23.85-.1.43c0,.15-.06.29-.08.44s-.1.58-.12.87l0,.44v.44a7.85,7.85,0,0,0,.18,1.74A6.81,6.81,0,0,0,39,63.86a6.67,6.67,0,0,0,1,1.46,8,8,0,0,0,1.35,1.17A7.65,7.65,0,0,0,42.94,67.34Z"/><polygon class="cls-3" points="31.12 72.35 43.19 83.02 40.46 85.72 28.59 75.2 31.12 72.35"/><path class="cls-3" d="M31.12,72.35l.79.62c.27.2.53.41.79.62l.79.63.79.63.78.64.78.64,1.55,1.28,1.54,1.3L40.47,80,42,81.32l1.52,1.32.41.36-.39.39-1.35,1.36L40.83,86.1l-.35.35-.37-.33L38.63,84.8l-1.47-1.33-1.47-1.33L34.22,80.8l-1.45-1.34L31.32,78.1l-1.44-1.37-.72-.68-.71-.69-.15-.15.13-.14.66-.69.67-.68c.23-.23.45-.46.68-.68S30.89,72.57,31.12,72.35Zm0,0-.59.75-.59.75-.6.75-.59.74,0-.29.77.62.76.63,1.53,1.27,1.52,1.27,1.51,1.28,1.51,1.3,1.5,1.29L39.32,84l1.49,1.31-.72,0L41.46,84l1.37-1.34,0,.75-1.5-1.36L39.87,80.7l-1.49-1.37L36.91,78l-1.46-1.39-.74-.69-.72-.7-.73-.7-.72-.71c-.23-.24-.48-.47-.71-.71S31.35,72.59,31.12,72.35Z"/><path class="cls-3" d="M26.39,77l12,10.53s-3.71,3.81-9.79-1.66S26.39,77,26.39,77Z"/><path class="cls-3" d="M26.39,77l.8.6.79.62.78.62.78.62c.26.21.52.41.78.63l.77.63c.52.42,1,.83,1.55,1.26l1.53,1.28,1.53,1.28,1.51,1.3,1.51,1.3.43.37-.4.38,0,0,0,0L38.6,88l-.15.13-.15.11-.15.1a5.76,5.76,0,0,1-.63.37,6.75,6.75,0,0,1-1.37.48,7.1,7.1,0,0,1-1.45.12,6.07,6.07,0,0,1-1.41-.2A6.81,6.81,0,0,1,32,88.7a5.18,5.18,0,0,1-.63-.3L31,88.24l-.3-.18c-.2-.11-.39-.24-.58-.37s-.37-.27-.55-.4-.36-.29-.54-.43-.34-.3-.51-.45l-.13-.11-.06-.06,0,0,0,0h0L28,86l-.24-.24c-.08-.07-.16-.16-.24-.24L27.1,85l-.22-.27c-.07-.08-.14-.18-.21-.27l-.21-.27-.19-.28c-.13-.19-.25-.39-.37-.58A7.89,7.89,0,0,1,25.32,82,5.65,5.65,0,0,1,25,80.69a4.56,4.56,0,0,1,.06-1.38A4.07,4.07,0,0,1,25.54,78a3.12,3.12,0,0,1,.39-.56A3.41,3.41,0,0,1,26.39,77Zm0,0a4.17,4.17,0,0,0-1,2.35,3.88,3.88,0,0,0,.06,1.27,5.8,5.8,0,0,0,.39,1.2,7.19,7.19,0,0,0,.63,1.11,6.13,6.13,0,0,0,.38.51l.2.25.2.25.22.24.22.23.45.46c.08.07.15.15.24.22l.25.22.24.22.24.2c.17.14.33.28.51.41s.33.26.51.38.35.25.53.36.36.23.55.33l.28.15.28.14a5.86,5.86,0,0,0,.57.26,7.36,7.36,0,0,0,1.18.38,6.28,6.28,0,0,0,1.21.16,6,6,0,0,0,1.2-.11,5,5,0,0,0,1.13-.39l.51-.29.24-.17.11-.09.06-.05,0,0,0,.75L36.56,86.6l-1.48-1.34L33.6,83.91l-1.46-1.35c-.49-.45-1-.92-1.45-1.37L30,80.5l-.72-.69-.72-.69-.71-.7-.71-.7Z"/><path class="cls-3" d="M29.72,25.74l.15,0,.38.12a5.7,5.7,0,0,1,1.23.56,8,8,0,0,1,.72.47,6.66,6.66,0,0,1,.72.61c.11.12.22.25.32.38s.21.27.31.41.41.57.63.84.45.54.66.81.43.53.64.79.39.51.57.76.36.46.52.68.3.4.43.57.23.33.32.45l.28.4-.14.15-.4-.28-.45-.33L36,32.73l-.68-.51-.75-.58L33.8,31,33,30.35c-.27-.22-.55-.43-.83-.63l-.42-.31a4,4,0,0,1-.37-.33,5.08,5.08,0,0,1-.62-.71c-.18-.25-.33-.49-.47-.73a6.84,6.84,0,0,1-.56-1.22c0-.16-.09-.29-.11-.39a1,1,0,0,0,0-.14Z"/><path class="cls-3" d="M17,53.66l.13-.08.35-.19a7.44,7.44,0,0,1,1.27-.46q.39-.1.84-.18a5.78,5.78,0,0,1,.94-.07l.5,0,.51.07c.34.06.69.12,1,.15l1,.11,1,.12.94.12.85.12.71.11.55.09.48.08v.22l-.48.08-.55.08-.72.11-.84.11-.94.12-1,.11-1,.11c-.35,0-.7.08-1.05.14l-.51.07-.49,0a5.58,5.58,0,0,1-.94-.08c-.3,0-.59-.11-.85-.18a7.22,7.22,0,0,1-1.26-.47,3.07,3.07,0,0,1-.35-.2L17,53.87Z"/><path class="cls-3" d="M58,14.2l.07.13.2.35A7.14,7.14,0,0,1,58.73,16a6.56,6.56,0,0,1,.17.84,5.77,5.77,0,0,1,.08.94c0,.17,0,.33,0,.5s0,.34-.08.51c0,.34-.11.69-.15,1s-.06.69-.1,1-.08.68-.12,1-.08.64-.13.94-.08.59-.12.85-.07.5-.11.71-.06.39-.08.55-.09.48-.09.48h-.21l-.08-.48c0-.16-.05-.34-.08-.55s-.07-.46-.11-.72-.07-.54-.11-.84-.08-.61-.13-.94-.07-.67-.11-1-.06-.69-.1-1-.08-.7-.14-1c0-.17,0-.34-.07-.51s0-.33,0-.49a5.58,5.58,0,0,1,.08-.94c0-.3.11-.59.18-.85a6.92,6.92,0,0,1,.47-1.26,3.29,3.29,0,0,1,.19-.35l.08-.13Z"/><path class="cls-3" d="M57.87,84.88l.08.48c0,.16,0,.34.08.55s.07.46.11.72.07.54.11.84.08.61.12.94l.12,1c0,.34.06.69.1,1s.09.7.14,1c0,.17.05.34.07.51s0,.33,0,.5a5.55,5.55,0,0,1-.08.93c0,.3-.11.59-.18.85a6.92,6.92,0,0,1-.47,1.26,3.29,3.29,0,0,1-.19.35l-.08.13h-.21a.8.8,0,0,1-.08-.13,3.07,3.07,0,0,1-.2-.35,7.3,7.3,0,0,1-.46-1.26c-.07-.27-.13-.55-.18-.85a5.72,5.72,0,0,1-.06-.94,4.19,4.19,0,0,1,0-.5c0-.17,0-.34.08-.51.05-.34.11-.69.15-1s.06-.69.1-1,.08-.69.12-1,.08-.64.13-.94.08-.58.12-.85.07-.49.11-.71.06-.39.08-.55.09-.48.09-.48Z"/><path class="cls-3" d="M87.4,53.83l.48-.08.55-.09.71-.1.85-.11.94-.13,1-.11,1-.1c.34,0,.69-.09,1-.14l.5-.08.5,0a5.67,5.67,0,0,1,.94.08,7.08,7.08,0,0,1,.85.18,7.22,7.22,0,0,1,1.26.47,3.29,3.29,0,0,1,.35.19l.13.08v.21l-.12.08-.36.2a7,7,0,0,1-1.26.46A6.56,6.56,0,0,1,96,55a4.84,4.84,0,0,1-.94.07,4.19,4.19,0,0,1-.5,0L94,54.94c-.35-.06-.69-.11-1-.15l-1-.1-1-.12L90,54.44l-.85-.12c-.26,0-.5-.07-.71-.11l-.55-.09L87.4,54Z"/><path class="cls-3" d="M86.5,25.73a1.31,1.31,0,0,1,0,.14,2.43,2.43,0,0,1-.11.39,7.17,7.17,0,0,1-.56,1.22,5.89,5.89,0,0,1-.47.72,5.17,5.17,0,0,1-.61.72l-.38.33c-.13.1-.28.2-.41.31q-.44.3-.84.63c-.27.22-.54.45-.81.66l-.8.63-.75.58-.68.51-.58.43-.44.33-.4.28-.15-.15.28-.4.32-.45L79.5,32c.16-.21.34-.43.52-.68l.58-.75.63-.79q.31-.4.66-.81c.22-.27.43-.56.63-.84s.2-.28.31-.41a3.9,3.9,0,0,1,.33-.38,5.09,5.09,0,0,1,.71-.61,8,8,0,0,1,.72-.47,7,7,0,0,1,1.23-.57l.38-.11.15,0Z"/><path class="cls-3" d="M79.36,75.42l.4.28.45.32.58.43.68.52.75.58.79.62.81.67c.27.22.56.42.84.63l.42.31c.13.1.25.21.37.32a6.66,6.66,0,0,1,.61.72,8,8,0,0,1,.47.72,7.34,7.34,0,0,1,.57,1.22c.05.17.09.3.11.39l0,.15-.15.15-.14,0a2.43,2.43,0,0,1-.39-.11,7.17,7.17,0,0,1-1.22-.56c-.24-.14-.48-.3-.72-.47a5.15,5.15,0,0,1-.72-.62c-.11-.11-.22-.24-.33-.37s-.2-.28-.3-.42-.41-.56-.64-.83L82,79.22l-.63-.8-.58-.75L80.25,77l-.43-.58L79.49,76l-.28-.39Z"/></g></g></svg>