<svg xmlns="http://www.w3.org/2000/svg" xmlns:xlink="http://www.w3.org/1999/xlink" viewBox="0 0 112.3 112.3"><defs><style>.cls-1{fill:none;stroke-miterlimit:10;stroke:url(#linear-gradient);}.cls-2{fill:url(#linear-gradient-2);}.cls-3{fill:#fff;}</style><linearGradient id="linear-gradient" y1="56.15" x2="112.3" y2="56.15" gradientUnits="userSpaceOnUse"><stop offset="0.22" stop-color="#f0505a"/><stop offset="0.89" stop-color="#af1a1f"/></linearGradient><linearGradient id="linear-gradient-2" x1="56.15" y1="6.56" x2="56.15" y2="105.74" xlink:href="#linear-gradient"/></defs><title>Asset 1</title><g id="Layer_2" data-name="Layer 2"><g id="Camada_1" data-name="Camada 1"><path class="cls-1" d="M25.3.5H87A24.79,24.79,0,0,1,111.8,25.29V87A24.79,24.79,0,0,1,87,111.8H25.3A24.8,24.8,0,0,1,.5,87V25.3A24.8,24.8,0,0,1,25.3.5Z"/><path class="cls-2" d="M105.74,56.15A49.59,49.59,0,1,1,56.15,6.56,49.59,49.59,0,0,1,105.74,56.15Z"/><path class="cls-3" d="M81.57,18.67l.2.34a1.65,1.65,0,0,1,.1.19c0,.07.06.15.1.23s.08.18.12.28l.1.32a6,6,0,0,1,.26,1.69,6.12,6.12,0,0,1-.43,2.2c0,.09-.09.19-.14.29a2.53,2.53,0,0,1-.14.29,5.72,5.72,0,0,1-.35.56l-.2.28c-.08.08-.15.17-.23.26l-.12.13a.8.8,0,0,1-.13.13l-.26.24a.81.81,0,0,1-.14.12l-.15.11-.15.12-.07.05-.09.06c-.21.12-.4.26-.64.37s-.24.12-.37.16l-.37.14a2.38,2.38,0,0,1-.38.11l-.2.05-.1,0-.1,0-.4.06-.41,0h-.42l-.42,0-.42-.06-.11,0-.1,0-.21-.05-.21,0-.2-.07-.41-.16a6,6,0,0,1-1.48-.92l-.33-.31-.08-.07-.07-.09-.15-.16-.14-.17L72,25.15,71.87,25l-.06-.1,0,0v0h0s0,0,0,0l-.2-.35,0-.09a.31.31,0,0,1,0-.1L71.35,24l-.1-.21,0-.11,0-.11-.13-.42a6.06,6.06,0,0,1-.18-1.74c0-.15,0-.29,0-.44l0-.21,0-.21,0-.21,0-.1a.45.45,0,0,0,0-.11c0-.13.09-.27.13-.4s.11-.26.17-.39a1.08,1.08,0,0,1,.08-.19l.1-.19c.07-.12.13-.24.21-.36l.23-.33a6,6,0,0,1,1.11-1.13,6.38,6.38,0,0,1,.63-.43l0,0,0,0h0l.08-.05.16-.07.16-.08.17-.08.34-.13.17-.06.17,0,.34-.09.34-.06a4.93,4.93,0,0,1,.66-.07h.64a6,6,0,0,1,2.16.59,5.6,5.6,0,0,1,1.41,1l.24.23.19.23.17.19a.94.94,0,0,1,.12.18Zm0,0-.22-.32c0-.05-.07-.11-.12-.17s-.11-.13-.17-.2a2,2,0,0,0-.2-.22l-.25-.23a5,5,0,0,0-1.42-.92,5.27,5.27,0,0,0-2.14-.44l-.3,0a1.62,1.62,0,0,0-.31,0,3.56,3.56,0,0,0-.62.12l-.31.08-.31.11-.15.06-.15.07-.29.14-.15.09-.15.09-.15.09-.08.05s0,0,0,0h0l0,0a4.42,4.42,0,0,0-.53.44,5.18,5.18,0,0,0-.89,1.08l-.18.32a3.13,3.13,0,0,0-.15.32l-.08.17-.06.17c0,.11-.08.22-.11.34a6.34,6.34,0,0,0-.21,1.44c0,.13,0,.25,0,.37V22l0,.18,0,.18a1.16,1.16,0,0,0,0,.18c0,.12,0,.24.08.36s.08.23.11.35l0,.09,0,.08.07.16.07.16a.18.18,0,0,0,0,.09l0,.09.2.35s0,0,0,0h0v0l0,0,0,.07.11.15a.78.78,0,0,0,.1.15l.12.15.12.14.06.07.07.06.26.26.29.23.14.12.16.1.15.1.08.05.08.05.32.17a5.67,5.67,0,0,0,1.39.46l.36,0,.18,0h.18c.12,0,.24,0,.36,0l.35,0h.18l.18,0a2.05,2.05,0,0,0,.34-.07l.35-.09L79,26.4a4.52,4.52,0,0,0,.64-.29l.07,0,.07,0,.15-.09.14-.09a.71.71,0,0,0,.14-.1l.27-.2.13-.1.12-.12.23-.22a2.32,2.32,0,0,0,.21-.25,3.66,3.66,0,0,0,.38-.5c.06-.09.11-.18.16-.27l.15-.26a5.21,5.21,0,0,0,.55-2.11,5,5,0,0,0-.2-1.69l-.09-.32L82,19.43c0-.08-.07-.16-.1-.23s-.07-.13-.1-.19Z"/><path class="cls-3" d="M23.62,54.71s.06.12.19.34c0,.06.07.12.1.19l.1.24.12.27c0,.1.06.21.1.32a5.73,5.73,0,0,1,.26,1.7A6.11,6.11,0,0,1,24.06,60c0,.1-.09.2-.13.29a2.64,2.64,0,0,1-.15.29,4.73,4.73,0,0,1-.35.56l-.2.28-.23.27-.12.13-.12.12-.27.25-.14.12-.15.11-.14.11-.08.06-.09.05a5.41,5.41,0,0,1-.64.37l-.36.17-.38.13a2.4,2.4,0,0,1-.38.12l-.2,0-.09,0h-.1l-.41.06-.41,0H18.5l-.42,0-.42-.06-.11,0-.1,0-.21-.06-.21,0-.2-.07-.4-.15a5.91,5.91,0,0,1-1.49-.93l-.33-.3-.07-.08-.08-.08-.14-.17-.15-.17a1.18,1.18,0,0,1-.13-.18l-.25-.36-.21-.38-.05-.09a.31.31,0,0,1,0-.1l-.09-.21-.09-.21-.05-.11,0-.1-.13-.43a6,6,0,0,1-.17-1.74A3.13,3.13,0,0,1,13,57c0-.07,0-.15,0-.21l0-.22,0-.21,0-.1,0-.1.12-.41c.05-.13.11-.26.17-.39s.05-.12.08-.19l.1-.18c.07-.12.13-.25.21-.36l.23-.34a6,6,0,0,1,1.11-1.13,5.42,5.42,0,0,1,.64-.42l0,0h.06l.08,0,.16-.08.16-.08.16-.07.35-.13a.85.85,0,0,1,.17-.06l.17,0,.33-.09.34,0a3.8,3.8,0,0,1,.66-.07,1.82,1.82,0,0,1,.33,0h.31a6.16,6.16,0,0,1,2.16.59,5.67,5.67,0,0,1,1.41,1l.24.24.2.22.16.2.13.17Zm0,0-.23-.32a1.36,1.36,0,0,0-.12-.17L23.1,54a2,2,0,0,0-.2-.22c-.07-.08-.15-.15-.24-.24a5.27,5.27,0,0,0-1.43-.92,5.4,5.4,0,0,0-2.14-.44l-.3,0-.31,0a4.76,4.76,0,0,0-.62.11l-.31.08-.3.12a.52.52,0,0,0-.16.06.59.59,0,0,0-.14.06l-.3.15-.15.08-.15.09-.15.1-.08,0s0,0,0,0h0l0,0a4.51,4.51,0,0,0-.54.44,5.24,5.24,0,0,0-.89,1.09l-.18.31a3.31,3.31,0,0,0-.15.33l-.08.16-.06.17c0,.12-.08.23-.11.34a6.43,6.43,0,0,0-.21,1.45c0,.12,0,.24,0,.37V58l0,.18,0,.19a1.49,1.49,0,0,0,0,.18c0,.12,0,.24.08.35l.12.36,0,.08,0,.08.07.16.07.17a.59.59,0,0,0,0,.08l.05.09.1.18,0,.09,0,0v0s0,0,0,0a6.07,6.07,0,0,0,.94,1.14l.29.23.14.12.16.1.15.1.08.05.08,0,.32.18a6.27,6.27,0,0,0,1.39.45l.36,0,.18,0h.54l.35,0h.1l.08,0,.18,0,.35-.06.34-.09c.11,0,.21-.08.32-.12a5.21,5.21,0,0,0,.65-.29l.07,0,.07,0,.14-.09.15-.08a1.7,1.7,0,0,1,.14-.1l.26-.21.13-.1.12-.11.24-.23.21-.24a6,6,0,0,0,.37-.51,1.4,1.4,0,0,0,.16-.26l.15-.26a5.3,5.3,0,0,0,.55-2.12,5,5,0,0,0-.2-1.68l-.09-.33L24,55.48a1.33,1.33,0,0,0-.1-.24c0-.07-.07-.13-.09-.19C23.68,54.83,23.62,54.71,23.62,54.71Z"/><path class="cls-3" d="M83.43,86.4s.06.12.19.34a1.65,1.65,0,0,1,.1.19c0,.07.06.15.1.23l.12.28.1.32a5.66,5.66,0,0,1,.26,1.69,6.12,6.12,0,0,1-.43,2.2c0,.09-.09.19-.13.29s-.09.19-.15.29a5.72,5.72,0,0,1-.35.56l-.2.28c-.08.08-.15.17-.23.26l-.11.13-.13.13-.27.24a.53.53,0,0,1-.14.12l-.15.11-.14.12-.08,0-.09.06a5.41,5.41,0,0,1-.64.37c-.12,0-.24.12-.36.16l-.37.14a2.85,2.85,0,0,1-.39.11l-.2.05-.09,0-.1,0-.41.06-.41,0h-.42l-.42,0-.42-.07h-.1l-.11,0-.21,0-.2,0-.21-.07-.41-.16a6,6,0,0,1-1.48-.92l-.32-.3-.09-.08-.07-.08-.14-.17L74,93.06l-.13-.18-.25-.37-.21-.37,0-.1a.36.36,0,0,1,0-.09l-.09-.21-.09-.21,0-.11,0-.11-.13-.42a6.48,6.48,0,0,1-.18-1.74c0-.15,0-.29,0-.44a.76.76,0,0,1,0-.21l0-.21,0-.21,0-.11,0-.1c0-.13.08-.27.13-.4a2.66,2.66,0,0,1,.16-.39c0-.06,0-.13.08-.19l.1-.18a3.1,3.1,0,0,1,.21-.36l.23-.34A5.67,5.67,0,0,1,75,84.88a6.51,6.51,0,0,1,.64-.43l0,0h0s0,0,0,0l.09,0,.16-.07.15-.08.17-.08L76.6,84l.16-.06.18,0,.33-.09.34-.06a5.11,5.11,0,0,1,.66-.07c.11,0,.22,0,.33,0h.31a6,6,0,0,1,2.16.59,5.42,5.42,0,0,1,1.41,1l.24.23c.08.08.14.16.2.23l.16.19.13.18Zm0,0-.23-.32a1.36,1.36,0,0,0-.12-.17l-.17-.2-.2-.22-.24-.23A5,5,0,0,0,81,84.34a5.27,5.27,0,0,0-2.14-.44l-.3,0a1.67,1.67,0,0,0-.31,0c-.2,0-.41.06-.62.12l-.31.08-.3.11-.16.06-.15.07-.29.14-.15.09-.15.09-.15.09-.08,0h0l0,0a5.47,5.47,0,0,0-.54.44,5,5,0,0,0-.89,1.09l-.18.31a3.13,3.13,0,0,0-.15.32l-.08.17a.84.84,0,0,0-.05.17,3.4,3.4,0,0,0-.12.34,6.34,6.34,0,0,0-.21,1.45c0,.12,0,.24,0,.36v.18l0,.19,0,.18a1.16,1.16,0,0,0,0,.18c0,.12,0,.24.08.36L74,91l0,.09,0,.08.07.16.07.16a.36.36,0,0,0,0,.09l0,.08.1.18,0,.09,0,0v0h0s0,0,0,0a5.71,5.71,0,0,0,.94,1.13l.29.24.14.11.16.1.15.1.08,0,.08.05.32.17a5.82,5.82,0,0,0,1.39.46l.36,0,.18,0h.18c.12,0,.24,0,.36,0l.36,0h.17l.18,0a2.41,2.41,0,0,0,.35-.07l.34-.09.32-.11a4.52,4.52,0,0,0,.64-.29l.08,0,.07,0,.14-.09.14-.09a.71.71,0,0,0,.14-.1,2.69,2.69,0,0,0,.27-.2l.13-.1.12-.12.24-.22.21-.25c.14-.15.25-.33.38-.5s.1-.18.15-.26l.15-.27a5.26,5.26,0,0,0,.55-2.11,5,5,0,0,0-.2-1.69l-.09-.32-.12-.28a1.6,1.6,0,0,0-.1-.23c0-.07-.07-.13-.09-.19C83.49,86.52,83.43,86.4,83.43,86.4Z"/><path class="cls-3" d="M62.47,53.54l.19.34.11.19c0,.07.06.15.1.23s.08.18.11.28.07.2.11.32a5.43,5.43,0,0,1,.25,1.69,5.89,5.89,0,0,1-.42,2.2l-.14.29a1.92,1.92,0,0,1-.14.29,5.72,5.72,0,0,1-.35.56,3.32,3.32,0,0,1-.43.54l-.12.13-.13.13-.26.25-.14.11-.15.11-.15.12-.07,0-.09.06a6.55,6.55,0,0,1-.65.37,3.92,3.92,0,0,1-.36.16l-.37.14a2.38,2.38,0,0,1-.38.11l-.2,0-.1,0-.1,0-.4.06a3,3,0,0,1-.42,0h-.41a3,3,0,0,1-.42,0l-.42-.06-.11,0-.1,0-.21,0-.21-.05-.2-.07-.41-.16A6.25,6.25,0,0,1,53.79,61l-.32-.3-.08-.08-.07-.08-.15-.17L53,60.2,52.9,60l-.26-.36-.21-.38,0-.09-.05-.1-.09-.21-.09-.22,0-.1,0-.11L52,58a6.06,6.06,0,0,1-.18-1.74c0-.15,0-.29,0-.43l0-.22,0-.21,0-.21,0-.1L52,55c.05-.13.09-.27.13-.4l.16-.39.09-.19.1-.18c.07-.12.13-.25.21-.36a4,4,0,0,1,.23-.34A5.67,5.67,0,0,1,54,52a5.39,5.39,0,0,1,.63-.43l0,0,0,0h0l.08,0,.16-.08.16-.08.17-.07.34-.14.17-.06L56,51l.34-.09.34-.06c.22,0,.44-.05.66-.07s.22,0,.32,0H58a6.16,6.16,0,0,1,2.16.59,5.87,5.87,0,0,1,1.41,1l.24.24c.07.07.13.15.19.22l.17.19a1.4,1.4,0,0,1,.12.18Zm0,0-.22-.32a1.55,1.55,0,0,0-.13-.17l-.16-.2-.2-.22-.25-.23a5.36,5.36,0,0,0-1.42-.92A5.3,5.3,0,0,0,58,51l-.3,0a1.62,1.62,0,0,0-.31,0,4.83,4.83,0,0,0-.62.12l-.31.08-.31.11-.15.06-.15.07-.29.14-.15.09-.15.09-.15.09L55,52s0,0,0,0h0l0,0a4.42,4.42,0,0,0-.53.44,5.24,5.24,0,0,0-.89,1.09l-.18.31c-.06.1-.1.22-.15.32l-.08.16-.06.18c0,.11-.08.23-.11.34a5.46,5.46,0,0,0-.21,1.45c0,.12,0,.24,0,.36a.38.38,0,0,0,0,.1v.09l0,.18,0,.18a1.13,1.13,0,0,0,0,.18c0,.12,0,.24.09.36s.08.23.11.35l0,.09,0,.08.07.16.07.16a.18.18,0,0,0,0,.09l0,.09.1.17,0,.09,0,.05v0h0s0,0,0,0a6.06,6.06,0,0,0,1,1.13l.29.24.14.11.15.1.16.1.07.05.09,0,.32.17a5.74,5.74,0,0,0,1.38.46l.36,0,.19,0h.17c.12,0,.25,0,.36,0l.36,0h.18l.17,0a2,2,0,0,0,.35-.07,3.37,3.37,0,0,0,.34-.09l.33-.11A4.52,4.52,0,0,0,60.5,61l.07,0,.07-.05.15-.09.14-.09.14-.09.27-.21.13-.1.12-.12.23-.22c.08-.08.14-.16.21-.24a4.49,4.49,0,0,0,.38-.51,2.26,2.26,0,0,0,.16-.26l.15-.27a5.21,5.21,0,0,0,.55-2.11,5,5,0,0,0-.2-1.69c0-.11-.07-.22-.1-.32s-.08-.19-.11-.27-.07-.17-.1-.24-.07-.13-.1-.19Z"/><path class="cls-3" d="M71,48l-.32,1-.33,1-.33,1-.17.49-.17.48-.18.48-.18.48-.19.48c-.06.15-.12.31-.19.47l-.2.48c-.06.16-.12.31-.19.47l-.42.94v-.25l.54.93.26.47.25.47.26.48.24.48.24.48.24.48.23.48.23.49.46,1,.45,1,.44,1-.48-.26c.8-.15,1.59-.3,2.38-.47s1.57-.36,2.35-.56,1.56-.41,2.32-.64,1.54-.48,2.29-.75,1.49-.58,2.21-.91a18.77,18.77,0,0,0,2.08-1.11A8.42,8.42,0,0,0,86.89,57a4,4,0,0,0,.59-.9,2.06,2.06,0,0,0,.15-.48,2,2,0,0,0,0-.24s0-.08,0-.12v-.1h0v0a2.84,2.84,0,0,0-.92-1.84,6.93,6.93,0,0,0-.87-.74q-.48-.33-1-.63a16.29,16.29,0,0,0-2.15-1l-1.12-.43-1.15-.38c-.76-.24-1.54-.46-2.32-.66s-1.57-.38-2.37-.54-1.58-.33-2.38-.47S71.81,48.11,71,48Zm0,0,1.21.08,1.22.11c.81.09,1.61.18,2.42.3s1.61.25,2.41.41,1.6.35,2.39.55,1.58.45,2.35.73a19.21,19.21,0,0,1,2.28,1,11.94,11.94,0,0,1,1.09.64,7,7,0,0,1,1,.82,4.81,4.81,0,0,1,.83,1,3.71,3.71,0,0,1,.27.65,3.58,3.58,0,0,1,.09.35,1.23,1.23,0,0,1,0,.19.25.25,0,0,1,0,.08V55a3.12,3.12,0,0,1-.26,1.4,4.31,4.31,0,0,1-.72,1.15,9.1,9.1,0,0,1-2,1.66,17.32,17.32,0,0,1-2.2,1.19c-.75.35-1.51.66-2.29.94a46.31,46.31,0,0,1-4.72,1.39c-1.59.38-3.2.68-4.81.94l-.34.06-.13-.31-.83-2-.42-1L69.7,60l-.21-.49L69.27,59c-.08-.16-.15-.32-.22-.49l-.23-.48-.22-.48-.24-.48-.23-.48-.48-.94h-.07l.06-.25.45-.91.45-.92.21-.46.22-.46.21-.47.2-.46.41-.94.41-.94Z"/><path class="cls-3" d="M44.84,64.11c-.24.77-.48,1.54-.71,2.31s-.44,1.55-.64,2.33-.39,1.56-.56,2.34-.32,1.57-.44,2.36-.21,1.59-.27,2.38a16.91,16.91,0,0,0,0,2.36l.06.58a5.67,5.67,0,0,0,.1.57,5.56,5.56,0,0,0,.3,1.08,2.72,2.72,0,0,0,.11.25l.12.24.14.22a1.66,1.66,0,0,0,.16.21,2,2,0,0,0,.36.35,1.43,1.43,0,0,0,.2.14l.06,0h0l0,0,.14.06.07,0,.06,0,.11,0,.1,0,.13,0,.12,0h.13a2.09,2.09,0,0,0,.25,0h.26l.27,0a4.56,4.56,0,0,0,.53-.13,4.72,4.72,0,0,0,.53-.18l.27-.11.13-.06.13-.06.25-.13.26-.13c.17-.09.33-.2.5-.3A16.7,16.7,0,0,0,50,79.59c.61-.49,1.2-1,1.78-1.57s1.14-1.11,1.68-1.7,1.09-1.17,1.61-1.78c.26-.3.52-.6.77-.91l.77-.93c.5-.62,1-1.26,1.47-1.9l0,.54-.63-.79-.31-.4c-.1-.14-.21-.27-.31-.4l-.61-.81-.3-.41-.3-.41-.58-.83-.3-.41-.28-.41-1.13-1.69.24.13-2.19-.11-.55,0-.55,0-1.09-.09-.55,0-.55,0L47,64.41l-.54-.07-.54-.08Zm0,0,2.19.11,1.09,0,.55,0h.55l1.09,0h3.28L55,66.07l1.22,1.6.31.39.31.39.63.79.32.39.32.38.64.77.21.27-.2.28c-.48.65-1,1.31-1.46,2s-1,1.27-1.52,1.9S54.74,76.41,54.19,77s-1.13,1.18-1.72,1.74-1.2,1.11-1.85,1.63a18.4,18.4,0,0,1-2,1.44l-.55.31-.28.15-.28.13-.15.07-.14.06-.3.13a5.62,5.62,0,0,1-.62.2L46,83l-.33.06-.34,0H45l-.34,0-.18,0-.17,0-.17,0-.18-.06-.19-.06-.07,0-.07,0-.14-.06,0,0,0,0h0l0,0-.07,0a3.21,3.21,0,0,1-.3-.21,3.31,3.31,0,0,1-.49-.5c-.07-.09-.15-.18-.21-.27l-.17-.3L42,81a2.85,2.85,0,0,1-.12-.31,6.21,6.21,0,0,1-.32-1.25c0-.21-.06-.41-.08-.62s0-.42,0-.63a17,17,0,0,1,.11-2.47,22.13,22.13,0,0,1,.38-2.42c.15-.8.35-1.59.56-2.37s.44-1.56.69-2.33.53-1.53.81-2.28l.21-.57.23-.56C44.53,64.85,44.68,64.48,44.84,64.11Z"/><path class="cls-3" d="M44.66,48.82c-10,1.7-16.85,4.83-16.74,8.2s7,6,16.92,7.09c.95-2.55,2-5.26,3.37-8C46.83,53.57,45.69,51.15,44.66,48.82Z"/><path class="cls-3" d="M44.66,48.82c-.8.16-1.59.34-2.38.51l-2.36.59c-.78.21-1.55.43-2.33.67s-1.53.5-2.29.78-1.49.6-2.22.93A18.58,18.58,0,0,0,31,53.45a11.2,11.2,0,0,0-1,.68,9.13,9.13,0,0,0-.85.79,4.46,4.46,0,0,0-.65.93,2.38,2.38,0,0,0-.26,1v.4l0,.12a2.38,2.38,0,0,0,.18.51,3.58,3.58,0,0,0,.63.9A7.86,7.86,0,0,0,31,60.2a16.31,16.31,0,0,0,2.16,1c.74.29,1.5.55,2.27.78a43.75,43.75,0,0,0,4.69,1.1c.79.15,1.59.29,2.39.41s1.59.22,2.39.31l-.32.2.4-1,.4-1,.21-.51.21-.51.21-.5.21-.5.22-.5c.07-.17.14-.34.22-.5l.23-.5c.07-.17.15-.33.23-.5l.47-1L48,56v.17l-.47-.89-.46-.91c-.15-.3-.29-.61-.44-.91L46.47,53l-.22-.45c-.07-.16-.13-.31-.21-.47l-.2-.46-.41-.92L45,49.75Zm0,0,.44.91.45.9.45.91.46.9.23.44.23.45.48.89.49.88.5.88,0,.08,0,.1-.45,1-.44,1c-.07.17-.14.33-.2.5l-.22.5c-.07.17-.13.34-.2.5l-.21.51-.2.5-.2.51-.19.51-.2.5-.75,2-.08.22-.24,0c-1.62-.16-3.23-.37-4.84-.66a43.89,43.89,0,0,1-4.77-1.1,23.64,23.64,0,0,1-2.33-.79,17,17,0,0,1-2.24-1.06,9.08,9.08,0,0,1-1.06-.68,7,7,0,0,1-1-.85,4.13,4.13,0,0,1-.74-1.08,3.55,3.55,0,0,1-.22-.65l0-.17,0-.18v-.33a3.07,3.07,0,0,1,.35-1.3,4.7,4.7,0,0,1,.76-1.05,9.16,9.16,0,0,1,2-1.55,19.62,19.62,0,0,1,2.19-1.12c.75-.33,1.52-.62,2.29-.88s1.55-.5,2.33-.71,1.58-.4,2.37-.58,1.59-.33,2.39-.47S43.85,48.94,44.66,48.82Z"/><path class="cls-3" d="M50.77,60.29c-.88-1.41-1.7-2.82-2.47-4.21-1.35,2.78-2.51,5.48-3.46,8,2.71.29,5.75.47,8.84.51C52.73,63.23,51.69,61.79,50.77,60.29Z"/><path class="cls-3" d="M50.77,60.29l-1.28-2.08-1.28-2.08h.18l-.44,1-.42,1-.41,1-.4,1-.78,2-.38,1-.39,1-.29-.47,1.1.11,1.09.11,2.2.21.55,0,.55,0,1.1.09,1.11.07,1.1.07-.09.17-.7-1.1L52.53,63l-.36-.54c-.23-.37-.47-.73-.71-1.1Zm0,0,.7,1.1.75,1.07.38.52.39.53.78,1.05.12.16h-.21l-1.11,0H49.24l-1.11,0c-.19,0-.37,0-.55,0l-.56,0-.55,0-.56,0-1.11-.11L44.51,64c.13-.34.26-.68.4-1s.27-.68.41-1l.22-.51c.08-.16.15-.33.23-.5l.23-.5c.07-.16.15-.33.23-.49l.47-1,.5-1,.5-1,.51-1,.09-.16.08.16.56,1.08.59,1.07.61,1.06C50.34,59.6,50.56,59.94,50.77,60.29Z"/><path class="cls-3" d="M57.59,40.57c-.55-.61-1.1-1.21-1.67-1.8S54.78,37.59,54.2,37,53,35.88,52.42,35.34s-1.21-1.09-1.84-1.59-1.29-1-1.95-1.46a18,18,0,0,0-2.06-1.22L46.43,31l-.13-.06L46,30.82l-.28-.11-.27-.11a7.17,7.17,0,0,0-1.1-.3,3.35,3.35,0,0,0-1.09,0l-.13,0-.12,0-.13,0-.12,0-.11,0-.12.06-.11.06,0,0s0,0,0,0h0l-.06.05a1.05,1.05,0,0,0-.22.17A1.33,1.33,0,0,0,42,31l-.08.09,0,.05,0,.06c0,.07-.1.14-.14.22a3.77,3.77,0,0,0-.38,1,8.36,8.36,0,0,0-.2,2.3,17.47,17.47,0,0,0,.25,2.38c.07.39.14.79.23,1.18,0,.2.08.4.12.6s.09.39.14.58c.2.79.41,1.57.65,2.34s.5,1.55.78,2.31c.13.38.27.76.41,1.15l.44,1.14q.45,1.13.93,2.25l-.47-.25,1-.15.51-.07.51-.07,1-.12.51-.06.51-.06,1-.09.51-.05.51,0,2-.13-.22.14c.39-.61.79-1.23,1.19-1.83.1-.16.21-.3.31-.45l.31-.45.62-.9c.1-.15.21-.3.32-.44l.32-.44.65-.88.33-.44.34-.42Zm0,0L56.4,42.39l-.58.92-.29.46c-.09.16-.2.31-.29.47l-.56.93-.28.46c-.1.16-.2.31-.28.47-.36.63-.73,1.25-1.1,1.88l.09.06-.31.07-2,.24-2,.26-.5.07-.51.08-1,.15-.51.09-.5.08-1,.17-.34.06L44.25,49c-.33-.75-.67-1.51-1-2.27s-.63-1.52-.92-2.3-.55-1.56-.8-2.34-.48-1.59-.68-2.39c-.06-.2-.1-.41-.15-.61s-.1-.4-.14-.61c-.08-.41-.16-.82-.22-1.23a17.35,17.35,0,0,1-.25-2.51,9.37,9.37,0,0,1,.24-2.57,4.39,4.39,0,0,1,.51-1.26c0-.1.13-.2.19-.3l.05-.07.06-.07.12-.13a3.44,3.44,0,0,1,.27-.27,2.61,2.61,0,0,1,.27-.2l.06-.05h0l0,0,0,0,.16-.09.17-.08.17-.06a.85.85,0,0,1,.17-.06l.17,0,.18,0,.17,0a4.4,4.4,0,0,1,1.36.05,9,9,0,0,1,2.41.91,18.52,18.52,0,0,1,2.11,1.36c.67.49,1.31,1,1.93,1.56s1.22,1.12,1.8,1.7,1.14,1.19,1.69,1.8,1.08,1.24,1.6,1.87l.39.48.39.48C57.1,39.91,57.34,40.24,57.59,40.57Z"/><path class="cls-3" d="M58.43,71.07C64.87,78.87,71,83.22,73.84,81.45s1.73-9-2.27-18.18c-2.67.46-5.45.81-8.51,1C61.57,66.75,59.93,69,58.43,71.07Z"/><path class="cls-3" d="M58.43,71.07c.53.6,1.08,1.2,1.63,1.79s1.11,1.18,1.67,1.75,1.15,1.13,1.75,1.68,1.19,1.08,1.81,1.59,1.26,1,1.91,1.46a17.15,17.15,0,0,0,2,1.25,9.31,9.31,0,0,0,1.07.49,7.9,7.9,0,0,0,1.11.35,4.27,4.27,0,0,0,1.12.09,2.32,2.32,0,0,0,1-.29l.11-.06.13-.08.09-.08.1-.08a2.8,2.8,0,0,0,.35-.41,3.8,3.8,0,0,0,.46-1,8,8,0,0,0,.28-2.3,17.1,17.1,0,0,0-.21-2.36c-.12-.79-.28-1.57-.46-2.35A44.43,44.43,0,0,0,73,67.89c-.27-.75-.54-1.51-.84-2.26s-.6-1.49-.92-2.23l.34.18-1.06.16-1.07.15L69,64l-.54.07-.53.06-.53.06-.54.06-.53.05-1.07.1-1.08.08-1.07.07.16-.1-.56.87-.58.85-.58.84-.3.42-.3.41-.3.42-.31.41-.62.82-.62.81Zm0,0,1.15-1.69.58-.85.56-.86.28-.42.28-.43.55-.86.54-.87.52-.88,0-.08H63L64.11,64l1.06-.12,1.06-.12.53-.07.53-.07.53-.07.53-.07.53-.08.53-.08L71.52,63l.23,0,.1.22c.66,1.48,1.28,3,1.83,4.52a44.85,44.85,0,0,1,1.42,4.67c.19.8.35,1.6.47,2.41a17,17,0,0,1,.2,2.47,10.59,10.59,0,0,1-.07,1.25,6.75,6.75,0,0,1-.25,1.25,3.9,3.9,0,0,1-.57,1.18,3.1,3.1,0,0,1-.44.51l-.13.11-.15.11-.13.09h0l0,0-.08,0a3.1,3.1,0,0,1-1.29.34A4.6,4.6,0,0,1,71.29,82,9.26,9.26,0,0,1,69,81.09a18.68,18.68,0,0,1-2.07-1.33c-.65-.49-1.28-1-1.9-1.54s-1.2-1.1-1.77-1.67-1.14-1.16-1.68-1.76S60.47,73.58,60,73,58.93,71.7,58.43,71.07Z"/><path class="cls-3" d="M65.49,59.89c-.83,1.53-1.69,3-2.55,4.43,3-.23,6-.59,8.63-1-1.08-2.46-2.37-5.06-3.85-7.72C67,57,66.28,58.43,65.49,59.89Z"/><path class="cls-3" d="M65.49,59.89c-.21.37-.42.74-.62,1.12l-.61,1.12-.62,1.12L63,64.38l-.1-.16,2.15-.28.54-.08.54-.08,1.07-.16.54-.09.53-.08,1.07-.17.54-.09.53-.09,1.07-.18-.27.49-.44-1-.21-.49c-.07-.16-.14-.33-.22-.49l-.44-1L69.71,60c-.07-.16-.14-.33-.22-.49l-.45-1L68.81,58c-.07-.16-.15-.32-.23-.48l-.47-1c-.16-.33-.31-.65-.47-1h.17l-.58,1.08-.58,1.08-.58,1.06C65.87,59.17,65.68,59.53,65.49,59.89Zm0,0c.19-.36.38-.72.56-1.08s.38-.72.56-1.09.34-.73.52-1.1l.5-1.11.08-.17.1.16c.18.32.37.62.55.93l.56.93c.09.16.17.32.26.47l.27.47.53,1c.09.15.17.31.25.47l.25.48.5,1c.08.16.15.32.23.49l.23.49.45,1,.2.42-.46.07-1.08.17-.54.08-.54.08-1.09.12-.54.06-.54,0-1.09.09-.55,0-.54,0-2.17.1h-.21l.11-.17.69-1.08.34-.54c.11-.18.23-.36.33-.54.22-.37.44-.74.65-1.11Z"/><path class="cls-3" d="M52.77,47.83q-.5.11-1,.18l-1,.18-2,.36-.5.1-.49.09-1,.17c-.66.13-1.31.24-2,.35l.27-.49.8,1.82.4.92.2.45c.06.15.12.31.19.46l.79,1.82.4.92.39.92c-.2-.27-.38-.55-.56-.83s-.18-.28-.27-.42l-.27-.43c-.08-.14-.17-.28-.25-.43l-.25-.43c-.09-.15-.16-.29-.24-.44l-.24-.44-.46-.89c-.15-.3-.3-.6-.44-.9s-.28-.6-.43-.9l-.41-.91-.19-.42.46-.08,1-.16,1-.15,1-.14,1-.1.5,0,.51-.05.5,0,.5,0,.51,0h1.51Z"/><path class="cls-3" d="M71,48c3.61-9.51,4.37-17,1.4-18.63S63.6,32.48,57.59,40.62c1.72,2.08,3.47,4.22,5.18,6.75C65.67,47.41,68.44,47.77,71,48Z"/><path class="cls-3" d="M71,48c.26-.77.51-1.55.76-2.33s.48-1.56.7-2.34.41-1.58.6-2.37.35-1.59.49-2.39.24-1.6.32-2.41A17.64,17.64,0,0,0,74,33.79a9,9,0,0,0-.38-2.33,3.64,3.64,0,0,0-.49-1,2.26,2.26,0,0,0-.78-.73l0,0h0l-.07,0-.12,0-.12-.05-.13,0a2.34,2.34,0,0,0-.54-.09,3.87,3.87,0,0,0-1.11.13A8.12,8.12,0,0,0,68,30.5a16.6,16.6,0,0,0-2,1.38c-.62.5-1.23,1-1.82,1.59A46.44,46.44,0,0,0,60.89,37c-.53.61-1,1.24-1.56,1.87s-1,1.28-1.49,1.93v-.38l.67.83.67.84.65.84.33.42.32.42.32.43.32.43.31.43c.11.14.21.29.31.43l.61.88.59.89-.16-.09,1,0,.52,0,.52,0,.51.05.52,0,.51,0,.52.05.51.07.51.06,1,.13Zm0,0L69,47.88l-1-.08-1-.08-.51,0-.51,0-.52,0-.51,0-1-.08H62.65l-.66-.9-.63-.85L61,45.35l-.33-.42c-.1-.15-.22-.28-.32-.42l-.33-.42-.33-.41-.34-.41-.67-.82-1.36-1.63-.16-.19.15-.19c1-1.33,2-2.63,3-3.88A47.83,47.83,0,0,1,63.75,33a24.25,24.25,0,0,1,1.87-1.63,17.44,17.44,0,0,1,2-1.43,9.18,9.18,0,0,1,2.33-1,4.39,4.39,0,0,1,1.31-.13,3.87,3.87,0,0,1,.68.12l.16.05.17.07.15.07.07,0h0v0h0l0,0a2.94,2.94,0,0,1,1,.94,4.55,4.55,0,0,1,.56,1.18,9,9,0,0,1,.36,2.5,18.8,18.8,0,0,1-.13,2.49c-.1.82-.23,1.63-.4,2.43s-.36,1.61-.57,2.4-.45,1.57-.71,2.35-.52,1.55-.81,2.32S71.32,47.28,71,48Z"/><path class="cls-3" d="M62.77,47.51c-1.71-2.53-3.46-4.86-5.18-6.94-1.61,2.19-3.23,4.54-4.82,7.17,1.63-.12,3.29-.14,5-.19s3.38-.07,5,0"/><path class="cls-3" d="M62.77,47.51l-.67-.86-.66-.85L60.1,44.1l-.34-.42-.34-.42-.68-.84-.69-.83-.7-.82h.5l-.63.87-.61.89L56.3,43,56,43.4l-.3.45-.3.45-.6.89-.29.45-.3.46-.57.9-.57.92-.31-.51L54,47.35l1.25,0H59l1.25,0,1.25.06,1.25.09-1.25.06c-.42,0-.83,0-1.25.06L59,47.7l-1.25.08-.63,0-.62,0-1.25.06L54,48l-1.24.1-.63.05.32-.56c.18-.31.37-.62.56-.93l.57-.92c.1-.15.2-.3.29-.46l.29-.45c.2-.31.41-.61.61-.91l.31-.44.3-.45.31-.44.32-.45.64-.87.65-.87.25-.32.24.31c.23.28.46.57.68.86l.65.86.32.44c.11.15.22.29.32.44l.32.44.31.45.61.89.59.91c.2.3.39.61.58.92S62.59,47.2,62.77,47.51Z"/><path class="cls-3" d="M53.49,64.62c.23.25.45.51.66.77l.66.78,1.3,1.56.32.38.33.39.65.78,1.29,1.56h-.56l.6-.81.59-.82.6-.82.29-.4c.1-.14.21-.27.3-.41l.59-.82c.2-.28.41-.55.61-.82l.3-.41c.09-.14.19-.28.29-.41s.41-.54.63-.81c-.15.31-.3.61-.46.91s-.16.31-.23.46l-.24.45-.25.44-.25.44c-.17.29-.35.58-.52.88l-.27.43-.28.43-.55.85L59.6,70l-.29.42-.6.83-.26.37-.3-.36-.64-.79-.63-.8-.61-.81-.6-.83-.29-.41-.29-.42-.28-.43c-.1-.14-.19-.28-.28-.42l-.27-.44L54,65.5C53.82,65.21,53.65,64.92,53.49,64.62Z"/></g></g></svg>