<svg xmlns="http://www.w3.org/2000/svg" viewBox="0 0 112.36 119.07"><defs><style>.cls-1{fill:#fff;}</style></defs><title>Asset 3</title><g id="Layer_2" data-name="Layer 2"><g id="Camada_1" data-name="Camada 1"><path class="cls-1" d="M23.51,46.1c.16,0,.22-.05.14-.06a.68.68,0,0,0-.28,0C23.29,46.12,23.36,46.12,23.51,46.1Z"/><path class="cls-1" d="M23,46.22s-.09,0-.15,0,0,0,.05,0S23,46.24,23,46.22Z"/><path class="cls-1" d="M7.22,56.69a.08.08,0,0,0,.09.06s.08,0,.07-.09a.06.06,0,0,0-.08-.06A.08.08,0,0,0,7.22,56.69Z"/><path class="cls-1" d="M58.06,48a1.57,1.57,0,0,0-.37.05c-.09,0,0,0,.19,0S58.16,48,58.06,48Z"/><path class="cls-1" d="M65.13,46.67c-.07,0,0,0,.15,0s.21,0,.14-.06A.73.73,0,0,0,65.13,46.67Z"/><path class="cls-1" d="M66.35,46.56a1.09,1.09,0,0,0-.36.06c-.1,0,0,0,.18,0S66.45,46.56,66.35,46.56Z"/><path class="cls-1" d="M39.94,51.75c-.68.11-1,.18-.76.18A9.76,9.76,0,0,0,41,51.61,6.65,6.65,0,0,0,39.94,51.75Z"/><path class="cls-1" d="M58.69,47.83c-.07,0,0,0,.15,0s.22-.05.14-.06A.73.73,0,0,0,58.69,47.83Z"/><path class="cls-1" d="M60.54,47.47a.54.54,0,0,0-.24,0c-.07,0,0,0,.11,0S60.6,47.48,60.54,47.47Z"/><path class="cls-1" d="M91.71,33.05c-.53.11-1.86.35-2.94.54s-2.26.4-2.61.47-1.42.28-2.38.46c-1.75.32-2.27.43-3.21.64l-1.85.41c-.74.16-1.39.31-1.44.34s-.79.2-1.63.37-1.87.41-2.29.52l-2,.46-2.29.51c-.57.14-2.14.45-3.49.71L62.66,39c-.27.06-2.12.38-4.11.72a85,85,0,0,0-9.55,2c-.48.14-1.81.49-3,.77s-2.13.55-2.2.58l-.8.2-2.36.52-2.44.54-2,.43c-.68.14-1.7.32-2.25.39a4.26,4.26,0,0,0-1,.19.59.59,0,0,1-.22.15c-.13.07-.18.05-.19,0s-.06-.11-.23,0-1.1.24-2.19.43-2.31.43-2.73.53-1.34.26-2.05.36l-2.6.38a7.8,7.8,0,0,1-1.32.14,10.67,10.67,0,0,0-1.8.24c-1.55.26-1.77.29-1.68.18a1.38,1.38,0,0,1,.38-.25c.15-.06.22-.11.15-.1a3.63,3.63,0,0,0-.73.3,4.93,4.93,0,0,1-1.63.44c-1.9.3-6.72,1.34-6.78,1.46a1.45,1.45,0,0,1-.56.69c-.34.23-.36.3-.1.61s.35.31,1,.33a3.42,3.42,0,0,1,.66.08,6.46,6.46,0,0,0,1.53-.15c1.08-.16,1.38-.19,1.42-.11s0,.09-.31.1-.32,0-.23.06a.71.71,0,0,0,.37,0,.57.57,0,0,1,.34,0,5.2,5.2,0,0,0,1.33-.12c1-.16,1.21-.17,1.19-.08s.14.12.24,0a4.8,4.8,0,0,1,1.07-.29c.77-.16,1-.18.89-.1s0,.08.32,0a9.29,9.29,0,0,1,2.12-.22,3.7,3.7,0,0,1-.9.27c-.94.21-1.3.28-3.17.59-1.14.19-1.15.19-1.11.36l0,.16-2.6.54c-2.93.61-3.95.89-4.33,1.2-.13.12-.18.18-.11.15a13.21,13.21,0,0,1,2.69-.81l1.48-.33c1.33-.29,5.64-.92,6.34-.93A12.87,12.87,0,0,0,21,51.36l.63-.09v.29c0,.25,0,.29-.24.34a4.73,4.73,0,0,1-.94.07c-.49,0-.73,0-.79.09a3.28,3.28,0,0,1-1,.23c-.64.09-1,.16-1,.21s.07.07.15.06l2.23-.33,2.09-.31.24.33a.68.68,0,0,0,.66.38A28.85,28.85,0,0,0,27,52.26a5.93,5.93,0,0,1,2.22-.11c0,.05-.21.14-.67.24a18.18,18.18,0,0,1-2.89.42c.05-.08-.35-.09-.43,0a10.4,10.4,0,0,1-2.42.6c-.55.08-1.58.29-2.29.44s-2.46.51-3.89.77l-2.84.54c-.35.09-.33.16.06.17a50.55,50.55,0,0,0,5-.83,12.51,12.51,0,0,1,1.31-.28A8.28,8.28,0,0,0,21.2,54c.58-.18,5.24-.94,5.35-.88a9.38,9.38,0,0,0,2.18-.29c.27-.08.29-.07.31.1s0,.2,0,.21c-.41.11-1.16.25-3.19.6-2.37.41-2.85.52-2.58.61a16.78,16.78,0,0,0,2.34-.12h0c.9-.1,5.88-.89,5.85-.93s.72-.15,1.63-.3a30.35,30.35,0,0,0,4.81-1,28.92,28.92,0,0,1,4-1c.36-.07,1.22-.26,1.93-.43l1.4-.3c.07,0,.55-.13,1.08-.28l3.55-1c.32-.09,1-.24,1.39-.33s1.31-.3,1.92-.46c1.69-.42,3.5-.77,8.49-1.61a17.56,17.56,0,0,1,2.54-.11,5,5,0,0,0,1.19-.07,7.23,7.23,0,0,1,.9-.1,4.09,4.09,0,0,0,.71,0,2.24,2.24,0,0,1,.68,0,1.51,1.51,0,0,0,.67.14.17.17,0,0,1,.19.06c0,.06.32,0,1.2-.19,1-.24,4.22-.86,4.61-.9a15.73,15.73,0,0,1,2.41-.11,15.49,15.49,0,0,1-1.52.34,12.1,12.1,0,0,0-1.36.3c-.06.07,3.17-.54,3.77-.71.29-.09.92-.24,1.4-.34,1-.21,2.35-.54,3.22-.78.33-.09.81-.2,1.08-.24a8.31,8.31,0,0,0,1-.24l1-.32c.28-.09.87-.25,1.31-.36L88,42.63c.28-.09.89-.25,1.35-.37s1-.28,1.28-.35.67-.2,1-.27l2-.47c.84-.19,1.74-.42,2-.5a15.26,15.26,0,0,1,1.56-.36,9,9,0,0,0,2.24-.55c0-.13.43-.35,1-.49l.91-.23c.38-.1.54-.2.25-.15-.1,0-.18,0-.18,0s.14-.1.31-.12.32-.09.31-.16a.27.27,0,0,1,.17-.2.47.47,0,0,0,.21-.15,3.78,3.78,0,0,1,.92-.3,4.57,4.57,0,0,0,.94-.29,5.2,5.2,0,0,1,.88-.29c1.21-.32,1.65-.49,1.83-.7s.34-.23,1-.4.8-.23.78-.31a.62.62,0,0,1,0-.28c0-.16.08-.2.41-.25a2,2,0,0,0,1.15-.48.75.75,0,0,1,.37-.22c.27,0,.69-.26.68-.35s.5-.37.71-.35a.37.37,0,0,0,.36-.43c0-.14-.33-.2-.45-.08a4.24,4.24,0,0,1-1.37.3,1.17,1.17,0,0,1,.24-.43c.31-.4.3-.6,0-.34s-.51.26-2.37.61c-1.14.22-1.27.23-1.2.11a.88.88,0,0,1,.3-.21c.11,0,.18-.09.16-.11a1.34,1.34,0,0,0-.33.1c-.34.15-.49.1-.58-.19s.09-.5.89-.72a5.79,5.79,0,0,0,.85-.29c.15-.11.16-.25,0-.23s.18-.25.38-.28.18-.05.08-.13a.49.49,0,0,0-.36-.06c-.46.07-.84,0-.94-.08-.28-.33.16-.92.88-1.19l.39-.15-.27,0a1.89,1.89,0,0,1-.49-.17c-.18-.09-.31-.09-1,0-2,.38-3,.6-3.87.83-.52.14-2.56.54-4.66.92C94.83,32.45,93.39,32.71,91.71,33.05Zm-74,18.4-1.73.15c-.21,0-.38,0-.39,0A40.41,40.41,0,0,1,20.66,51C21.45,51,19.15,51.34,17.67,51.45Zm3.4-1.17c-.15.12-.39.16-.4.06s.11-.09.25-.11S21.16,50.21,21.07,50.28Zm13.66-2a1.53,1.53,0,0,1,.41-.07h0c.1,0,0,0-.22.06S34.61,48.29,34.73,48.25Zm-5.39,4.83c-.19,0-.2,0-.09-.1s.28-.14.29,0S29.45,53.06,29.34,53.08Zm4.58-.91c-3.39.65-4.1.75-4.34.58a63.94,63.94,0,0,1,7.16-1.29A15.29,15.29,0,0,1,33.92,52.17ZM41.75,47a11.15,11.15,0,0,1-2.41.5h0l-2.57.48c-.68.13-1.12.19-1,.13s1.18-.29,2.37-.53S40.61,47,41,47C41.64,46.8,41.88,46.8,41.75,47Zm1.42-.28-.63.14c-.32.09-.51.1-.55,0s0-.09.16-.12l.69-.14c.26-.06.46-.07.47,0S43.25,46.67,43.17,46.68Zm1.07-.24c-.36.14-.76.2-.77.12s.21-.11.5-.15S44.43,46.36,44.24,46.44Zm5.85-1.71c0,.1-.58.25-.78.21s0,0,.19-.09a3.28,3.28,0,0,0,.45-.12c.07,0,.13,0,.14,0Zm.36-.06c-.18,0-.24,0-.15,0a1.39,1.39,0,0,1,.33,0h0C50.71,44.62,50.62,44.65,50.45,44.67Zm5.79-1.21c-.23,0-1.27.25-2.3.49h0l-2.37.55a1.35,1.35,0,0,1-.55,0A6.5,6.5,0,0,1,52.84,44c2.81-.65,3.8-.82,3.82-.64S56.48,43.42,56.24,43.46Zm2.9-.55-1.8.37c-.44.11-.68,0-.31-.1a26.33,26.33,0,0,1,3.54-.62A9,9,0,0,1,59.14,42.91Zm8.18-1.56c-.14,0-.18,0-.11,0a.43.43,0,0,1,.24,0C67.51,41.31,67.45,41.33,67.32,41.35Zm13.82-2.52h0a7.51,7.51,0,0,1-1.39.33c-1.53.28-1.39.16.28-.25C81.07,38.66,81.29,38.65,81.14,38.83Z"/><path class="cls-1" d="M12.23,52s.08.06.18.05.14-.06.1-.1a.23.23,0,0,0-.17-.05C12.28,51.88,12.23,51.92,12.23,52Z"/><path class="cls-1" d="M12.5,51.18a.53.53,0,0,0-.24,0c-.08,0,0,0,.1,0S12.56,51.19,12.5,51.18Z"/><path class="cls-1" d="M6.68,50.46c.19,0,.22,0,.25-.09a1,1,0,0,1,.46-.26L7.81,50l-.4.06C7,50.08,6.44,50.41,6.68,50.46Z"/><path class="cls-1" d="M7.23,53.28a.74.74,0,0,0,.31-.13,14.48,14.48,0,0,1,3-.81,6.06,6.06,0,0,0,1.2-.29,22.75,22.75,0,0,0-3.39.71c-.33.12-.73.29-.91.38S7.15,53.29,7.23,53.28Z"/><path class="cls-1" d="M18,52.16c.32-.07.26-.08-.34,0a9.49,9.49,0,0,0-2.1.31,2.12,2.12,0,0,0,.65,0h0A16.78,16.78,0,0,0,18,52.16Z"/><path class="cls-1" d="M19.48,47.06c-.45.16,1.08-.15,1.6-.33.31-.1.22-.09-.45,0C20.17,46.87,19.65,47,19.48,47.06Z"/><path class="cls-1" d="M22.37,54.36s-.1,0-.16,0,0,.05.05,0S22.4,54.38,22.37,54.36Z"/><path class="cls-1" d="M21.86,54.43a7.51,7.51,0,0,0-1.28.17,2.88,2.88,0,0,0,.59,0C21.68,54.55,22.28,54.41,21.86,54.43Z"/><path class="cls-1" d="M87.8,64.44c-.15,0-.22,0-.14,0a.66.66,0,0,1,.27-.06C88,64.38,88,64.41,87.8,64.44Z"/><path class="cls-1" d="M88.31,64.38a.17.17,0,0,1,.15,0c.07,0,.05,0,0,.06S88.29,64.41,88.31,64.38Z"/><path class="cls-1" d="M106.09,68.61a.08.08,0,1,1-.09-.06A.08.08,0,0,1,106.09,68.61Z"/><path class="cls-1" d="M55.46,78.78a1.35,1.35,0,0,1,.36-.08c.1,0,0,0-.18.07S55.36,78.82,55.46,78.78Z"/><path class="cls-1" d="M48.38,80.07c.08,0,0,0-.14.07s-.22,0-.14,0A.68.68,0,0,1,48.38,80.07Z"/><path class="cls-1" d="M47.19,80.41a1.17,1.17,0,0,1,.36-.08c.1,0,0,0-.18.07S47.09,80.45,47.19,80.41Z"/><path class="cls-1" d="M73.68,75.77c.67-.14,1-.18.76-.11a9.94,9.94,0,0,1-1.83.37A7,7,0,0,1,73.68,75.77Z"/><path class="cls-1" d="M54.8,78.84c.08,0,0,0-.13.07s-.22,0-.15,0A.94.94,0,0,1,54.8,78.84Z"/><path class="cls-1" d="M53,79.17a.57.57,0,0,1,.24-.06c.08,0,0,0-.09.06S52.9,79.2,53,79.17Z"/><path class="cls-1" d="M12.56,78.05c-2.1.41-4.15.76-4.67.82C7,79,6,79.11,4,79.48c-.68.12-.81.16-1,.33a2,2,0,0,1-.42.33l-.25.14h.42c.75,0,1.32.4,1.15.81a1.44,1.44,0,0,1-.88.41.66.66,0,0,0-.33.19c-.06.12,0,.13.12.09s.63.1.44.14-.1.16.08.21a5.28,5.28,0,0,0,.88,0c.81-.08,1,0,1,.37s-.14.41-.5.39a.85.85,0,0,0-.35,0s.07,0,.19,0A.61.61,0,0,1,5,83c.11.08,0,.11-1.16.32-1.87.34-2.16.38-2.42.29s-.32.05.08.32c.2.14.35.28.34.32a4,4,0,0,1-1.38.21c-.15-.07-.43.1-.41.25A.34.34,0,0,0,.46,85c.2-.1.74,0,.76.08s.48.14.75.08a.69.69,0,0,1,.41.08,1.9,1.9,0,0,0,1.22,0c.33-.07.39-.06.45.08a.63.63,0,0,1,.07.27c0,.09.18.09.82,0s.87-.08,1,0,.7.13,1.94,0a5.7,5.7,0,0,1,.9,0,4.89,4.89,0,0,0,1-.07,3.91,3.91,0,0,1,.94,0,.5.5,0,0,0,.25.07c.11,0,.2.07.21.13s.11.08.34,0,.32,0,.33,0-.06.09-.16.11c-.29.06-.11.1.27,0l.94-.11c.56-.07,1,0,1.05.11a8.43,8.43,0,0,0,2.28-.28c.59-.11,1.3-.21,1.57-.23s1.19-.13,2-.25l2.07-.28a9,9,0,0,1,1-.1c.25,0,.84-.07,1.31-.12s1.09-.13,1.38-.15.9-.08,1.35-.14l1.34-.13,1.07-.08a8.42,8.42,0,0,0,1-.14,10.32,10.32,0,0,1,1.08-.16c.89-.08,2.28-.26,3.27-.43.49-.07,1.13-.16,1.42-.18.62,0,3.85-.64,3.78-.69a11.51,11.51,0,0,0-1.38.2c-.72.13-1.41.24-1.53.24a15.4,15.4,0,0,1,2.32-.78c.38-.1,3.56-.66,4.62-.81.9-.12,1.18-.18,1.19-.25s.08-.11.17-.13a1.63,1.63,0,0,0,.6-.38,2.87,2.87,0,0,1,.65-.24,4.64,4.64,0,0,0,.68-.23,6.3,6.3,0,0,1,.88-.23,5,5,0,0,0,1.15-.37,19,19,0,0,1,2.45-.81c5-1,6.77-1.34,8.49-1.54l2-.27c.44-.07,1.08-.15,1.42-.19l3.63-.36c.53-.05,1-.11,1.09-.13l1.42-.21,1.94-.3a27.64,27.64,0,0,1,4-.47,31.76,31.76,0,0,0,4.83-.82,14.31,14.31,0,0,1,1.63-.31s4.93-1,5.81-1.24h0a19.24,19.24,0,0,0,2.27-.73c.22-.19-.27-.12-2.62.35-2,.4-2.78.54-3.2.59,0,0-.08-.08-.09-.18s0-.19.27-.21a10.39,10.39,0,0,0,2.15-.52c.09-.1,4.72-1.06,5.31-1.1a9.67,9.67,0,0,0,1.09-.19,10.3,10.3,0,0,1,1.31-.2c.63,0,4.5-.85,5-1s.36-.21,0-.17c-.12,0-1.4.24-2.83.51s-3.2.58-3.91.68-1.74.29-2.29.41a10.76,10.76,0,0,1-2.47.31c-.09-.05-.46.1-.4.16a18.09,18.09,0,0,1-2.86.65c-.47.07-.7.07-.69,0a6.44,6.44,0,0,1,2.14-.69A29.51,29.51,0,0,0,90,70.49a.81.81,0,0,0,.53-.6l.14-.4L92.69,69l2.21-.5c.08,0,.13-.06.13-.11s-.35,0-1,.15a3.32,3.32,0,0,1-1.06.16c-.07,0-.3,0-.77.2a5.71,5.71,0,0,1-.92.28c-.21,0-.24,0-.31-.25l-.08-.27.62-.14A14.41,14.41,0,0,0,93.62,68c.66-.24,4.93-1.2,6.27-1.41l1.5-.23a12.68,12.68,0,0,1,2.77-.2c.08,0,0,0-.15-.1-.43-.17-1.48-.06-4.42.42L97,66.88v-.17c0-.17,0-.17-1.15.06-1.86.38-2.22.45-3.17.58a3.58,3.58,0,0,1-.92.08,8.91,8.91,0,0,1,2.07-.56c.34,0,.41-.06.3-.11s.1-.1.88-.23a5.1,5.1,0,0,1,1.09-.11c.14.08.3,0,.23-.09s.16-.14,1.16-.35a5.63,5.63,0,0,0,1.29-.37.63.63,0,0,1,.31-.15.82.82,0,0,0,.35-.16c.08-.08,0-.07-.23,0s-.34.1-.32,0,.3-.17,1.37-.41a6.74,6.74,0,0,0,1.5-.41,3.28,3.28,0,0,1,.61-.31c.59-.25.7-.34.84-.68s.13-.44-.26-.54a1.27,1.27,0,0,1-.71-.45,67.47,67.47,0,0,0-6.83,1.07,4.66,4.66,0,0,1-1.67.16,4.29,4.29,0,0,0-.77,0c-.07,0,0,0,.16,0a1,1,0,0,1,.43.1c.12.07-.09.12-1.64.43a13.84,13.84,0,0,0-1.78.42,5.84,5.84,0,0,1-1.29.35l-2.57.58c-.7.17-1.63.35-2,.41s-1.65.27-2.74.49-2.07.38-2.19.38-.22,0-.21.13,0,.12-.17.11a.53.53,0,0,1-.24-.07,4.25,4.25,0,0,0-1,.19c-.55.14-1.56.34-2.25.45l-2,.32-2.46.37-2.39.36c-.38.06-.74.1-.81.1s-1.08.11-2.24.25-2.52.3-3,.34a84.14,84.14,0,0,0-9.6,1.6c-2,.4-3.83.77-4.09.81l-2.94.53c-1.35.24-2.93.51-3.51.59l-2.3.34c-.69.11-1.6.23-2,.29s-1.46.2-2.31.33-1.58.25-1.64.24-.72.09-1.46.2l-1.87.29c-.95.13-1.48.22-3.23.54l-2.37.43-2.62.49c-1.08.22-2.4.47-2.93.56C17.82,77,16.39,77.31,12.56,78.05Zm79.26-10a40.82,40.82,0,0,1,5-1.33s-.16.11-.37.16-1,.27-1.68.49C93.33,67.85,91.07,68.38,91.82,68.1Zm-.47-.67c.15,0,.27,0,.28,0s-.23.14-.4.08S91.16,67.47,91.35,67.43ZM77.53,70.62c-.22,0-.33.06-.23,0h0a1.67,1.67,0,0,1,.4-.09C77.83,70.54,77.75,70.58,77.53,70.62Zm6.36,2.55c0-.14.13-.2.28-.11s.12.1-.06.14S83.89,73.21,83.89,73.17Zm-7.26,1.16A65.09,65.09,0,0,1,83.79,73c-.18.25-.89.42-4.28,1A14.31,14.31,0,0,1,76.63,74.33ZM71.4,71.59c.39-.06,1.69-.27,2.89-.48s2.26-.36,2.38-.35-.31.11-1,.24l-2.57.48h0a12.58,12.58,0,0,1-2.42.4C70.52,71.77,70.75,71.68,71.4,71.59Zm-2.29.49s.19-.11.45-.15l.69-.11q.23,0,.18.06c0,.06-.2.11-.53.15l-.63.09C69.18,72.14,69.11,72.12,69.11,72.08Zm-.68.07c.29-.07.51-.09.51,0s-.38.17-.76.16C68,72.27,68,72.24,68.43,72.15Zm-6.25.63s0-.07.12-.06a1.83,1.83,0,0,0,.46,0c.22,0,.29,0,.21,0s-.78.18-.79.09Zm-.55.08h0a.76.76,0,0,1,.32-.07c.1,0,0,0-.14.06S61.55,72.89,61.63,72.86Zm-6.08,1c0-.18,1-.38,3.81-.78a6.59,6.59,0,0,1,1.88-.11,1.35,1.35,0,0,1-.54.15l-2.4.33h0c-1,.16-2.09.32-2.32.38A.83.83,0,0,1,55.55,73.83Zm-3.92.67a30.28,30.28,0,0,1,3.53-.69c.38,0,.18.16-.27.21l-1.81.3A7.73,7.73,0,0,1,51.63,74.5Zm-6.88,1.3a.45.45,0,0,1,.24,0c.08,0,0,0-.09.06S44.7,75.83,44.75,75.8ZM32.16,78.1c1.7-.22,1.86-.16.34.12a6.67,6.67,0,0,1-1.42.19h0C30.89,78.29,31.11,78.23,32.16,78.1Z"/><path class="cls-1" d="M100.08,65.93s-.06.09-.15.12-.15,0-.13-.06a.3.3,0,0,1,.15-.11C100,65.87,100.07,65.89,100.08,65.93Z"/><path class="cls-1" d="M99.62,65.28a.52.52,0,0,1,.23,0c.09,0,0,0-.09.06S99.57,65.31,99.62,65.28Z"/><path class="cls-1" d="M105,62.49c-.16.1-.2.11-.26,0a.83.83,0,0,0-.5-.07l-.44,0,.4-.1C104.57,62.24,105.18,62.36,105,62.49Z"/><path class="cls-1" d="M105.18,65.37a.7.7,0,0,1-.32,0,13.58,13.58,0,0,0-3,.3,7.43,7.43,0,0,1-1.21.16,21.26,21.26,0,0,1,3.41-.55,9.16,9.16,0,0,1,1,0C105.18,65.32,105.26,65.35,105.18,65.37Z"/><path class="cls-1" d="M94.7,68.19c-.33,0-.27,0,.3-.15a9.73,9.73,0,0,1,2.09-.47,2.61,2.61,0,0,1-.62.23h0A13.67,13.67,0,0,1,94.7,68.19Z"/><path class="cls-1" d="M91.9,63.89c.46,0-1.08.26-1.62.27-.32,0-.23,0,.44-.12C91.18,64,91.71,63.9,91.9,63.89Z"/><path class="cls-1" d="M91.07,71.88a.19.19,0,0,1,.16,0c.06,0,0,0,0,0S91.05,71.91,91.07,71.88Z"/><path class="cls-1" d="M91.57,71.77a6.15,6.15,0,0,1,1.27-.3,4.6,4.6,0,0,1-.57.2C91.77,71.81,91.17,71.9,91.57,71.77Z"/><path class="cls-1" d="M83.92,20.38c0,.17,0,.24,0,.16a1,1,0,0,0,.07-.3C84,20.15,84,20.22,83.92,20.38Z"/><path class="cls-1" d="M84,19.82a.16.16,0,0,0,0-.16c0-.08,0-.06-.06,0S84,19.85,84,19.82Z"/><path class="cls-1" d="M79.73,0a.1.1,0,0,0-.11.07.09.09,0,0,0,.07.11.1.1,0,0,0,.1-.07A.09.09,0,0,0,79.73,0Z"/><path class="cls-1" d="M67.31,55.1a1.32,1.32,0,0,0,.1-.39c0-.11,0,0-.08.19S67.27,55.2,67.31,55.1Z"/><path class="cls-1" d="M65.72,62.81c0-.09,0,0-.08.15s0,.24,0,.16A1.08,1.08,0,0,0,65.72,62.81Z"/><path class="cls-1" d="M65.32,64.1a1.4,1.4,0,0,0,.1-.39c0-.12,0,0-.09.19S65.28,64.2,65.32,64.1Z"/><path class="cls-1" d="M71.06,35.23c.17-.74.22-1.06.13-.83a10.88,10.88,0,0,0-.44,2A7.78,7.78,0,0,0,71.06,35.23Z"/><path class="cls-1" d="M67.23,55.81c0-.08,0,0-.08.15s0,.24,0,.16A.68.68,0,0,0,67.23,55.81Z"/><path class="cls-1" d="M66.83,57.83a.61.61,0,0,0,.06-.25c0-.09,0,0-.06.09S66.79,57.89,66.83,57.83Z"/><path class="cls-1" d="M68.74,94.78c.12-.58.43-2,.69-3.19s.53-2.46.6-2.85.31-1.55.53-2.59c.4-1.9.51-2.47.68-3.51.05-.32.21-1.24.35-2s.26-1.53.26-1.6.13-.87.3-1.79.36-2.06.43-2.52.22-1.46.36-2.21.32-1.89.43-2.52.43-2.35.73-3.82.6-2.91.65-3.21.51-2.29,1-4.45a91.25,91.25,0,0,0,2-10.47c.06-.54.26-2,.45-3.29s.33-2.37.33-2.45a7.22,7.22,0,0,1,.12-.88c.08-.42.28-1.59.45-2.61s.39-2.23.48-2.69.26-1.45.4-2.2.38-1.85.54-2.44a5.51,5.51,0,0,0,.24-1.14.55.55,0,0,1-.07-.27c0-.16,0-.2.13-.18s.14,0,.14-.22.22-1.22.48-2.39.53-2.52.6-3,.29-1.47.49-2.23.52-2,.7-2.8a7.13,7.13,0,0,1,.42-1.4,13.64,13.64,0,0,0,.51-1.92c.37-1.69.44-1.92.52-1.79a1.38,1.38,0,0,1,.1.48c0,.18,0,.26,0,.18a4.44,4.44,0,0,0,0-.85A4.84,4.84,0,0,1,85,12.12c.49-2,1.44-7.35,1.34-7.46a1.4,1.4,0,0,1-.49-.81c-.1-.43-.16-.47-.59-.32s-.48.26-.77.89a2.87,2.87,0,0,1-.36.65,7.75,7.75,0,0,0-.49,1.63c-.28,1.16-.38,1.47-.48,1.48s-.09-.06,0-.35.11-.34,0-.26a1,1,0,0,0-.19.38.63.63,0,0,1-.17.34,6,6,0,0,0-.44,1.39c-.26,1.09-.34,1.31-.42,1.25s-.19.1-.1.25a5.27,5.27,0,0,1-.15,1.2c-.16.84-.22,1.06-.27.95s-.08-.05-.13.33a9.56,9.56,0,0,1-.67,2.24,4.74,4.74,0,0,1,.11-1c.17-1,.25-1.43.72-3.46.28-1.23.28-1.24.09-1.26l-.19,0L82,7.29c.61-3.21.75-4.36.58-4.84-.07-.18-.12-.26-.11-.17a13.75,13.75,0,0,1-.29,3c-.06.37-.19,1.1-.29,1.64-.26,1.46-1.42,6.1-1.7,6.81a15.82,15.82,0,0,0-.7,2.25l-.17.68-.3-.1c-.27-.09-.3-.14-.27-.36a5.78,5.78,0,0,1,.34-1c.2-.51.28-.77.23-.84a3.71,3.71,0,0,1,.21-1.15c.17-.69.24-1.05.18-1.06s-.1,0-.12.13-.29,1.16-.6,2.4L78.4,17l-.45.13a.84.84,0,0,0-.67.55A29.31,29.31,0,0,0,76,21.77a7,7,0,0,1-.82,2.31c-.07,0-.06-.25,0-.77a19.59,19.59,0,0,1,.79-3.1c.07.08.24-.33.19-.43a11.09,11.09,0,0,1,.4-2.69c.14-.6.37-1.73.5-2.5s.51-2.7.84-4.26.62-3,.64-3.09c.05-.39,0-.39-.2,0a52.34,52.34,0,0,0-1.25,5.41,13.62,13.62,0,0,1-.26,1.44c-.11.48-.22,1-.24,1.18-.06.66-1.22,5.69-1.33,5.78a10.58,10.58,0,0,0-.62,2.33c0,.32,0,.34-.24.29s-.21-.08-.2-.11c.06-.45.23-1.28.72-3.49.58-2.56.66-3.09.45-2.85a21.57,21.57,0,0,0-.87,2.44h0C74.26,20.61,73,26,73,26a12.5,12.5,0,0,1-.37,1.77,33.7,33.7,0,0,0-1,5.27A29.68,29.68,0,0,1,71,37.43c-.07.39-.24,1.34-.37,2.12s-.25,1.47-.27,1.54-.09.62-.17,1.21c-.22,1.78-.4,3.26-.48,4,0,.37-.15,1.06-.24,1.55s-.24,1.44-.34,2.12c-.27,1.88-.67,3.86-1.9,9.25a20,20,0,0,1-1,2.64,5.88,5.88,0,0,0-.42,1.25,6.56,6.56,0,0,1-.28,1,4.9,4.9,0,0,0-.27.74,3,3,0,0,1-.29.71,1.5,1.5,0,0,0-.43.63.25.25,0,0,1-.14.18c-.08,0-.16.31-.32,1.29-.18,1.16-.87,4.62-1,5a16.42,16.42,0,0,1-.91,2.5c0-.13.14-.88.3-1.67a14.31,14.31,0,0,0,.26-1.5,39.47,39.47,0,0,0-.85,4.11c0,.32-.14,1-.24,1.55-.21,1.09-.43,2.6-.55,3.57a11.77,11.77,0,0,1-.2,1.19,9.7,9.7,0,0,0-.18,1.12l-.11,1.18c0,.32-.11,1-.18,1.47s-.15,1.15-.18,1.47-.12,1-.19,1.52-.15,1.16-.17,1.43-.08.75-.13,1.07-.21,1.33-.37,2.26-.29,1.92-.32,2.22-.15,1.07-.28,1.72a9.91,9.91,0,0,0-.37,2.49c.14,0,.19.55.1,1.16,0,.35-.11.81-.14,1-.06.43,0,.62,0,.31,0-.1.08-.18.12-.17s0,.17,0,.36-.05.36,0,.38a.28.28,0,0,1,.13.24.6.6,0,0,0,.07.28,3.82,3.82,0,0,1-.08,1,4.88,4.88,0,0,0-.09,1.07,5.93,5.93,0,0,1-.07,1c-.17,1.36-.18,1.87,0,2.13s.1.43,0,1.15-.1.9,0,.9a.87.87,0,0,1,.31.09c.15.09.17.15.08.51a2.06,2.06,0,0,0,0,1.35.72.72,0,0,1,.07.45c-.07.29,0,.81.07.83s.18.63.08.84a.38.38,0,0,0,.29.52c.16,0,.35-.27.28-.44a4.71,4.71,0,0,1,.26-1.5s.2.16.35.4c.29.46.5.51.36.1s0-.61.37-2.64c.25-1.24.29-1.38.38-1.26a.67.67,0,0,1,.1.37c0,.13,0,.22,0,.21a.77.77,0,0,0,0-.38c0-.4.11-.54.45-.53s.49.28.38,1.16a6.21,6.21,0,0,0-.06,1c0,.19.19.25.23.09s.19.29.14.5,0,.2.1.13a.62.62,0,0,0,.22-.35c.12-.5.31-.87.48-.93.45-.17.89.48.87,1.31l0,.46.17-.27a2.69,2.69,0,0,1,.37-.44c.19-.16.24-.29.39-1,.45-2.19.65-3.31.76-4.25.07-.58.52-2.81,1-5.1C68.05,98.19,68.38,96.63,68.74,94.78ZM80.79,12.53c.25-.78.51-1.6.57-1.82s.15-.4.19-.4A42.35,42.35,0,0,1,80,15.73C79.64,16.55,80.28,14.09,80.79,12.53Zm-.21,3.89c-.07-.19,0-.46.1-.43s0,.14,0,.3S80.61,16.54,80.58,16.42ZM76.93,31.13a1.8,1.8,0,0,1-.11.43h0c0,.1,0,0,0-.25S76.94,31,76.93,31.13Zm-2.78-7.22c0-.2.06-.2.15-.05s0,.33-.13.29S74.12,24,74.15,23.91Zm-1,5c.75-3.7,1-4.47,1.24-4.66a69.12,69.12,0,0,1-1.68,7.79A15.38,15.38,0,0,1,73.16,28.93Zm2.14,9.83a13.63,13.63,0,0,1,.5-2.64h0c.17-.82.44-2.08.59-2.8a3.72,3.72,0,0,1,.28-1.08c0,.13-.19,1.31-.44,2.61s-.52,2.71-.59,3.14C75.52,38.71,75.42,39,75.3,38.76ZM75,40.31a7,7,0,0,0,.11-.7c0-.35.12-.54.19-.57s.09.05.06.21-.09.47-.14.75-.13.5-.18.49S75,40.4,75,40.31Zm-.19,1.18c0-.41.1-.85.2-.83s0,.25-.06.56S74.81,41.71,74.81,41.49Zm-.7,6.58c-.1,0,0-.67.12-.86s.06,0,0,.22a2.4,2.4,0,0,0-.06.52c0,.08,0,.13-.07.12Zm-.09.4c0-.19.08-.26.08-.15a1.12,1.12,0,0,1-.09.35h0C74,48.75,74,48.66,74,48.47Zm-1.18,6.36c.07-.25.27-1.39.46-2.53h0c.2-1.15.39-2.33.44-2.63s.12-.55.18-.57a8,8,0,0,1-.17,2.06c-.51,3.1-.76,4.18-1,4.14C72.76,55.29,72.78,55.08,72.84,54.83ZM72.19,58c.17-.83.34-1.72.38-2,.07-.48.26-.7.24-.27A30.83,30.83,0,0,1,72,59.57,8.82,8.82,0,0,1,72.19,58ZM70.37,66.9c0-.14.06-.18.06-.09a.57.57,0,0,1-.06.25C70.33,67.12,70.33,67.05,70.37,66.9Zm-3.21,15h0a8.79,8.79,0,0,1,.25-1.54c.35-1.66.41-1.48.13.38C67.37,81.93,67.29,82.16,67.16,81.94Z"/><path class="cls-1" d="M82.55,6.78s-.1.06-.13.16,0,.16.06.14a.23.23,0,0,0,.12-.16C82.62,6.85,82.59,6.79,82.55,6.78Z"/><path class="cls-1" d="M83.26,7.33a.53.53,0,0,0,.07-.26c0-.09,0-.05-.07.1S83.22,7.38,83.26,7.33Z"/><path class="cls-1" d="M86.47,1.62c-.12.17-.12.21,0,.29a1,1,0,0,1,.08.55l0,.48.11-.43C86.74,2.06,86.63,1.39,86.47,1.62Z"/><path class="cls-1" d="M83.29,1.2a.73.73,0,0,0,0,.36,14.65,14.65,0,0,1-.4,3.31,6.84,6.84,0,0,0-.2,1.33,23.79,23.79,0,0,0,.69-3.73,8.92,8.92,0,0,0,0-1.06C83.35,1.21,83.31,1.11,83.29,1.2Z"/><path class="cls-1" d="M79.94,12.56c-.07.36,0,.3.16-.32A10.7,10.7,0,0,0,80.67,10a2.27,2.27,0,0,0-.27.67h0A13.53,13.53,0,0,0,79.94,12.56Z"/><path class="cls-1" d="M84.62,15.91c0-.51-.3,1.17-.33,1.76,0,.35,0,.26.14-.47A10.19,10.19,0,0,0,84.62,15.91Z"/><path class="cls-1" d="M75.76,16.33s.06-.1,0-.17,0-.06-.06,0S75.73,16.35,75.76,16.33Z"/><path class="cls-1" d="M75.9,15.79a7.46,7.46,0,0,0,.36-1.38A3.1,3.1,0,0,0,76,15C75.85,15.56,75.75,16.22,75.9,15.79Z"/><path class="cls-1" d="M36.37,100.36c0-.17.06-.24.07-.15a.81.81,0,0,1-.06.31C36.34,100.6,36.34,100.53,36.37,100.36Z"/><path class="cls-1" d="M36.22,100.91a.24.24,0,0,1,0,.18c0,.06-.06,0,0-.07S36.2,100.88,36.22,100.91Z"/><path class="cls-1" d="M24.38,118a.08.08,0,0,1-.07-.1.09.09,0,0,1,.1-.08.09.09,0,0,1,.07.11A.09.09,0,0,1,24.38,118Z"/><path class="cls-1" d="M35.05,61.41a1.29,1.29,0,0,1-.07.4c0,.11,0,0,0-.2S35.05,61.3,35.05,61.41Z"/><path class="cls-1" d="M36.68,53.54c0,.09,0,0,0-.16s0-.24.06-.15A.81.81,0,0,1,36.68,53.54Z"/><path class="cls-1" d="M36.83,52.18a1.29,1.29,0,0,1-.07.4c0,.11,0,0,0-.2S36.83,52.07,36.83,52.18Z"/><path class="cls-1" d="M30.53,81.55c-.13.76-.22,1.08-.21.83a10.75,10.75,0,0,1,.4-2A10.94,10.94,0,0,1,30.53,81.55Z"/><path class="cls-1" d="M35.26,60.71c0,.08,0,0,0-.17s.06-.24.06-.15A.89.89,0,0,1,35.26,60.71Z"/><path class="cls-1" d="M35.7,58.65a.56.56,0,0,1-.05.27c0,.08,0,0,0-.12S35.68,58.58,35.7,58.65Z"/><path class="cls-1" d="M53.8,16.78c.46-2.34.94-4.61,1.11-5.18.27-.94.53-2.06,1-4.29.16-.76.16-.91.06-1.12a2.44,2.44,0,0,1-.17-.56l0-.31-.18.44c-.31.79-1,1.24-1.32.91-.13-.12-.15-.54-.06-1.06a.63.63,0,0,0-.06-.41c-.09-.12-.11-.1-.14.08s-.36.63-.33.42-.13-.16-.25,0a5.2,5.2,0,0,0-.33.94c-.26.88-.45,1.1-.82,1s-.36-.3-.19-.67a.88.88,0,0,0,.11-.37s-.07.06-.12.18a.9.9,0,0,1-.24.32c-.13.08-.11-.07.15-1.34.43-2.07.52-2.39.72-2.63s.08-.36-.37,0c-.23.16-.45.27-.48.24a4.87,4.87,0,0,1,.36-1.51c.14-.14.08-.5-.08-.52a.39.39,0,0,0-.47.38c0,.24-.28.79-.41.77s-.34.45-.4.75a.72.72,0,0,1-.25.4,2.28,2.28,0,0,0-.55,1.26c-.06.37-.1.43-.28.45a.72.72,0,0,1-.31,0c-.09,0-.17.16-.36.86s-.28.94-.46,1.08-.43.68-.81,2a5.21,5.21,0,0,1-.34,1,5.64,5.64,0,0,0-.33,1,4.83,4.83,0,0,1-.35,1,.57.57,0,0,0-.18.23c-.05.11-.14.19-.21.18s-.14.08-.18.34-.1.35-.15.34-.07-.1-.05-.21c.06-.32,0-.14-.16.27-.06.22-.19.68-.28,1-.17.61-.42,1.08-.56,1.06a10.3,10.3,0,0,0-.66,2.48c-.13.67-.33,1.45-.42,1.74s-.37,1.28-.6,2.21-.49,1.95-.57,2.26-.22.8-.31,1.06-.28.9-.41,1.42-.34,1.18-.44,1.5-.29,1-.42,1.45-.32,1.14-.42,1.46l-.37,1.14a8.54,8.54,0,0,0-.29,1.13,10.9,10.9,0,0,1-.29,1.2c-.28,1-.68,2.47-.93,3.57-.12.54-.3,1.24-.4,1.55a40.81,40.81,0,0,0-.86,4.2A14.53,14.53,0,0,0,38,42.32c.17-.81.35-1.57.4-1.69a17.83,17.83,0,0,1-.17,2.7c-.05.44-.81,4-1.1,5.13-.25,1-.3,1.29-.23,1.33A.22.22,0,0,1,37,50a1.59,1.59,0,0,0,.14.76,3,3,0,0,1,0,.78,6.68,6.68,0,0,0-.05.79,6.83,6.83,0,0,1-.12,1,5.62,5.62,0,0,0-.11,1.34,21.15,21.15,0,0,1-.18,2.85c-1,5.54-1.45,7.56-2,9.43-.19.68-.43,1.64-.54,2.13s-.29,1.19-.4,1.56c-.21.69-.64,2.16-1.15,3.92-.16.58-.31,1.12-.32,1.19s-.18.78-.37,1.56-.42,1.75-.51,2.14a31.71,31.71,0,0,1-1.2,4.4A35,35,0,0,0,29,89.21,16.67,16.67,0,0,1,28.64,91c-.05,0-1,5.52-1.15,6.52h0a19.53,19.53,0,0,0-.19,2.63c.1.3.23-.23.73-2.86.43-2.27.61-3.11.73-3.56,0,0,.11,0,.23,0s.2,0,.1.36a11.09,11.09,0,0,0-.36,2.43c.07.13-.88,5.31-1.09,5.95-.05.17-.17.71-.26,1.2a11.87,11.87,0,0,1-.33,1.45,52.25,52.25,0,0,0-1,5.57c0,.44.07.46.18.07,0-.13.33-1.55.66-3.15s.74-3.54.93-4.33.43-1.93.54-2.54A11.7,11.7,0,0,1,29.05,98c.09-.08.09-.52,0-.48a20.13,20.13,0,0,1,.52-3.22c.13-.51.23-.76.28-.73a6.67,6.67,0,0,1-.17,2.48,32.55,32.55,0,0,0-.49,4.37.82.82,0,0,0,.4.77l.35.29-.38,2.33c-.21,1.28-.4,2.39-.41,2.48s0,.16.06.17.14-.36.25-1.06a4,4,0,0,1,.28-1.17c.07,0,.1-.32.12-.88a6.66,6.66,0,0,1,.09-1.06c.06-.22.11-.25.39-.24l.31,0-.11.7a16.83,16.83,0,0,0-.27,2.38c0,.79-.81,5.59-1.16,7.07-.12.54-.3,1.28-.39,1.65a14.64,14.64,0,0,1-.95,3c0,.08,0,0,.16-.12.36-.4.69-1.53,1.42-4.78l.65-2.9.18,0c.18.05.19,0,.42-1.23.38-2.09.47-2.48.72-3.53a5.07,5.07,0,0,1,.31-1,9.6,9.6,0,0,1-.29,2.37c-.1.37-.11.45,0,.35s.06.15-.13,1a5.66,5.66,0,0,1-.34,1.19c-.14.11-.15.3,0,.27s.08.21-.11,1.34a5.36,5.36,0,0,0-.16,1.47.68.68,0,0,1,0,.39,1.1,1.1,0,0,0,0,.42c.05.11.07,0,.08-.25s0-.39.11-.34.06.37-.15,1.58a7.73,7.73,0,0,0-.2,1.71,4.73,4.73,0,0,1,.07.75c0,.71.06.86.34,1.12s.41.3.67-.08a1.55,1.55,0,0,1,.77-.57c.14-.07,1.39-5.42,1.76-7.54a5.16,5.16,0,0,1,.53-1.8,6.17,6.17,0,0,0,.34-.8c0-.08,0,0-.12.15a1.22,1.22,0,0,1-.28.42c-.12.1-.09-.15.24-1.88a14.85,14.85,0,0,0,.31-2,7.05,7.05,0,0,1,.17-1.48c.14-.8.36-2.11.48-2.9s.32-1.82.44-2.29.41-1.83.64-3,.47-2.3.52-2.44.07-.24,0-.26-.12-.07,0-.21a.51.51,0,0,1,.18-.23,5.51,5.51,0,0,0,.23-1.17c.09-.62.3-1.74.48-2.5s.41-1.76.52-2.23.39-1.69.64-2.71.53-2.21.63-2.63a8.09,8.09,0,0,1,.24-.88c0-.07.33-1.17.67-2.43s.76-2.74.92-3.28a94.12,94.12,0,0,0,2.36-10.61c.42-2.22.81-4.27.88-4.57s.37-1.76.68-3.26.7-3.25.85-3.88.44-1.78.62-2.54.43-1.75.55-2.22.41-1.6.62-2.53.41-1.74.44-1.81.22-.78.41-1.59.41-1.75.49-2.07c.26-1,.39-1.62.78-3.57.22-1,.47-2.24.56-2.63s.35-1.7.58-2.91.52-2.68.65-3.27C52.64,22.65,53,21.05,53.8,16.78ZM30.88,103.26a43.89,43.89,0,0,1-.71,5.71s-.05-.21,0-.44.13-1.11.21-1.94C30.51,104.94,30.92,102.37,30.88,103.26Zm.9-.25c0,.16-.09.29-.13.28s-.06-.29.07-.45S31.82,102.79,31.78,103Zm2.48-15.6c0-.25.08-.36.08-.25h0a1.47,1.47,0,0,1-.08.45C34.22,87.75,34.22,87.65,34.26,87.41ZM29,93.16c.15,0,.15.21,0,.33s-.15.1-.12-.11S28.91,93.15,29,93.16Zm1.84-8a74.55,74.55,0,0,1-1.59,8c-.18-.28-.06-1.08.74-4.85A15.94,15.94,0,0,1,30.79,85.15Zm5-4.5c-.11.43-.43,1.87-.72,3.19s-.57,2.5-.63,2.63,0-.37.17-1.13l.58-2.86h0a14.24,14.24,0,0,1,.6-2.67C36,79.67,36,79.94,35.83,80.65Zm.45-2.57s0,.23,0,.52-.15.63-.18.77-.08.22-.13.17,0-.25.06-.61.16-.61.18-.7S36.24,78.07,36.28,78.08Zm.21-.73c-.05.32-.12.56-.17.55s0-.47.15-.85C36.56,76.84,36.56,76.9,36.49,77.35Zm2-6.77s0,.07,0,.14a2.86,2.86,0,0,0-.14.51c0,.24-.08.32-.1.21s.13-.88.24-.86Zm.14-.6h0a.92.92,0,0,1-.06.35c0,.11,0,0,0-.16S38.6,69.89,38.61,70Zm1.54-6.71c.2,0,0,1.14-.78,4.26a7.92,7.92,0,0,1-.68,2,1.27,1.27,0,0,1,.07-.61c.08-.3.37-1.49.65-2.64h0c.29-1.14.55-2.3.6-2.56S40.11,63.27,40.15,63.27Zm.94-4.34a32.13,32.13,0,0,1-.76,3.93c-.15.41-.23.14-.1-.35.06-.25.26-1.15.45-2A8.23,8.23,0,0,1,41.09,58.93Zm1.54-7.66a.71.71,0,0,1,0,.27c0,.08-.05,0,0-.12S42.62,51.2,42.63,51.27Zm2.9-14c-.49,1.86-.62,2-.28.31a8.7,8.7,0,0,1,.4-1.54h0C45.85,35.88,45.83,36.13,45.53,37.27Z"/><path class="cls-1" d="M29.67,112.67s-.07-.09-.05-.19.07-.16.11-.12a.26.26,0,0,1,.05.2C29.76,112.63,29.72,112.68,29.67,112.67Z"/><path class="cls-1" d="M30.54,112.42a.54.54,0,0,1,0,.27c0,.09-.05,0,0-.12S30.53,112.36,30.54,112.42Z"/><path class="cls-1" d="M31.2,119c0-.2,0-.24.11-.27a1,1,0,0,0,.29-.5l.16-.46-.07.45C31.62,118.69,31.25,119.28,31.2,119Z"/><path class="cls-1" d="M28.12,118.22a.88.88,0,0,1,.14-.34,15.19,15.19,0,0,0,1-3.27,6.6,6.6,0,0,1,.35-1.33,25.78,25.78,0,0,1-.86,3.77,9.53,9.53,0,0,1-.43,1C28.18,118.23,28.1,118.31,28.12,118.22Z"/><path class="cls-1" d="M29.59,106.24c.09-.36.09-.29,0,.37a10.78,10.78,0,0,1-.39,2.35,2.6,2.6,0,0,1,0-.73h0A16.61,16.61,0,0,1,29.59,106.24Z"/><path class="cls-1" d="M35.22,104.84c-.19.49.19-1.22.4-1.78.12-.35.11-.25,0,.5A12.4,12.4,0,0,1,35.22,104.84Z"/><path class="cls-1" d="M27.28,101.13a.24.24,0,0,1,0,.18c0,.07-.06,0-.05-.06S27.26,101.1,27.28,101.13Z"/><path class="cls-1" d="M27.19,101.7a8.4,8.4,0,0,1-.22,1.43,2.78,2.78,0,0,1,0-.66C27.05,101.89,27.22,101.23,27.19,101.7Z"/></g></g></svg>